<svg width="465" height="400" viewBox="0 0 465 400" fill="none" xmlns="http://www.w3.org/2000/svg">
<path d="M260.837 382.821C260.561 382.821 260.35 382.61 260.35 382.334C260.35 376.147 265.38 371.114 271.562 371.114H276.657C286.637 371.114 294.766 362.979 294.766 352.993V274.648C294.766 264.662 286.637 256.527 276.657 256.527H263.693C263.417 256.527 263.206 256.316 263.206 256.04C263.206 255.764 263.417 255.553 263.693 255.553H276.657C287.172 255.553 295.74 264.126 295.74 274.648V352.993C295.74 363.515 287.172 372.088 276.657 372.088H271.562C265.916 372.088 261.324 376.683 261.324 382.334C261.324 382.61 261.113 382.821 260.837 382.821Z" fill="#66B0F0"/>
<path d="M261.324 397.711C266.432 397.711 270.573 393.567 270.573 388.455C270.573 383.344 266.432 379.2 261.324 379.2C256.216 379.2 252.075 383.344 252.075 388.455C252.075 393.567 256.216 397.711 261.324 397.711Z" fill="white"/>
<path d="M261.324 398.198C255.953 398.198 251.588 393.83 251.588 388.455C251.588 383.081 255.953 378.713 261.324 378.713C266.694 378.713 271.059 383.081 271.059 388.455C271.059 393.83 266.694 398.198 261.324 398.198ZM261.324 379.687C256.488 379.687 252.561 383.617 252.561 388.455C252.561 393.294 256.488 397.224 261.324 397.224C266.159 397.224 270.086 393.294 270.086 388.455C270.086 383.617 266.159 379.687 261.324 379.687Z" fill="#66B0F0"/>
<path d="M259.507 256.04H338.837C342.407 256.04 345.295 253.15 345.295 249.578V244.138C345.295 240.566 342.407 237.676 338.837 237.676H259.507C255.402 237.676 252.075 241.004 252.075 245.112V248.587C252.075 252.711 255.402 256.04 259.507 256.04Z" fill="#D0F0E4"/>
<path d="M338.836 256.527H259.506C255.141 256.527 251.588 252.971 251.588 248.587V245.112C251.588 240.744 255.141 237.188 259.506 237.188H338.836C342.666 237.188 345.781 240.306 345.781 244.138V249.578C345.781 253.41 342.666 256.527 338.836 256.527ZM259.506 238.163C255.677 238.163 252.561 241.28 252.561 245.112V248.587C252.561 252.435 255.677 255.553 259.506 255.553H338.836C342.13 255.553 344.808 252.874 344.808 249.578V244.138C344.808 240.842 342.13 238.163 338.836 238.163H259.506Z" fill="#66B0F0"/>
<path d="M336.581 382.821C336.305 382.821 336.095 382.61 336.095 382.334C336.095 376.683 331.503 372.088 325.856 372.088H320.761C310.246 372.088 301.679 363.515 301.679 352.993V274.648C301.679 264.126 310.246 255.553 320.761 255.553H333.725C334.001 255.553 334.212 255.764 334.212 256.04C334.212 256.316 334.001 256.527 333.725 256.527H320.761C310.782 256.527 302.652 264.662 302.652 274.648V352.993C302.652 362.979 310.782 371.114 320.761 371.114H325.856C332.038 371.114 337.068 376.147 337.068 382.334C337.068 382.61 336.857 382.821 336.581 382.821Z" fill="#66B0F0"/>
<path d="M336.111 397.711C341.219 397.711 345.36 393.567 345.36 388.455C345.36 383.344 341.219 379.2 336.111 379.2C331.003 379.2 326.862 383.344 326.862 388.455C326.862 393.567 331.003 397.711 336.111 397.711Z" fill="white"/>
<path d="M336.111 398.198C330.74 398.198 326.375 393.83 326.375 388.455C326.375 383.081 330.74 378.713 336.111 378.713C341.482 378.713 345.847 383.081 345.847 388.455C345.847 393.83 341.482 398.198 336.111 398.198ZM336.111 379.687C331.275 379.687 327.349 383.617 327.349 388.455C327.349 393.294 331.275 397.224 336.111 397.224C340.946 397.224 344.873 393.294 344.873 388.455C344.873 383.617 340.946 379.687 336.111 379.687Z" fill="#66B0F0"/>
<path d="M189.344 362.703L195.186 374.67C197.149 378.697 198.171 383.097 198.171 387.546V396.623C198.171 398.198 196.857 399.481 195.234 399.481H128.512C126.743 399.481 125.315 398.084 125.315 396.363V393.554C125.315 392.417 125.948 391.378 126.97 390.826C133.899 387.108 156.275 375.482 160.607 363.06L189.344 362.703Z" fill="white"/>
<path d="M195.234 399.968H128.511C126.483 399.968 124.828 398.344 124.828 396.363V393.554C124.828 392.239 125.558 391.037 126.743 390.404L127.473 390.015C131.302 387.969 138.442 384.137 145.176 379.33C153.354 373.469 158.4 367.948 160.153 362.914L160.266 362.59L189.652 362.232L195.623 374.475C197.603 378.551 198.657 383.081 198.657 387.563V396.639C198.657 398.474 197.116 399.968 195.234 399.968ZM160.948 363.548C156.437 375.612 135.765 386.686 127.927 390.859L127.197 391.249C126.337 391.719 125.802 392.596 125.802 393.554V396.363C125.802 397.808 127.019 398.994 128.511 398.994H195.234C196.58 398.994 197.684 397.938 197.684 396.623V387.546C197.684 383.195 196.662 378.827 194.747 374.881L189.035 363.19L160.948 363.548Z" fill="#FFCF2D"/>
<path d="M197.765 382.708H192.541C187.705 382.708 183.21 385.16 180.679 389.17L178.456 392.71C177.126 394.821 174.773 396.104 172.241 396.104H125.348" fill="white"/>
<path d="M172.241 396.591H125.348V395.617H172.241C174.594 395.617 176.817 394.399 178.05 392.45L180.273 388.911C182.886 384.786 187.575 382.221 192.541 382.221H197.765V383.195H192.541C187.9 383.195 183.519 385.582 181.085 389.43L178.862 392.97C177.434 395.243 174.967 396.591 172.241 396.591Z" fill="#FFCF2D"/>
<path d="M193.725 371.682C188.711 371.845 182.058 371.325 174.026 369.864C168.752 368.906 163.738 367.444 159.374 365.804C159.877 364.895 160.282 363.986 160.607 363.077L189.343 362.703L193.725 371.682Z" fill="#FFCF2D"/>
<path d="M146.701 379.249C146.685 379.249 146.668 379.249 146.652 379.249C146.474 379.233 146.311 379.103 146.246 378.925L142.969 369.556C142.401 367.916 142.677 366.097 143.699 364.701C144.721 363.304 146.376 362.492 148.096 362.541C150.011 362.59 151.698 363.629 152.591 365.334C153.499 367.023 153.418 369.004 152.396 370.627L147.106 379.022C147.025 379.168 146.863 379.249 146.701 379.249ZM147.934 363.515C146.555 363.515 145.305 364.149 144.478 365.285C143.634 366.438 143.407 367.883 143.877 369.247L146.814 377.658L151.569 370.124C152.396 368.809 152.461 367.185 151.731 365.805C151.001 364.425 149.621 363.58 148.064 363.532C148.031 363.515 147.983 363.515 147.934 363.515Z" fill="#FE5244"/>
<path d="M138.344 380.955C137.306 380.955 136.284 380.565 135.521 379.834C134.548 378.909 134.093 377.561 134.288 376.23C134.515 374.752 135.472 373.567 136.868 373.031C138.263 372.495 139.789 372.739 140.941 373.697L146.717 378.454C146.863 378.568 146.928 378.763 146.879 378.941C146.831 379.12 146.685 379.266 146.506 379.298L139.188 380.873C138.912 380.922 138.637 380.955 138.344 380.955ZM138.344 373.713C137.971 373.713 137.582 373.778 137.209 373.924C136.154 374.33 135.424 375.239 135.245 376.36C135.083 377.383 135.424 378.389 136.186 379.104C136.949 379.818 137.971 380.11 138.977 379.899L145.305 378.535L140.308 374.411C139.756 373.956 139.058 373.713 138.344 373.713Z" fill="#FE5244"/>
<path d="M159.016 379.054H145.889C145.613 379.054 145.402 378.843 145.402 378.567C145.402 378.291 145.613 378.08 145.889 378.08H159.016C159.292 378.08 159.503 378.291 159.503 378.567C159.503 378.843 159.292 379.054 159.016 379.054Z" fill="#FE5244"/>
<path d="M155.171 382.724H142.06C141.784 382.724 141.573 382.513 141.573 382.237C141.573 381.961 141.784 381.75 142.06 381.75H155.171C155.447 381.75 155.658 381.961 155.658 382.237C155.658 382.513 155.447 382.724 155.171 382.724Z" fill="#FE5244"/>
<path d="M164.566 375.207H151.779C151.503 375.207 151.292 374.996 151.292 374.72C151.292 374.444 151.503 374.232 151.779 374.232H164.566C164.841 374.232 165.052 374.444 165.052 374.72C165.052 374.996 164.841 375.207 164.566 375.207Z" fill="#FE5244"/>
<path d="M267.344 195.345L237.245 206.744L208.297 357.605C207.129 360.365 191.779 364.327 177.451 364.327C162.36 364.327 150.142 360.122 150.142 357.15L167.926 218.581C170.246 200.298 185.791 186.577 204.224 186.577H266.776L267.068 195.329L267.344 195.345Z" fill="white"/>
<path d="M177.45 364.814C170.489 364.814 163.593 363.921 157.995 362.313C155.48 361.583 149.655 359.634 149.655 357.15V357.085L167.439 218.516C168.575 209.553 172.939 201.32 179.706 195.361C186.488 189.386 195.186 186.09 204.224 186.09H267.246L267.538 194.874L269.648 195.004L237.666 207.117L208.767 357.767L208.751 357.816C207.826 359.991 200.865 361.81 197.928 362.492C191.486 363.97 184.038 364.814 177.45 364.814ZM150.628 357.182C150.677 358.173 153.062 359.894 158.271 361.388C163.772 362.979 170.587 363.84 177.45 363.84C183.957 363.84 191.34 362.995 197.701 361.534C204.045 360.073 207.339 358.449 207.826 357.458L236.806 206.386L266.565 195.118L266.289 187.064H204.207C195.413 187.064 186.943 190.263 180.339 196.092C173.751 201.905 169.499 209.926 168.396 218.646L150.628 357.182Z" fill="#3FB1B5"/>
<path d="M176.622 364.781C176.605 364.781 176.573 364.781 176.557 364.781C176.297 364.749 176.102 364.505 176.135 364.229L193.692 227.43C194.876 218.109 199.63 210.137 207.435 204.373C215.646 198.3 226.826 195.085 239.742 195.085C240.018 195.085 240.228 195.296 240.228 195.572C240.228 195.848 240.018 196.059 239.742 196.059C227.037 196.059 216.051 199.209 208.019 205.152C200.426 210.77 195.817 218.515 194.665 227.56L177.108 364.359C177.076 364.603 176.865 364.781 176.622 364.781Z" fill="#3FB1B5"/>
<path d="M253.372 193.722L220.968 292.883L208.344 252.485C200.556 226.651 214.591 193.722 253.372 193.722Z" fill="#3FB1B5"/>
<path d="M288.908 362.102L300.575 391.183C302.197 395.209 299.001 399.512 294.392 399.512H250.452C248.277 399.512 246.509 397.872 246.509 395.826V392.904C246.509 391.572 246.931 390.29 247.742 389.185L255.449 380.758C259.944 375.855 262.41 369.603 262.41 363.157V363.076L288.908 362.102Z" fill="white"/>
<path d="M294.392 400H250.451C248.001 400 246.021 398.133 246.021 395.827V392.904C246.021 391.459 246.476 390.079 247.352 388.894L247.385 388.861L255.092 380.434C259.505 375.628 261.923 369.49 261.923 363.157V362.605L289.232 361.599L301.028 391.004C301.823 392.969 301.596 395.129 300.396 396.899C299.081 398.847 296.842 400 294.392 400ZM248.115 389.494C247.385 390.501 246.995 391.686 246.995 392.904V395.827C246.995 397.597 248.553 399.026 250.451 399.026H294.392C296.517 399.026 298.448 398.035 299.584 396.363C300.606 394.853 300.801 393.034 300.12 391.378L288.583 362.622L262.897 363.563C262.799 369.993 260.284 376.212 255.806 381.1L248.115 389.494Z" fill="#FFCF2D"/>
<path d="M249.365 387.465C251.799 386.328 254.476 385.728 257.202 385.728H271.303C273.801 385.728 276.268 386.231 278.54 387.205L283.699 389.397" fill="white"/>
<path d="M283.504 389.852L278.344 387.66C276.121 386.702 273.752 386.214 271.302 386.214H257.201C254.573 386.214 251.944 386.799 249.575 387.903L249.169 387.026C251.668 385.857 254.443 385.24 257.218 385.24H271.318C273.898 385.24 276.397 385.744 278.75 386.75L283.91 388.942L283.504 389.852Z" fill="#FFCF2D"/>
<path d="M289.459 363.433C288.55 367.021 276.494 369.879 261.76 369.879H261.517C262.117 367.687 262.426 365.43 262.426 363.141V363.06L288.923 362.102L289.459 363.433Z" fill="#FFCF2D"/>
<path d="M266.516 377.122C266.337 377.122 266.175 377.025 266.094 376.862C266.013 376.7 266.013 376.505 266.11 376.359L271.205 368.646C271.205 368.63 271.222 368.63 271.222 368.614C272.276 367.25 273.931 366.503 275.635 366.584C277.355 366.682 278.897 367.623 279.789 369.085C280.779 370.708 280.811 372.673 279.886 374.329C278.961 375.986 277.29 376.992 275.375 377.025L266.516 377.122ZM272 369.198L267.425 376.132L275.392 376.067C276.933 376.051 278.312 375.222 279.059 373.875C279.805 372.527 279.773 370.936 278.978 369.604C278.248 368.386 277.014 367.64 275.603 367.575C274.175 367.493 272.877 368.094 272 369.198Z" fill="#FE5244"/>
<path d="M259.1 377.171C257.786 377.171 256.537 376.521 255.774 375.433C255.011 374.329 254.833 372.933 255.303 371.682C255.806 370.302 256.991 369.328 258.435 369.101C259.895 368.857 261.323 369.409 262.248 370.562L266.889 376.326C267.003 376.472 267.035 376.667 266.954 376.846C266.873 377.008 266.71 377.122 266.516 377.122L259.117 377.171H259.1ZM259.1 370.026C258.938 370.026 258.76 370.042 258.581 370.075C257.478 370.253 256.585 370.984 256.196 372.04C255.839 373.014 255.969 374.037 256.553 374.897C257.137 375.742 258.062 376.213 259.068 376.213H259.084L265.477 376.164L261.469 371.179C260.902 370.432 260.025 370.026 259.1 370.026Z" fill="#FE5244"/>
<path d="M280.81 380.433H261.582C261.306 380.433 261.095 380.222 261.095 379.946C261.095 379.67 261.306 379.459 261.582 379.459H280.81C281.086 379.459 281.297 379.67 281.297 379.946C281.297 380.222 281.086 380.433 280.81 380.433Z" fill="#FE5244"/>
<path d="M299.098 354.374C299.098 357.897 286.376 364.506 273.103 364.506C261.177 364.506 251.295 362.135 249.429 359.131L216.62 254.108C207.517 223.956 230.071 193.559 261.534 193.559H266.921L266.158 166.476H333.53L340.166 194.03C345.521 216.275 328.678 238.228 305.815 238.228H275.569L299.098 354.374Z" fill="white"/>
<path d="M273.103 364.993C261.16 364.993 251.035 362.639 249.023 359.391L248.991 359.342L248.974 359.277L216.165 254.254C213.926 246.85 213.504 239.316 214.899 231.831C216.214 224.8 219.183 218.029 223.483 212.232C227.783 206.435 233.397 201.645 239.742 198.349C246.476 194.842 253.81 193.072 261.534 193.072H266.418L265.655 165.988H333.903L334 166.362L340.636 193.916C343.249 204.795 340.75 216.129 333.773 225.011C326.909 233.714 316.735 238.715 305.815 238.715H276.17L299.584 354.325V354.374C299.584 356.761 295.284 359.472 291.276 361.21C285.711 363.613 279.09 364.993 273.103 364.993ZM249.867 358.92C250.743 360.235 253.55 361.534 257.591 362.46C261.923 363.45 267.424 364.002 273.087 364.002C278.944 364.002 285.419 362.655 290.871 360.3C296.112 358.027 298.546 355.673 298.594 354.406L274.953 237.725H305.799C316.411 237.725 326.325 232.87 332.994 224.394C339.793 215.756 342.227 204.731 339.679 194.128L333.14 166.946H266.645L267.407 194.03H261.517C253.956 194.03 246.768 195.768 240.18 199.194C233.965 202.425 228.464 207.117 224.246 212.8C220.027 218.484 217.122 225.108 215.84 232.009C214.477 239.332 214.883 246.72 217.074 253.962L249.867 358.92Z" fill="#3FB1B5"/>
<path d="M278.182 364.489C277.971 364.489 277.777 364.359 277.712 364.148L246.703 264.873C243.88 256.706 242.517 249.318 242.663 242.969C242.809 236.718 244.415 231.408 247.433 227.17C250.257 223.208 254.33 220.172 259.538 218.142C264.698 216.145 270.994 215.122 278.28 215.122H305.394C313.701 215.122 320.452 208.367 320.452 200.054V166.54C320.452 166.264 320.662 166.053 320.938 166.053C321.214 166.053 321.425 166.264 321.425 166.54V200.054C321.425 208.903 314.237 216.096 305.394 216.096H278.28C271.124 216.096 264.942 217.087 259.895 219.035C254.865 220.984 250.938 223.906 248.229 227.706C245.324 231.781 243.783 236.912 243.637 242.969C243.49 249.204 244.837 256.478 247.628 264.548L278.636 363.84C278.718 364.099 278.572 364.375 278.312 364.457C278.28 364.489 278.231 364.489 278.182 364.489Z" fill="#3FB1B5"/>
<path d="M433.494 207.473H6.25093C4.56914 207.473 3.93502 204.875 5.35489 203.82L80.8975 160.531H362.252L434.266 204.405C435.451 205.33 434.9 207.473 433.494 207.473Z" fill="white"/>
<path d="M433.494 207.961H6.25076C5.29958 207.961 4.51383 207.263 4.23812 206.175C3.9762 205.087 4.32083 203.999 5.13416 203.398C5.14794 203.382 5.16173 203.382 5.17551 203.366L80.7181 160.077C80.7732 160.045 80.8422 160.028 80.8973 160.028H362.252C362.321 160.028 362.39 160.045 362.445 160.077L434.459 203.95C434.473 203.95 434.486 203.966 434.5 203.983C435.189 204.519 435.493 205.477 435.258 206.418C435.01 207.36 434.321 207.961 433.494 207.961ZM5.5615 204.243C4.98253 204.681 4.91359 205.395 5.03766 205.899C5.16173 206.418 5.54772 206.97 6.25076 206.97H433.494C434.045 206.97 434.348 206.532 434.459 206.126C434.555 205.72 434.514 205.168 434.059 204.795L362.156 160.986H80.9938L5.5615 204.243Z" fill="#66B0F0"/>
<path d="M422.094 202.651H17.1141C15.2393 202.651 14.5225 199.745 16.1215 198.559L81.3115 161.019H361.605L423.128 198.592C424.672 199.793 423.955 202.651 422.094 202.651Z" fill="#D0F0E4"/>
<path d="M0.40658 398.197C0.379009 398.197 0.365224 398.197 0.337654 398.197C0.117092 398.148 -0.034548 397.904 0.00680736 397.628L28.0595 207.392C28.1009 207.132 28.3077 206.953 28.542 207.002C28.7626 207.051 28.9142 207.294 28.8729 207.57L0.820133 397.791C0.778778 398.034 0.599571 398.197 0.40658 398.197Z" fill="#66B0F0"/>
<path d="M71.1401 398.197C70.9471 398.197 70.7679 398.035 70.7265 397.791L42.6738 207.555C42.6324 207.295 42.7841 207.035 43.0046 206.987C43.2252 206.938 43.4458 207.116 43.4871 207.376L71.5398 397.613C71.5812 397.872 71.4296 398.132 71.209 398.181C71.1814 398.197 71.1676 398.197 71.1401 398.197Z" fill="#66B0F0"/>
<path d="M367.464 398.196C367.437 398.196 367.423 398.196 367.395 398.196C367.175 398.147 367.023 397.903 367.064 397.627L395.117 207.391C395.159 207.131 395.365 206.952 395.6 207.001C395.82 207.05 395.972 207.293 395.93 207.569L367.878 397.806C367.836 398.033 367.657 398.196 367.464 398.196Z" fill="#66B0F0"/>
<path d="M438.195 398.197C438.002 398.197 437.823 398.035 437.781 397.791L409.728 207.555C409.687 207.295 409.839 207.035 410.059 206.987C410.28 206.938 410.5 207.116 410.542 207.376L438.595 397.613C438.636 397.872 438.484 398.132 438.264 398.181C438.236 398.197 438.222 398.197 438.195 398.197Z" fill="#66B0F0"/>
<path d="M375.196 333.963H407.356C408.362 330.359 411.656 327.712 415.583 327.712H383.422C379.496 327.712 376.202 330.359 375.196 333.963Z" fill="#3FB1B5"/>
<path d="M383.698 328.231C388.404 328.231 392.233 332.063 392.233 336.772V345.313H424.394V336.772C424.394 332.047 420.564 328.231 415.859 328.231H383.698Z" fill="white"/>
<path d="M424.88 345.8H391.746V336.772C391.746 332.339 388.144 328.718 383.698 328.718V327.744H415.859C420.84 327.744 424.88 331.787 424.88 336.772V345.8ZM392.72 344.826H423.907V336.772C423.907 332.339 420.288 328.718 415.859 328.718H387.771C390.708 330.212 392.72 333.265 392.72 336.772V344.826Z" fill="#3FB1B5"/>
<path d="M440.848 333.298H411.495L413.28 341.449H442.633L440.848 333.298Z" fill="white"/>
<path d="M443.232 341.936H412.889L410.894 332.811H441.237L443.232 341.936ZM413.668 340.962H442.032L440.458 333.785H412.094L413.668 340.962Z" fill="#FFCF2D"/>
<path d="M455.921 397.695H387.463C392.963 397.695 397.052 392.596 395.852 387.222L386.457 344.989C386.002 342.91 384.152 341.433 382.027 341.433H450.485C452.611 341.433 454.445 342.91 454.915 344.989L464.31 387.222C465.511 392.596 461.422 397.695 455.921 397.695Z" fill="white"/>
<path d="M455.921 398.182H387.463V397.208C389.945 397.208 392.249 396.104 393.791 394.171C395.332 392.239 395.916 389.755 395.381 387.335L385.986 345.102C385.58 343.267 383.925 341.92 382.027 341.92V340.945H450.485C452.854 340.945 454.867 342.569 455.386 344.875L464.781 387.108C465.381 389.82 464.732 392.596 463.012 394.772C461.276 396.948 458.696 398.182 455.921 398.182ZM391.568 397.208H455.921C458.404 397.208 460.708 396.104 462.249 394.171C463.791 392.239 464.375 389.755 463.84 387.335L454.445 345.102C454.023 343.235 452.4 341.92 450.485 341.92H384.996C385.954 342.618 386.668 343.673 386.943 344.891L396.338 387.124C396.939 389.836 396.29 392.612 394.57 394.788C393.726 395.811 392.704 396.623 391.568 397.208Z" fill="#FFCF2D"/>
<path d="M427.315 375.32H424.443C419.039 375.32 413.733 373.452 409.515 370.075C405.296 366.698 402.326 361.924 401.142 356.631L397.945 342.277L399.535 341.92L402.732 356.273C403.835 361.193 406.594 365.642 410.537 368.809C414.464 371.959 419.413 373.696 424.459 373.696H427.331C431.371 373.696 435.152 371.877 437.683 368.711C440.215 365.545 441.172 361.469 440.28 357.507L436.888 342.261L438.478 341.903L441.87 357.15C442.859 361.583 441.789 366.162 438.949 369.718C436.093 373.29 431.858 375.32 427.315 375.32Z" fill="#D0F0E4"/>
<path d="M430.722 375.158H427.85C422.447 375.158 417.141 373.29 412.922 369.913C408.704 366.536 405.734 361.762 404.55 356.468L401.353 342.115C401.256 341.676 401.532 341.238 401.97 341.14C402.408 341.043 402.846 341.319 402.943 341.757L406.14 356.111C407.243 361.031 410.002 365.48 413.945 368.646C417.871 371.796 422.82 373.534 427.867 373.534H430.739C434.779 373.534 438.56 371.715 441.091 368.549C443.622 365.383 444.58 361.307 443.687 357.345L440.296 342.098C440.199 341.66 440.474 341.221 440.913 341.124C441.351 341.027 441.789 341.303 441.886 341.741L445.277 356.988C446.267 361.421 445.196 366 442.357 369.556C439.501 373.128 435.266 375.158 430.722 375.158Z" fill="#FFCF2D"/>
<path d="M387.463 397.695H376.169C370.669 397.695 366.58 392.596 367.78 387.222L377.175 344.989C377.63 342.91 379.479 341.433 381.605 341.433H382.059C384.185 341.433 386.019 342.91 386.489 344.989L395.884 387.222C397.052 392.596 392.963 397.695 387.463 397.695Z" fill="#FFCF2D"/>
<path d="M387.463 398.182H376.17C373.395 398.182 370.815 396.948 369.079 394.772C367.342 392.612 366.693 389.82 367.31 387.108L376.705 344.875C377.208 342.602 379.269 340.945 381.605 340.945H382.06C384.429 340.945 386.441 342.569 386.96 344.875L396.355 387.108C396.939 389.82 396.29 392.612 394.538 394.772C392.818 396.948 390.221 398.182 387.463 398.182ZM381.605 341.92C379.723 341.92 378.052 343.251 377.646 345.086L368.251 387.319C367.716 389.738 368.284 392.223 369.841 394.155C371.383 396.087 373.703 397.191 376.17 397.191H387.463C389.929 397.191 392.233 396.087 393.791 394.155C395.349 392.223 395.933 389.722 395.414 387.303L386.019 345.07C385.597 343.202 383.974 341.887 382.06 341.887H381.605V341.92Z" fill="#FFCF2D"/>
<path d="M382.514 341.449H381.541V387.92H382.514V341.449Z" fill="white"/>
<path d="M392.688 396.72C392.574 396.72 392.477 396.688 392.38 396.623L381.995 388.423L371.561 396.574C371.351 396.737 371.042 396.704 370.88 396.493C370.718 396.282 370.75 395.973 370.961 395.811L382.011 387.205L392.98 395.892C393.191 396.055 393.223 396.363 393.061 396.574C392.98 396.655 392.834 396.72 392.688 396.72Z" fill="white"/>
<path d="M71.9609 326.396C71.9609 326.396 51.5971 300.222 54.8261 292.135C57.5845 285.235 63.8641 291.665 63.8641 291.665L71.9609 326.396Z" fill="#3FB1B5"/>
<path d="M86.9375 353.968C86.9375 353.968 108.145 330.586 107.658 322.175C107.172 313.764 99.4966 317.71 99.4966 317.71L86.9375 353.968Z" fill="#3FB1B5"/>
<path d="M109.07 374.54C109.07 381.587 106.085 388.017 101.184 392.921C97.2414 396.85 91.8868 399.026 86.3212 399.026H69.0402C63.4746 399.026 58.1199 396.85 54.177 392.921C49.2766 388.033 46.291 381.587 46.291 374.54C46.291 364.505 52.3272 355.721 61.3814 350.85H93.9962C103.034 355.705 109.07 364.505 109.07 374.54Z" fill="#FFCF2D"/>
<path d="M77.688 356.338C86.9094 356.338 94.3848 354.354 94.3848 351.905C94.3848 349.457 86.9094 347.473 77.688 347.473C68.4666 347.473 60.9912 349.457 60.9912 351.905C60.9912 354.354 68.4666 356.338 77.688 356.338Z" fill="#3FB1B5"/>
<path d="M86.9365 353.967C84.2916 354.438 81.1113 354.714 77.6875 354.714C74.4423 354.714 71.408 354.471 68.8605 354.049C62.8243 347.635 48.1234 330.618 53.5592 322.207C60.3417 311.702 71.9759 326.413 71.9759 326.413C71.9759 326.413 58.2485 284.228 65.5179 274.859C72.7872 265.49 78.4826 282.134 78.4826 282.134C78.4826 282.134 82.1497 261.934 91.9991 263.867C101.394 265.718 86.8391 312.562 85.4761 316.881C86.1738 314.803 90.3927 303.339 98.6194 304.395C106.408 305.385 91.2202 343.559 86.9365 353.967Z" fill="white"/>
<path d="M77.6881 355.201C74.5078 355.201 71.441 354.974 68.7799 354.536L68.6177 354.503L68.5041 354.39C62.0298 347.505 47.5723 330.569 53.1541 321.947C54.7929 319.414 56.8537 318.067 59.2714 317.953C63.8309 317.726 68.4879 321.915 70.8244 324.383C69.6886 320.681 67.3683 312.741 65.5347 304.265C62.1596 288.564 62.0136 278.578 65.129 274.567C66.9139 272.261 68.7962 271.255 70.7271 271.579C74.4429 272.196 77.1851 277.684 78.3372 280.445C79.1972 276.775 81.696 267.942 86.6126 264.581C88.3163 263.412 90.1499 263.022 92.097 263.396C93.0544 263.59 93.817 264.159 94.3849 265.133C96.5268 268.738 95.894 278.09 92.5189 292.899C91.0099 299.54 89.225 306.002 87.8782 310.614C90.1337 306.977 93.6872 303.291 98.6849 303.924C99.4962 304.021 100.129 304.46 100.583 305.223C102.238 308.065 100.989 315.956 96.8675 328.702C93.671 338.623 89.5495 348.918 87.3914 354.179L87.2941 354.422L87.0344 354.471C84.2435 354.942 81.0145 355.201 77.6881 355.201ZM69.1045 353.594C71.6682 354 74.6376 354.227 77.6881 354.227C80.8685 354.227 83.9352 353.984 86.5963 353.529C88.7869 348.219 92.7948 338.104 95.9426 328.377C100.957 312.855 100.778 307.48 99.7396 305.694C99.4637 305.207 99.0743 304.931 98.5713 304.866C90.7827 303.875 86.6937 314.819 85.9473 317.028L85.0224 316.719C85.6714 314.689 88.9978 303.94 91.5778 292.655C94.8555 278.285 95.537 268.933 93.5574 265.604C93.1355 264.889 92.6 264.467 91.9185 264.337C90.2472 264.013 88.6571 264.354 87.1805 265.36C81.3715 269.322 79.0025 282.085 78.9862 282.215L78.6455 284.05L78.0451 282.28C78.0127 282.182 74.8972 273.235 70.5973 272.521C69.0558 272.261 67.4818 273.154 65.9241 275.151C58.8982 284.212 72.3173 325.828 72.4633 326.25L73.3071 328.832L71.6195 326.705C71.5546 326.624 65.1615 318.619 59.3525 318.911C57.2593 319.008 55.4582 320.21 53.9979 322.467C51.7586 325.926 52.8945 331.349 57.3567 338.623C61.0563 344.696 66.2486 350.558 69.1045 353.594Z" fill="#3FB1B5"/>
<path d="M77.6889 355.201C77.4131 355.201 77.2021 354.974 77.2021 354.714C77.4131 327.647 81.2912 304.346 84.5202 289.57C88.0088 273.544 91.4975 263.785 91.53 263.688C91.6273 263.428 91.9031 263.298 92.1465 263.396C92.4062 263.493 92.536 263.769 92.4386 264.013C92.4062 264.11 88.9337 273.82 85.4613 289.781C82.2485 304.508 78.3867 327.744 78.1757 354.714C78.1757 354.99 77.9486 355.201 77.6889 355.201Z" fill="#3FB1B5"/>
<path d="M80.6103 314.982C80.5941 314.982 80.5616 314.982 80.5292 314.982C80.2695 314.949 80.0748 314.69 80.1235 314.43C81.7299 303.811 78.0141 282.426 77.9816 282.215C77.933 281.955 78.1115 281.695 78.3711 281.647C78.6307 281.598 78.8903 281.777 78.939 282.036C78.9714 282.247 82.7197 303.794 81.0809 314.576C81.0484 314.803 80.8537 314.982 80.6103 314.982Z" fill="#3FB1B5"/>
<path d="M80.999 355.104C80.9827 355.104 80.9827 355.104 80.9665 355.104C80.6907 355.088 80.4959 354.86 80.5122 354.584C81.4371 339.094 86.1914 326.185 90.0208 318.099C94.1747 309.331 98.1826 304.135 98.215 304.086C98.3773 303.875 98.6856 303.843 98.8965 304.005C99.1075 304.167 99.1399 304.476 98.9776 304.687C98.9452 304.736 94.986 309.867 90.8808 318.554C87.0838 326.559 82.3782 339.337 81.4695 354.665C81.4695 354.909 81.2586 355.104 80.999 355.104Z" fill="#3FB1B5"/>
<path d="M74.3456 355.12C74.086 355.12 73.8588 354.909 73.8588 354.633C73.6966 343.218 68.5366 334.596 64.2204 329.368C59.5473 323.701 54.8741 320.697 54.8417 320.681C54.6145 320.535 54.5496 320.243 54.6957 320.015C54.8417 319.788 55.1338 319.723 55.3609 319.869C55.5556 319.999 60.2126 322.97 64.9831 328.767C69.3804 334.109 74.6701 342.942 74.8324 354.633C74.8324 354.893 74.6214 355.12 74.3456 355.12Z" fill="#3FB1B5"/>
<path d="M61.7383 315.095C59.6452 315.095 57.9414 313.39 57.9414 311.296C57.9414 309.201 59.6452 307.496 61.7383 307.496C63.8315 307.496 65.5352 309.201 65.5352 311.296C65.5352 313.39 63.8315 315.095 61.7383 315.095ZM61.7383 308.47C60.1806 308.47 58.915 309.737 58.915 311.296C58.915 312.854 60.1806 314.121 61.7383 314.121C63.296 314.121 64.5617 312.854 64.5617 311.296C64.5617 309.737 63.296 308.47 61.7383 308.47Z" fill="#FFCF2D"/>
<path d="M54.0794 310.094C52.9761 310.094 52.0674 309.185 52.0674 308.081C52.0674 306.977 52.9761 306.067 54.0794 306.067C55.1828 306.067 56.0915 306.977 56.0915 308.081C56.0915 309.185 55.1828 310.094 54.0794 310.094ZM54.0794 307.042C53.5115 307.042 53.041 307.513 53.041 308.081C53.041 308.649 53.5115 309.12 54.0794 309.12C54.6474 309.12 55.1179 308.649 55.1179 308.081C55.1179 307.513 54.6474 307.042 54.0794 307.042Z" fill="#FFCF2D"/>
<path d="M56.2699 348.479C55.1665 348.479 54.2578 347.57 54.2578 346.466C54.2578 345.361 55.1665 344.452 56.2699 344.452C57.3733 344.452 58.2819 345.361 58.2819 346.466C58.2819 347.57 57.3733 348.479 56.2699 348.479ZM56.2699 345.426C55.702 345.426 55.2314 345.897 55.2314 346.466C55.2314 347.034 55.702 347.505 56.2699 347.505C56.8378 347.505 57.3084 347.034 57.3084 346.466C57.3084 345.897 56.8378 345.426 56.2699 345.426Z" fill="#FFCF2D"/>
<path d="M96.8678 301.326C94.7746 301.326 93.0708 299.621 93.0708 297.526C93.0708 295.432 94.7746 293.727 96.8678 293.727C98.961 293.727 100.665 295.432 100.665 297.526C100.665 299.621 98.961 301.326 96.8678 301.326ZM96.8678 294.701C95.31 294.701 94.0444 295.967 94.0444 297.526C94.0444 299.085 95.31 300.351 96.8678 300.351C98.4255 300.351 99.6912 299.085 99.6912 297.526C99.6912 295.967 98.4255 294.701 96.8678 294.701Z" fill="#FFCF2D"/>
<path d="M97.8421 289.083C96.7387 289.083 95.8301 288.173 95.8301 287.069C95.8301 285.965 96.7387 285.056 97.8421 285.056C98.9455 285.056 99.8542 285.965 99.8542 287.069C99.8542 288.173 98.9455 289.083 97.8421 289.083ZM97.8421 286.03C97.2742 286.03 96.8037 286.501 96.8037 287.069C96.8037 287.637 97.2742 288.108 97.8421 288.108C98.41 288.108 98.8806 287.637 98.8806 287.069C98.8806 286.501 98.41 286.03 97.8421 286.03Z" fill="#FFCF2D"/>
<path d="M103.375 301.327C102.272 301.327 101.363 300.417 101.363 299.313C101.363 298.209 102.272 297.3 103.375 297.3C104.479 297.3 105.387 298.209 105.387 299.313C105.387 300.417 104.479 301.327 103.375 301.327ZM103.375 298.274C102.807 298.274 102.337 298.745 102.337 299.313C102.337 299.882 102.807 300.353 103.375 300.353C103.943 300.353 104.414 299.882 104.414 299.313C104.414 298.745 103.943 298.274 103.375 298.274Z" fill="#FFCF2D"/>
<path d="M299.926 64.6182L332.589 73.841C346.884 77.7542 357.253 90.1595 358.551 104.935L363.532 160.061H190.674L206.641 98.1158C209.253 87.7888 217.074 79.6052 227.264 76.5364L265.412 64.6182H299.926Z" fill="#FE5244"/>
<path d="M200.394 155.303C201.264 155.303 201.968 154.598 201.968 153.728C201.968 152.858 201.264 152.153 200.394 152.153C199.525 152.153 198.82 152.858 198.82 153.728C198.82 154.598 199.525 155.303 200.394 155.303Z" fill="white"/>
<path d="M216.783 155.303C217.652 155.303 218.357 154.598 218.357 153.728C218.357 152.858 217.652 152.153 216.783 152.153C215.914 152.153 215.209 152.858 215.209 153.728C215.209 154.598 215.914 155.303 216.783 155.303Z" fill="white"/>
<path d="M233.172 155.303C234.041 155.303 234.745 154.598 234.745 153.728C234.745 152.858 234.041 152.153 233.172 152.153C232.302 152.153 231.598 152.858 231.598 153.728C231.598 154.598 232.302 155.303 233.172 155.303Z" fill="white"/>
<path d="M249.56 155.303C250.429 155.303 251.134 154.598 251.134 153.728C251.134 152.858 250.429 152.153 249.56 152.153C248.691 152.153 247.986 152.858 247.986 153.728C247.986 154.598 248.691 155.303 249.56 155.303Z" fill="white"/>
<path d="M265.948 155.303C266.818 155.303 267.522 154.598 267.522 153.728C267.522 152.858 266.818 152.153 265.948 152.153C265.079 152.153 264.375 152.858 264.375 153.728C264.375 154.598 265.079 155.303 265.948 155.303Z" fill="white"/>
<path d="M282.337 155.303C283.206 155.303 283.911 154.598 283.911 153.728C283.911 152.858 283.206 152.153 282.337 152.153C281.467 152.153 280.763 152.858 280.763 153.728C280.763 154.598 281.467 155.303 282.337 155.303Z" fill="white"/>
<path d="M298.725 155.303C299.594 155.303 300.299 154.598 300.299 153.728C300.299 152.858 299.594 152.153 298.725 152.153C297.856 152.153 297.151 152.858 297.151 153.728C297.151 154.598 297.856 155.303 298.725 155.303Z" fill="white"/>
<path d="M315.114 155.303C315.983 155.303 316.688 154.598 316.688 153.728C316.688 152.858 315.983 152.153 315.114 152.153C314.245 152.153 313.54 152.858 313.54 153.728C313.54 154.598 314.245 155.303 315.114 155.303Z" fill="white"/>
<path d="M331.503 155.303C332.372 155.303 333.077 154.598 333.077 153.728C333.077 152.858 332.372 152.153 331.503 152.153C330.633 152.153 329.929 152.858 329.929 153.728C329.929 154.598 330.633 155.303 331.503 155.303Z" fill="white"/>
<path d="M347.891 155.303C348.76 155.303 349.465 154.598 349.465 153.728C349.465 152.858 348.76 152.153 347.891 152.153C347.022 152.153 346.317 152.858 346.317 153.728C346.317 154.598 347.022 155.303 347.891 155.303Z" fill="white"/>
<path d="M208.832 144.262C209.701 144.262 210.406 143.557 210.406 142.687C210.406 141.817 209.701 141.112 208.832 141.112C207.962 141.112 207.258 141.817 207.258 142.687C207.258 143.557 207.962 144.262 208.832 144.262Z" fill="white"/>
<path d="M225.22 144.262C226.09 144.262 226.794 143.557 226.794 142.687C226.794 141.817 226.09 141.112 225.22 141.112C224.351 141.112 223.646 141.817 223.646 142.687C223.646 143.557 224.351 144.262 225.22 144.262Z" fill="white"/>
<path d="M241.609 144.262C242.478 144.262 243.183 143.557 243.183 142.687C243.183 141.817 242.478 141.112 241.609 141.112C240.74 141.112 240.035 141.817 240.035 142.687C240.035 143.557 240.74 144.262 241.609 144.262Z" fill="white"/>
<path d="M257.997 144.262C258.867 144.262 259.571 143.557 259.571 142.687C259.571 141.817 258.867 141.112 257.997 141.112C257.128 141.112 256.423 141.817 256.423 142.687C256.423 143.557 257.128 144.262 257.997 144.262Z" fill="white"/>
<path d="M274.386 144.262C275.255 144.262 275.96 143.557 275.96 142.687C275.96 141.817 275.255 141.112 274.386 141.112C273.516 141.112 272.812 141.817 272.812 142.687C272.812 143.557 273.516 144.262 274.386 144.262Z" fill="white"/>
<path d="M290.774 144.262C291.643 144.262 292.348 143.557 292.348 142.687C292.348 141.817 291.643 141.112 290.774 141.112C289.905 141.112 289.2 141.817 289.2 142.687C289.2 143.557 289.905 144.262 290.774 144.262Z" fill="white"/>
<path d="M307.163 144.262C308.032 144.262 308.737 143.557 308.737 142.687C308.737 141.817 308.032 141.112 307.163 141.112C306.294 141.112 305.589 141.817 305.589 142.687C305.589 143.557 306.294 144.262 307.163 144.262Z" fill="white"/>
<path d="M323.551 144.262C324.421 144.262 325.125 143.557 325.125 142.687C325.125 141.817 324.421 141.112 323.551 141.112C322.682 141.112 321.978 141.817 321.978 142.687C321.978 143.557 322.682 144.262 323.551 144.262Z" fill="white"/>
<path d="M339.94 144.262C340.809 144.262 341.514 143.557 341.514 142.687C341.514 141.817 340.809 141.112 339.94 141.112C339.071 141.112 338.366 141.817 338.366 142.687C338.366 143.557 339.071 144.262 339.94 144.262Z" fill="white"/>
<path d="M356.328 144.262C357.198 144.262 357.902 143.557 357.902 142.687C357.902 141.817 357.198 141.112 356.328 141.112C355.459 141.112 354.754 141.817 354.754 142.687C354.754 143.557 355.459 144.262 356.328 144.262Z" fill="white"/>
<path d="M200.394 132.896C201.264 132.896 201.968 132.191 201.968 131.321C201.968 130.451 201.264 129.746 200.394 129.746C199.525 129.746 198.82 130.451 198.82 131.321C198.82 132.191 199.525 132.896 200.394 132.896Z" fill="white"/>
<path d="M216.783 132.896C217.652 132.896 218.357 132.191 218.357 131.321C218.357 130.451 217.652 129.746 216.783 129.746C215.914 129.746 215.209 130.451 215.209 131.321C215.209 132.191 215.914 132.896 216.783 132.896Z" fill="white"/>
<path d="M233.172 132.896C234.041 132.896 234.745 132.191 234.745 131.321C234.745 130.451 234.041 129.746 233.172 129.746C232.302 129.746 231.598 130.451 231.598 131.321C231.598 132.191 232.302 132.896 233.172 132.896Z" fill="white"/>
<path d="M249.56 132.896C250.429 132.896 251.134 132.191 251.134 131.321C251.134 130.451 250.429 129.746 249.56 129.746C248.691 129.746 247.986 130.451 247.986 131.321C247.986 132.191 248.691 132.896 249.56 132.896Z" fill="white"/>
<path d="M265.948 132.896C266.818 132.896 267.522 132.191 267.522 131.321C267.522 130.451 266.818 129.746 265.948 129.746C265.079 129.746 264.375 130.451 264.375 131.321C264.375 132.191 265.079 132.896 265.948 132.896Z" fill="white"/>
<path d="M282.337 132.896C283.206 132.896 283.911 132.191 283.911 131.321C283.911 130.451 283.206 129.746 282.337 129.746C281.467 129.746 280.763 130.451 280.763 131.321C280.763 132.191 281.467 132.896 282.337 132.896Z" fill="white"/>
<path d="M298.725 132.896C299.594 132.896 300.299 132.191 300.299 131.321C300.299 130.451 299.594 129.746 298.725 129.746C297.856 129.746 297.151 130.451 297.151 131.321C297.151 132.191 297.856 132.896 298.725 132.896Z" fill="white"/>
<path d="M315.114 132.896C315.983 132.896 316.688 132.191 316.688 131.321C316.688 130.451 315.983 129.746 315.114 129.746C314.245 129.746 313.54 130.451 313.54 131.321C313.54 132.191 314.245 132.896 315.114 132.896Z" fill="white"/>
<path d="M331.503 132.896C332.372 132.896 333.077 132.191 333.077 131.321C333.077 130.451 332.372 129.746 331.503 129.746C330.633 129.746 329.929 130.451 329.929 131.321C329.929 132.191 330.633 132.896 331.503 132.896Z" fill="white"/>
<path d="M347.891 132.896C348.76 132.896 349.465 132.191 349.465 131.321C349.465 130.451 348.76 129.746 347.891 129.746C347.022 129.746 346.317 130.451 346.317 131.321C346.317 132.191 347.022 132.896 347.891 132.896Z" fill="white"/>
<path d="M208.832 122.341C209.701 122.341 210.406 121.636 210.406 120.766C210.406 119.897 209.701 119.191 208.832 119.191C207.962 119.191 207.258 119.897 207.258 120.766C207.258 121.636 207.962 122.341 208.832 122.341Z" fill="white"/>
<path d="M225.22 122.341C226.09 122.341 226.794 121.636 226.794 120.766C226.794 119.897 226.09 119.191 225.22 119.191C224.351 119.191 223.646 119.897 223.646 120.766C223.646 121.636 224.351 122.341 225.22 122.341Z" fill="white"/>
<path d="M241.609 122.341C242.478 122.341 243.183 121.636 243.183 120.766C243.183 119.897 242.478 119.191 241.609 119.191C240.74 119.191 240.035 119.897 240.035 120.766C240.035 121.636 240.74 122.341 241.609 122.341Z" fill="white"/>
<path d="M257.997 122.341C258.867 122.341 259.571 121.636 259.571 120.766C259.571 119.897 258.867 119.191 257.997 119.191C257.128 119.191 256.423 119.897 256.423 120.766C256.423 121.636 257.128 122.341 257.997 122.341Z" fill="white"/>
<path d="M274.386 122.341C275.255 122.341 275.96 121.636 275.96 120.766C275.96 119.897 275.255 119.191 274.386 119.191C273.516 119.191 272.812 119.897 272.812 120.766C272.812 121.636 273.516 122.341 274.386 122.341Z" fill="white"/>
<path d="M290.774 122.341C291.643 122.341 292.348 121.636 292.348 120.766C292.348 119.897 291.643 119.191 290.774 119.191C289.905 119.191 289.2 119.897 289.2 120.766C289.2 121.636 289.905 122.341 290.774 122.341Z" fill="white"/>
<path d="M307.163 122.341C308.032 122.341 308.737 121.636 308.737 120.766C308.737 119.897 308.032 119.191 307.163 119.191C306.294 119.191 305.589 119.897 305.589 120.766C305.589 121.636 306.294 122.341 307.163 122.341Z" fill="white"/>
<path d="M324.038 122.341C324.907 122.341 325.612 121.636 325.612 120.766C325.612 119.897 324.907 119.191 324.038 119.191C323.169 119.191 322.464 119.897 322.464 120.766C322.464 121.636 323.169 122.341 324.038 122.341Z" fill="white"/>
<path d="M339.94 122.341C340.809 122.341 341.514 121.636 341.514 120.766C341.514 119.897 340.809 119.191 339.94 119.191C339.071 119.191 338.366 119.897 338.366 120.766C338.366 121.636 339.071 122.341 339.94 122.341Z" fill="white"/>
<path d="M356.328 122.341C357.198 122.341 357.902 121.636 357.902 120.766C357.902 119.897 357.198 119.191 356.328 119.191C355.459 119.191 354.754 119.897 354.754 120.766C354.754 121.636 355.459 122.341 356.328 122.341Z" fill="white"/>
<path d="M216.783 111.463C217.652 111.463 218.357 110.757 218.357 109.888C218.357 109.018 217.652 108.312 216.783 108.312C215.914 108.312 215.209 109.018 215.209 109.888C215.209 110.757 215.914 111.463 216.783 111.463Z" fill="white"/>
<path d="M249.56 111.463C250.43 111.463 251.134 110.757 251.134 109.888C251.134 109.018 250.43 108.312 249.56 108.312C248.691 108.312 247.986 109.018 247.986 109.888C247.986 110.757 248.691 111.463 249.56 111.463Z" fill="white"/>
<path d="M265.948 111.463C266.818 111.463 267.522 110.757 267.522 109.888C267.522 109.018 266.818 108.312 265.948 108.312C265.079 108.312 264.375 109.018 264.375 109.888C264.375 110.757 265.079 111.463 265.948 111.463Z" fill="white"/>
<path d="M282.337 111.463C283.206 111.463 283.911 110.757 283.911 109.888C283.911 109.018 283.206 108.312 282.337 108.312C281.468 108.312 280.763 109.018 280.763 109.888C280.763 110.757 281.468 111.463 282.337 111.463Z" fill="white"/>
<path d="M298.725 111.463C299.595 111.463 300.299 110.757 300.299 109.888C300.299 109.018 299.595 108.312 298.725 108.312C297.856 108.312 297.151 109.018 297.151 109.888C297.151 110.757 297.856 111.463 298.725 111.463Z" fill="white"/>
<path d="M315.114 111.463C315.983 111.463 316.688 110.757 316.688 109.888C316.688 109.018 315.983 108.312 315.114 108.312C314.245 108.312 313.54 109.018 313.54 109.888C313.54 110.757 314.245 111.463 315.114 111.463Z" fill="white"/>
<path d="M331.503 111.463C332.372 111.463 333.077 110.757 333.077 109.888C333.077 109.018 332.372 108.312 331.503 108.312C330.633 108.312 329.929 109.018 329.929 109.888C329.929 110.757 330.633 111.463 331.503 111.463Z" fill="white"/>
<path d="M347.891 111.463C348.761 111.463 349.465 110.757 349.465 109.888C349.465 109.018 348.761 108.312 347.891 108.312C347.022 108.312 346.317 109.018 346.317 109.888C346.317 110.757 347.022 111.463 347.891 111.463Z" fill="white"/>
<path d="M208.832 100.747C209.701 100.747 210.406 100.042 210.406 99.1717C210.406 98.3018 209.701 97.5967 208.832 97.5967C207.962 97.5967 207.258 98.3018 207.258 99.1717C207.258 100.042 207.962 100.747 208.832 100.747Z" fill="white"/>
<path d="M225.22 100.747C226.09 100.747 226.794 100.042 226.794 99.1717C226.794 98.3018 226.09 97.5967 225.22 97.5967C224.351 97.5967 223.646 98.3018 223.646 99.1717C223.646 100.042 224.351 100.747 225.22 100.747Z" fill="white"/>
<path d="M241.609 100.747C242.478 100.747 243.183 100.042 243.183 99.1717C243.183 98.3018 242.478 97.5967 241.609 97.5967C240.74 97.5967 240.035 98.3018 240.035 99.1717C240.035 100.042 240.74 100.747 241.609 100.747Z" fill="white"/>
<path d="M257.997 100.747C258.867 100.747 259.571 100.042 259.571 99.1717C259.571 98.3018 258.867 97.5967 257.997 97.5967C257.128 97.5967 256.423 98.3018 256.423 99.1717C256.423 100.042 257.128 100.747 257.997 100.747Z" fill="white"/>
<path d="M274.386 100.747C275.255 100.747 275.96 100.042 275.96 99.1717C275.96 98.3018 275.255 97.5967 274.386 97.5967C273.517 97.5967 272.812 98.3018 272.812 99.1717C272.812 100.042 273.517 100.747 274.386 100.747Z" fill="white"/>
<path d="M290.774 100.747C291.643 100.747 292.348 100.042 292.348 99.1717C292.348 98.3018 291.643 97.5967 290.774 97.5967C289.905 97.5967 289.2 98.3018 289.2 99.1717C289.2 100.042 289.905 100.747 290.774 100.747Z" fill="white"/>
<path d="M307.163 100.747C308.032 100.747 308.737 100.042 308.737 99.1717C308.737 98.3018 308.032 97.5967 307.163 97.5967C306.294 97.5967 305.589 98.3018 305.589 99.1717C305.589 100.042 306.294 100.747 307.163 100.747Z" fill="white"/>
<path d="M323.551 100.747C324.421 100.747 325.125 100.042 325.125 99.1717C325.125 98.3018 324.421 97.5967 323.551 97.5967C322.682 97.5967 321.978 98.3018 321.978 99.1717C321.978 100.042 322.682 100.747 323.551 100.747Z" fill="white"/>
<path d="M339.94 100.747C340.809 100.747 341.514 100.042 341.514 99.1717C341.514 98.3018 340.809 97.5967 339.94 97.5967C339.071 97.5967 338.366 98.3018 338.366 99.1717C338.366 100.042 339.071 100.747 339.94 100.747Z" fill="white"/>
<path d="M355.517 100.747C356.386 100.747 357.091 100.042 357.091 99.1717C357.091 98.3018 356.386 97.5967 355.517 97.5967C354.648 97.5967 353.943 98.3018 353.943 99.1717C353.943 100.042 354.648 100.747 355.517 100.747Z" fill="white"/>
<path d="M216.783 90.192C217.652 90.192 218.357 89.4869 218.357 88.617C218.357 87.7471 217.652 87.042 216.783 87.042C215.914 87.042 215.209 87.7471 215.209 88.617C215.209 89.4869 215.914 90.192 216.783 90.192Z" fill="white"/>
<path d="M233.172 90.192C234.041 90.192 234.745 89.4869 234.745 88.617C234.745 87.7471 234.041 87.042 233.172 87.042C232.302 87.042 231.598 87.7471 231.598 88.617C231.598 89.4869 232.302 90.192 233.172 90.192Z" fill="white"/>
<path d="M249.56 90.192C250.43 90.192 251.134 89.4869 251.134 88.617C251.134 87.7471 250.43 87.042 249.56 87.042C248.691 87.042 247.986 87.7471 247.986 88.617C247.986 89.4869 248.691 90.192 249.56 90.192Z" fill="white"/>
<path d="M265.948 90.192C266.818 90.192 267.522 89.4869 267.522 88.617C267.522 87.7471 266.818 87.042 265.948 87.042C265.079 87.042 264.375 87.7471 264.375 88.617C264.375 89.4869 265.079 90.192 265.948 90.192Z" fill="white"/>
<path d="M282.337 90.192C283.206 90.192 283.911 89.4869 283.911 88.617C283.911 87.7471 283.206 87.042 282.337 87.042C281.468 87.042 280.763 87.7471 280.763 88.617C280.763 89.4869 281.468 90.192 282.337 90.192Z" fill="white"/>
<path d="M298.725 90.192C299.595 90.192 300.299 89.4869 300.299 88.617C300.299 87.7471 299.595 87.042 298.725 87.042C297.856 87.042 297.151 87.7471 297.151 88.617C297.151 89.4869 297.856 90.192 298.725 90.192Z" fill="white"/>
<path d="M315.114 90.192C315.983 90.192 316.688 89.4869 316.688 88.617C316.688 87.7471 315.983 87.042 315.114 87.042C314.245 87.042 313.54 87.7471 313.54 88.617C313.54 89.4869 314.245 90.192 315.114 90.192Z" fill="white"/>
<path d="M331.503 90.192C332.372 90.192 333.077 89.4869 333.077 88.617C333.077 87.7471 332.372 87.042 331.503 87.042C330.633 87.042 329.929 87.7471 329.929 88.617C329.929 89.4869 330.633 90.192 331.503 90.192Z" fill="white"/>
<path d="M347.891 90.192C348.761 90.192 349.465 89.4869 349.465 88.617C349.465 87.7471 348.761 87.042 347.891 87.042C347.022 87.042 346.317 87.7471 346.317 88.617C346.317 89.4869 347.022 90.192 347.891 90.192Z" fill="white"/>
<path d="M265.948 70.3825C266.818 70.3825 267.522 69.6773 267.522 68.8074C267.522 67.9376 266.818 67.2324 265.948 67.2324C265.079 67.2324 264.375 67.9376 264.375 68.8074C264.375 69.6773 265.079 70.3825 265.948 70.3825Z" fill="white"/>
<path d="M282.337 70.3825C283.206 70.3825 283.911 69.6773 283.911 68.8074C283.911 67.9376 283.206 67.2324 282.337 67.2324C281.468 67.2324 280.763 67.9376 280.763 68.8074C280.763 69.6773 281.468 70.3825 282.337 70.3825Z" fill="white"/>
<path d="M298.726 70.3825C299.595 70.3825 300.3 69.6773 300.3 68.8074C300.3 67.9376 299.595 67.2324 298.726 67.2324C297.857 67.2324 297.152 67.9376 297.152 68.8074C297.152 69.6773 297.857 70.3825 298.726 70.3825Z" fill="white"/>
<path d="M316.607 69.3274C316.396 69.9444 315.812 70.3828 315.114 70.3828C314.254 70.3828 313.54 69.6846 313.54 68.8078C313.54 68.6941 313.556 68.5805 313.572 68.4668L316.607 69.3274Z" fill="white"/>
<path d="M225.221 80.2877C226.09 80.2877 226.795 79.5826 226.795 78.7127C226.795 77.8429 226.09 77.1377 225.221 77.1377C224.352 77.1377 223.647 77.8429 223.647 78.7127C223.647 79.5826 224.352 80.2877 225.221 80.2877Z" fill="white"/>
<path d="M241.609 80.2877C242.478 80.2877 243.183 79.5826 243.183 78.7127C243.183 77.8429 242.478 77.1377 241.609 77.1377C240.74 77.1377 240.035 77.8429 240.035 78.7127C240.035 79.5826 240.74 80.2877 241.609 80.2877Z" fill="white"/>
<path d="M256.44 78.193C257.309 78.193 258.014 77.4878 258.014 76.618C258.014 75.7481 257.309 75.043 256.44 75.043C255.571 75.043 254.866 75.7481 254.866 76.618C254.866 77.4878 255.571 78.193 256.44 78.193Z" fill="white"/>
<path d="M274.386 80.2877C275.256 80.2877 275.96 79.5826 275.96 78.7127C275.96 77.8429 275.256 77.1377 274.386 77.1377C273.517 77.1377 272.812 77.8429 272.812 78.7127C272.812 79.5826 273.517 80.2877 274.386 80.2877Z" fill="white"/>
<path d="M290.775 80.2877C291.644 80.2877 292.349 79.5826 292.349 78.7127C292.349 77.8429 291.644 77.1377 290.775 77.1377C289.906 77.1377 289.201 77.8429 289.201 78.7127C289.201 79.5826 289.906 80.2877 290.775 80.2877Z" fill="white"/>
<path d="M307.163 80.2877C308.033 80.2877 308.737 79.5826 308.737 78.7127C308.737 77.8429 308.033 77.1377 307.163 77.1377C306.294 77.1377 305.589 77.8429 305.589 78.7127C305.589 79.5826 306.294 80.2877 307.163 80.2877Z" fill="white"/>
<path d="M323.552 80.2877C324.421 80.2877 325.126 79.5826 325.126 78.7127C325.126 77.8429 324.421 77.1377 323.552 77.1377C322.683 77.1377 321.978 77.8429 321.978 78.7127C321.978 79.5826 322.683 80.2877 323.552 80.2877Z" fill="white"/>
<path d="M339.941 80.2877C340.81 80.2877 341.515 79.5826 341.515 78.7127C341.515 77.8429 340.81 77.1377 339.941 77.1377C339.071 77.1377 338.367 77.8429 338.367 78.7127C338.367 79.5826 339.071 80.2877 339.941 80.2877Z" fill="white"/>
<path d="M325.904 161.019C325.645 161.019 325.434 160.824 325.417 160.564L321.848 111.966C321.831 111.69 322.026 111.462 322.302 111.446C322.578 111.43 322.805 111.625 322.821 111.901L326.391 160.499C326.407 160.775 326.212 161.003 325.937 161.019C325.92 161.019 325.92 161.019 325.904 161.019Z" fill="white"/>
<path d="M241.446 161.019C241.171 161.019 240.96 160.808 240.96 160.532V146.081L237.828 144.246C231.922 140.787 229.001 133.968 230.526 127.294L235.702 104.692C235.767 104.432 236.027 104.269 236.286 104.318C236.546 104.383 236.708 104.643 236.66 104.903L231.484 127.505C230.039 133.756 232.798 140.138 238.331 143.385L241.949 145.512V160.516C241.933 160.808 241.722 161.019 241.446 161.019Z" fill="white"/>
<path d="M275.213 96.7031L264.114 64.5532C264.033 64.2934 264.163 64.0173 264.423 63.9361C264.682 63.855 264.958 63.9849 265.039 64.2447L275.554 94.7383L300.072 64.0985C300.234 63.8874 300.542 63.855 300.753 64.0173C300.964 64.1797 300.997 64.4882 300.834 64.6993L275.213 96.7031Z" fill="white"/>
<path d="M304.08 86.0187L293.062 73.2399C292.884 73.0288 292.916 72.7365 293.111 72.5579C293.322 72.3793 293.614 72.4118 293.792 72.6067L303.999 84.4437L314.627 69.2942C314.789 69.0669 315.081 69.0182 315.308 69.1806C315.535 69.3429 315.584 69.6352 315.422 69.8625L304.08 86.0187Z" fill="white"/>
<path d="M255.077 84.2005L247.58 70.0091C247.45 69.7655 247.548 69.4732 247.775 69.3433C248.018 69.2134 248.31 69.3109 248.44 69.5382L255.385 82.658L267.295 72.5421C267.506 72.3635 267.814 72.396 267.976 72.5908C268.155 72.8019 268.123 73.1104 267.928 73.2728L255.077 84.2005Z" fill="white"/>
<path d="M233.787 115.668C233.56 115.668 233.365 115.506 233.317 115.278L231.094 104.903C231.045 104.643 231.207 104.383 231.467 104.318C231.726 104.253 231.986 104.432 232.051 104.692L234.274 115.067C234.323 115.327 234.16 115.587 233.901 115.652C233.852 115.668 233.82 115.668 233.787 115.668Z" fill="white"/>
<path d="M277.112 202.652H232.635L212.969 171.915H257.445L277.112 202.652Z" fill="#FFCF2D"/>
<path d="M250.289 195.979H205.796L186.146 165.258H230.623L250.289 195.979Z" fill="white"/>
<path d="M250.289 196.465H205.797C205.635 196.465 205.472 196.384 205.391 196.238L185.741 165.517C185.644 165.371 185.644 165.176 185.725 165.014C185.806 164.851 185.968 164.754 186.147 164.754H230.623C230.785 164.754 230.947 164.835 231.029 164.981L250.695 195.702C250.792 195.848 250.792 196.043 250.711 196.206C250.63 196.368 250.468 196.465 250.289 196.465ZM206.056 195.491H249.397L230.363 165.744H187.039L206.056 195.491Z" fill="#3FB1B5"/>
<path d="M222.088 171.557C221.602 171.557 221.017 171.427 220.401 171.167L217.886 170.063C216.815 169.592 216.068 169.69 215.906 169.917L215.111 170.924C214.608 171.541 213.472 171.573 212.174 171.005L209.984 170.047C208.913 169.576 208.166 169.673 208.004 169.901L207.339 170.761C206.836 171.378 205.7 171.411 204.385 170.859L202.73 170.144C201.659 169.673 200.913 169.771 200.751 169.982L200.15 170.745C199.647 171.362 198.512 171.395 197.213 170.843L195.558 170.128C195.347 170.047 195.25 169.803 195.347 169.592C195.429 169.381 195.672 169.284 195.883 169.381L197.538 170.096C198.512 170.518 199.323 170.502 199.534 170.242L200.134 169.479C200.621 168.845 201.789 168.813 203.087 169.397L204.742 170.112C205.716 170.534 206.527 170.518 206.738 170.258L207.404 169.414C207.89 168.78 209.059 168.748 210.357 169.316L212.547 170.274C213.521 170.696 214.332 170.68 214.543 170.42L215.338 169.414C215.825 168.78 216.993 168.748 218.291 169.333L220.806 170.437C221.78 170.859 222.591 170.843 222.802 170.583L223.662 169.495C223.792 169.316 224.052 169.284 224.23 169.43C224.409 169.56 224.441 169.82 224.295 169.998L223.435 171.102C223.062 171.395 222.624 171.557 222.088 171.557Z" fill="#3FB1B5"/>
<path d="M227.167 178.052C226.68 178.052 226.096 177.922 225.479 177.662L222.964 176.558C221.893 176.087 221.147 176.185 220.984 176.412L220.189 177.419C219.686 178.036 218.55 178.068 217.252 177.5L215.062 176.542C213.991 176.071 213.244 176.169 213.082 176.396L212.417 177.256C211.914 177.873 210.778 177.906 209.464 177.354L207.809 176.639C206.738 176.169 205.991 176.266 205.829 176.477L205.229 177.24C204.726 177.857 203.59 177.89 202.292 177.338C202.081 177.256 201.984 177.013 202.081 176.802C202.162 176.591 202.405 176.493 202.616 176.591C203.59 177.013 204.401 176.997 204.612 176.737L205.212 175.974C205.699 175.341 206.868 175.308 208.166 175.893L209.821 176.607C210.794 177.029 211.606 177.013 211.817 176.753L212.482 175.909C212.969 175.276 214.137 175.243 215.435 175.811L217.626 176.769C218.599 177.192 219.41 177.175 219.621 176.916L220.416 175.909C220.903 175.276 222.072 175.243 223.37 175.828L225.885 176.932C226.858 177.354 227.67 177.338 227.881 177.078L228.741 175.99C228.87 175.811 229.13 175.779 229.308 175.925C229.487 176.055 229.519 176.315 229.373 176.493L228.513 177.597C228.14 177.89 227.702 178.052 227.167 178.052Z" fill="#3FB1B5"/>
<path d="M232.246 184.531C231.759 184.531 231.175 184.401 230.558 184.141L228.043 183.037C226.972 182.566 226.226 182.663 226.064 182.891L225.269 183.897C224.766 184.514 223.63 184.547 222.332 183.979L220.141 183.021C219.07 182.55 218.324 182.647 218.162 182.874L217.496 183.735C216.993 184.352 215.857 184.385 214.543 183.832L212.888 183.118C211.817 182.647 211.071 182.745 210.909 182.956L210.308 183.719C209.805 184.336 208.669 184.368 207.371 183.816L205.716 183.102C205.505 183.021 205.408 182.777 205.505 182.566C205.586 182.355 205.83 182.257 206.041 182.355L207.696 183.069C208.669 183.491 209.481 183.475 209.692 183.215L210.292 182.452C210.779 181.819 211.947 181.787 213.245 182.371L214.9 183.086C215.874 183.508 216.685 183.491 216.896 183.232L217.561 182.387C218.048 181.754 219.216 181.722 220.514 182.29L222.705 183.248C223.679 183.67 224.49 183.654 224.701 183.394L225.496 182.387C225.983 181.754 227.151 181.722 228.449 182.306L230.964 183.41C231.938 183.832 232.749 183.816 232.96 183.556L233.82 182.452C233.95 182.274 234.209 182.241 234.388 182.387C234.566 182.517 234.599 182.777 234.453 182.956L233.593 184.06C233.22 184.368 232.781 184.531 232.246 184.531Z" fill="#3FB1B5"/>
<path d="M237.325 191.026C236.838 191.026 236.254 190.896 235.637 190.636L233.122 189.532C232.051 189.061 231.305 189.158 231.142 189.386L230.347 190.393C229.844 191.01 228.709 191.042 227.41 190.474L225.22 189.516C224.149 189.045 223.403 189.142 223.24 189.37L222.575 190.23C222.072 190.847 220.936 190.88 219.622 190.328L217.967 189.613C216.896 189.142 216.149 189.24 215.987 189.451L215.387 190.214C214.884 190.831 213.748 190.863 212.45 190.311L210.795 189.597C210.584 189.516 210.486 189.272 210.584 189.061C210.665 188.85 210.908 188.753 211.119 188.85L212.774 189.564C213.797 190.003 214.559 189.97 214.77 189.711L215.371 188.947C215.857 188.314 217.026 188.282 218.324 188.866L219.979 189.581C220.952 190.003 221.764 189.987 221.975 189.727L222.64 188.882C223.127 188.249 224.295 188.217 225.593 188.785L227.784 189.743C228.757 190.165 229.569 190.149 229.779 189.889L230.575 188.882C231.061 188.249 232.23 188.217 233.528 188.801L236.043 189.905C237.049 190.344 237.828 190.311 238.039 190.052L238.899 188.964C239.028 188.785 239.288 188.753 239.467 188.899C239.645 189.029 239.678 189.288 239.531 189.467L238.672 190.571C238.298 190.863 237.86 191.026 237.325 191.026Z" fill="#3FB1B5"/>
<path d="M259.019 178.312H344.336C355.63 178.312 364.473 168.586 363.402 157.349C362.331 146.064 351.768 138.157 340.653 140.333L242.468 154.021C238.752 154.54 235.491 156.797 233.722 160.11L225.025 176.282C224.716 176.688 224.506 177.159 224.376 177.646L221.114 190.262H222.948C225.787 190.262 228.416 188.687 229.747 186.171L231.385 183.102L250.257 185.148C253.794 185.586 257.153 183.167 258.418 179.854L259.019 178.312Z" fill="#A0505A"/>
<path d="M231.564 183.035C231.499 183.035 231.418 183.019 231.353 182.986C231.11 182.873 231.012 182.581 231.126 182.337L236.821 170.532C236.935 170.289 237.227 170.191 237.47 170.305C237.714 170.419 237.811 170.711 237.697 170.955L232.002 182.759C231.921 182.938 231.742 183.035 231.564 183.035Z" fill="#73325A"/>
<path d="M239.157 183.783C239.092 183.783 239.011 183.767 238.946 183.734C238.703 183.621 238.606 183.329 238.719 183.085L244.415 171.28C244.528 171.037 244.82 170.939 245.064 171.053C245.307 171.167 245.404 171.459 245.291 171.703L239.595 183.507C239.514 183.686 239.336 183.783 239.157 183.783Z" fill="#73325A"/>
<path d="M246.589 184.709C246.524 184.709 246.443 184.693 246.378 184.66C246.135 184.547 246.038 184.254 246.151 184.011L251.83 172.206C251.944 171.963 252.236 171.865 252.479 171.979C252.723 172.093 252.82 172.385 252.707 172.628L247.027 184.433C246.946 184.612 246.768 184.709 246.589 184.709Z" fill="#73325A"/>
<path d="M259.019 178.799C258.97 178.799 258.922 178.782 258.857 178.766C258.597 178.685 258.467 178.409 258.548 178.149L261.145 170.404C261.226 170.144 261.502 170.014 261.761 170.095C262.021 170.177 262.151 170.453 262.069 170.712L259.473 178.458C259.408 178.669 259.23 178.799 259.019 178.799Z" fill="#73325A"/>
<path d="M280.016 9.02163C280.016 9.02163 291.18 2.00711 302.084 10.8564C312.371 19.2187 307.568 35.6995 303.804 32.9392C300.575 30.5848 325.742 22.5473 333.628 41.204C342.568 62.345 322.431 74.3444 299.471 63.8875H266.159L230.737 74.9452C230.737 74.9452 212.742 65.7873 222.526 47.9263C231.564 31.4454 253.162 37.3233 250.728 41.3989C247.304 47.1144 232.668 29.026 242.955 11.9444C253.827 -6.11155 278.523 0.6107 280.016 9.02163Z" fill="white"/>
<path d="M230.688 75.4648L230.51 75.3673C230.185 75.205 222.348 71.1294 219.849 63.0594C218.372 58.2694 219.119 53.0897 222.088 47.6665C227.589 37.648 237.146 36.4789 240.992 36.4465C241.251 36.4465 241.511 36.4465 241.77 36.4465C240.018 33.1503 238.98 29.2696 238.866 25.4538C238.704 20.5988 239.937 15.955 242.533 11.6683C245.454 6.81334 249.527 3.38727 254.605 1.51997C258.808 -0.0225723 263.676 -0.412264 268.284 0.448314C274.418 1.58493 279.237 4.73496 280.34 8.25846C281.379 7.70639 283.748 6.60226 286.896 6.11514C290.79 5.51436 296.631 5.77415 302.408 10.4505C305.994 13.3732 308.233 17.6924 308.687 22.6123C308.931 25.2265 308.655 27.5809 308.12 29.4157C309.564 29.0585 311.186 28.8149 312.858 28.7175C317.563 28.4577 329.068 29.1072 334.082 40.9767C335.964 45.4257 336.645 49.6149 336.11 53.4307C335.623 56.9867 334.033 60.153 331.518 62.6048C328.208 65.836 323.502 67.7358 317.888 68.1092C312.079 68.4989 305.686 67.2 299.374 64.3422H266.24L230.688 75.4648ZM241.219 37.4369C241.154 37.4369 241.089 37.4369 241.008 37.4369C237.325 37.4694 228.189 38.5898 222.948 48.1536C220.108 53.317 219.395 58.237 220.79 62.7834C222.948 69.8142 229.633 73.7761 230.785 74.4256L266.077 63.4004H299.585L299.682 63.4491C305.88 66.2744 312.16 67.5572 317.823 67.1837C323.194 66.8265 327.688 65.0079 330.836 61.9553C333.222 59.6334 334.682 56.7269 335.152 53.3495C335.655 49.7124 334.99 45.7017 333.189 41.4151C330.934 36.0892 327.088 32.517 321.733 30.7959C316.119 28.9935 310.797 29.8541 308.769 30.325C308.412 30.4062 308.071 30.4874 307.763 30.5848C307.454 31.3966 307.081 32.0624 306.708 32.5657C305.75 33.816 304.566 34.1245 303.544 33.3776C303.138 33.0853 302.976 32.6469 303.106 32.2085C303.365 31.3317 304.891 30.4387 307.016 29.7892C307.617 28.0031 307.99 25.535 307.73 22.7584C307.292 18.0983 305.183 14.0065 301.808 11.2624C297.394 7.69016 292.429 6.29375 287.074 7.12185C283.066 7.73887 280.34 9.44379 280.308 9.46003L279.691 9.84973L279.561 9.13528C278.961 5.75792 274.255 2.59164 268.138 1.45503C263.692 0.626927 259.019 1.00038 254.979 2.49421C250.111 4.28032 246.216 7.56026 243.409 12.2366C240.927 16.3771 239.726 20.8262 239.888 25.5025C240.002 29.2696 241.057 33.134 242.841 36.349C242.89 36.4302 242.923 36.5114 242.971 36.5764C246.866 36.8686 250.224 38.1676 251.182 39.8238C251.539 40.4408 251.539 41.1066 251.198 41.6911C250.679 42.5679 249.9 43.0226 248.926 43.0063C246.914 42.9739 244.399 40.8468 242.403 37.5181C241.981 37.4532 241.608 37.4369 241.219 37.4369ZM243.555 37.5668C245.275 40.1973 247.369 41.9672 248.894 41.9834C249.494 41.9834 249.965 41.7236 250.306 41.139C250.468 40.863 250.468 40.5707 250.289 40.2622C249.64 39.1419 247.028 37.9565 243.555 37.5668ZM303.998 32.4683C303.998 32.4683 304.014 32.5008 304.079 32.5495C304.647 32.9717 305.264 32.7606 305.897 31.9325C306.107 31.6727 306.302 31.3317 306.497 30.942C304.761 31.5753 303.998 32.241 303.998 32.4683Z" fill="#FFCF2D"/>
<path d="M287.204 33.0689C287.139 33.0689 287.058 33.0527 286.993 33.0202C286.879 32.9715 284.364 31.7537 282.027 29.2856C279.594 26.7039 278.328 23.7325 278.247 20.5662C277.565 21.784 276.543 23.3266 275.131 24.8853C272.324 27.9542 267.343 31.6076 259.522 31.6076C259.473 31.6076 259.408 31.6076 259.359 31.6076C256.552 31.5913 254.573 30.4223 253.761 28.3276C252.804 25.8109 253.81 22.3198 256.114 20.2252C256.309 20.0466 256.617 20.0628 256.796 20.2577C256.974 20.4525 256.958 20.7611 256.763 20.9397C254.735 22.7907 253.842 25.8109 254.67 27.9704C255.335 29.6916 256.958 30.6171 259.359 30.6333C259.408 30.6333 259.473 30.6333 259.522 30.6333C265.509 30.6333 270.523 28.4738 274.417 24.2358C277.338 21.0371 278.49 17.8059 278.506 17.7734C278.587 17.5298 278.847 17.3999 279.09 17.4649C279.334 17.5298 279.496 17.7734 279.447 18.0332C278.701 21.9464 279.804 25.5024 282.725 28.6199C284.932 30.9743 287.398 32.1597 287.415 32.1759C287.658 32.2896 287.755 32.5818 287.642 32.8254C287.561 32.9715 287.382 33.0689 287.204 33.0689Z" fill="#FFCF2D"/>
<path d="M299.747 64.5694L291.228 41.9346H267.019L265.12 64.5694L275.554 94.576L299.747 64.5694Z" fill="#A0505A"/>
<path d="M280.194 59.7794L267.424 71.0643L265.12 64.5694L267.019 41.9346H288.47V42.3567C288.454 49.1277 285.419 55.5252 280.194 59.7794Z" fill="#73325A"/>
<path d="M296.761 37.5342V38.4435C296.761 40.9115 294.749 42.925 292.283 42.925H287.415C286.506 49.8258 280.6 55.1679 273.46 55.1679C269.566 55.1679 266.045 53.5929 263.497 51.0436C260.95 48.4944 259.376 44.9709 259.376 41.0739V31.5913C274.353 31.705 278.653 19.3809 278.653 19.3809C277.663 28.6361 286.101 32.6143 287.382 33.1501V33.0527H292.283C294.749 33.0527 296.761 35.0661 296.761 37.5342Z" fill="#A0505A"/>
<path d="M281.751 31.9488C281.622 31.9488 281.492 31.9001 281.394 31.8027C279.22 29.4807 275.926 29.3833 275.894 29.3833C275.618 29.3833 275.407 29.156 275.423 28.88C275.423 28.6039 275.65 28.3928 275.926 28.4091C276.072 28.4091 279.642 28.5065 282.108 31.1207C282.287 31.3156 282.287 31.6241 282.092 31.8027C281.995 31.9001 281.865 31.9488 281.751 31.9488Z" fill="#73325A"/>
<path d="M275.18 40.1486C275.727 40.1486 276.17 39.3708 276.17 38.4112C276.17 37.4517 275.727 36.6738 275.18 36.6738C274.634 36.6738 274.19 37.4517 274.19 38.4112C274.19 39.3708 274.634 40.1486 275.18 40.1486Z" fill="#73325A"/>
<path d="M261.664 40.1486C262.21 40.1486 262.653 39.3708 262.653 38.4112C262.653 37.4517 262.21 36.6738 261.664 36.6738C261.117 36.6738 260.674 37.4517 260.674 38.4112C260.674 39.3708 261.117 40.1486 261.664 40.1486Z" fill="#73325A"/>
<path d="M269.404 47.6017C269.355 47.6017 269.306 47.6017 269.274 47.6017C268.219 47.5692 267.473 47.2282 267.44 47.212C267.197 47.0983 267.1 46.806 267.213 46.5625C267.327 46.3189 267.619 46.2215 267.862 46.3352C267.96 46.3839 270.264 47.4231 272.389 45.3609C272.584 45.1661 272.892 45.1823 273.071 45.3772C273.266 45.572 273.249 45.8805 273.055 46.0591C271.757 47.3256 270.377 47.6017 269.404 47.6017Z" fill="#73325A"/>
<path d="M288.665 39.7916C288.389 39.7916 288.178 39.5805 288.178 39.3045C288.178 36.9176 290.109 34.9854 292.494 34.9854C292.77 34.9854 292.981 35.1964 292.981 35.4725C292.981 35.7485 292.77 35.9596 292.494 35.9596C290.644 35.9596 289.151 37.4534 289.151 39.3045C289.151 39.5805 288.94 39.7916 288.665 39.7916Z" fill="#73325A"/>
<path d="M255.076 32.1104C254.962 32.1104 254.832 32.0617 254.735 31.9805C254.54 31.8019 254.524 31.4934 254.719 31.2985C257.185 28.6843 260.755 28.5869 260.901 28.5869C261.177 28.5869 261.388 28.798 261.404 29.0578C261.404 29.3338 261.193 29.5449 260.933 29.5612C260.901 29.5612 257.607 29.6586 255.433 31.9805C255.335 32.0617 255.206 32.1104 255.076 32.1104Z" fill="#73325A"/>
<path d="M261.129 45.1982C257.786 45.1982 255.076 42.0482 255.076 38.1675C255.076 34.2868 257.786 31.1367 261.129 31.1367C264.471 31.1367 267.181 34.2868 267.181 38.1675C267.181 42.0482 264.471 45.1982 261.129 45.1982ZM261.129 32.111C258.321 32.111 256.05 34.8226 256.05 38.1675C256.05 41.5124 258.321 44.224 261.129 44.224C263.936 44.224 266.207 41.5124 266.207 38.1675C266.207 34.8226 263.936 32.111 261.129 32.111Z" fill="#FE5244"/>
<path d="M276.073 45.1982C272.73 45.1982 270.021 42.0482 270.021 38.1675C270.021 34.2868 272.73 31.1367 276.073 31.1367C279.416 31.1367 282.125 34.2868 282.125 38.1675C282.125 42.0482 279.416 45.1982 276.073 45.1982ZM276.073 32.111C273.266 32.111 270.994 34.8226 270.994 38.1675C270.994 41.5124 273.266 44.224 276.073 44.224C278.88 44.224 281.152 41.5124 281.152 38.1675C281.152 34.8226 278.88 32.111 276.073 32.111Z" fill="#FE5244"/>
<path d="M270.248 38.5566C270.183 38.5079 268.512 37.355 267.003 38.5404L266.402 37.7772C268.074 36.4782 270.021 37.1927 270.816 37.761L270.248 38.5566Z" fill="#FE5244"/>
<path d="M170.703 181.591H77.426C74.9209 181.591 72.6814 180.072 71.7515 177.757L46.226 114.667C45.0114 111.649 47.2318 108.347 50.4771 108.347H143.754C146.259 108.347 148.499 109.865 149.429 112.181L174.954 175.27C176.188 178.288 173.967 181.591 170.703 181.591Z" fill="white"/>
<path fill-rule="evenodd" clip-rule="evenodd" d="M46.7529 114.454C46.753 114.454 46.7531 114.454 46.7531 114.454L72.2788 177.544C73.1221 179.644 75.1525 181.021 77.4249 181.021H170.702C173.563 181.021 175.506 178.128 174.426 175.486L148.9 112.394L148.899 112.393C148.056 110.293 146.026 108.916 143.753 108.916H50.4761C47.637 108.916 45.6884 111.808 46.7529 114.454ZM45.6968 114.88C44.3326 111.49 46.8248 107.777 50.4761 107.777H143.753C146.491 107.777 148.939 109.437 149.956 111.968L175.48 175.055C176.867 178.448 174.37 182.16 170.702 182.16H77.4249C74.6871 182.16 72.2387 180.5 71.2221 177.969L45.6968 114.88Z" fill="#FFCF2D"/>
<path d="M166.376 182.046H77.3876C75.0153 182.046 72.8708 180.603 71.9788 178.401L47.6299 118.216C46.4723 115.331 48.5789 112.199 51.6913 112.199H140.679C143.052 112.199 145.196 113.642 146.088 115.843L170.437 176.029C171.595 178.914 169.469 182.046 166.376 182.046Z" fill="#FFCF2D"/>
<path d="M111.738 154.676C109.119 154.676 106.652 153.652 104.792 151.792C103.274 150.273 102.438 148.261 102.438 146.136C102.438 143.991 103.274 141.979 104.792 140.479C106.025 139.246 107.676 138.562 109.422 138.562C111.168 138.562 112.819 139.246 114.053 140.479C116.16 142.586 116.16 146.003 114.053 148.109C112.307 149.856 109.479 149.856 107.733 148.109C107.43 147.806 107.43 147.331 107.733 147.028C108.037 146.724 108.511 146.724 108.815 147.028C109.973 148.185 111.833 148.185 112.99 147.028C114.509 145.509 114.509 143.061 112.99 141.542C112.041 140.593 110.77 140.062 109.422 140.062C108.075 140.062 106.803 140.593 105.855 141.542C104.621 142.776 103.957 144.389 103.957 146.136C103.957 147.863 104.64 149.495 105.855 150.729C107.43 152.304 109.498 153.158 111.719 153.158C113.939 153.158 116.027 152.304 117.583 150.729C117.887 150.425 118.361 150.425 118.665 150.729C118.968 151.032 118.968 151.507 118.665 151.811C116.824 153.652 114.357 154.676 111.738 154.676Z" fill="white"/>
<path d="M204.085 188.272H77.5393C76.078 188.272 74.9014 187.095 74.9014 185.634V184.362C74.9014 182.9 76.078 181.724 77.5393 181.724H204.085C205.546 181.724 206.723 182.9 206.723 184.362V185.634C206.704 187.095 205.527 188.272 204.085 188.272Z" fill="white"/>
<path fill-rule="evenodd" clip-rule="evenodd" d="M77.5378 182.292C76.391 182.292 75.4693 183.214 75.4693 184.361V185.633C75.4693 186.78 76.391 187.701 77.5378 187.701H204.084C205.206 187.701 206.135 186.784 206.152 185.629V184.361C206.152 183.214 205.23 182.292 204.084 182.292H77.5378ZM74.3306 184.361C74.3306 182.585 75.7621 181.153 77.5378 181.153H204.084C205.859 181.153 207.291 182.585 207.291 184.361V185.636L207.291 185.64C207.268 187.406 205.844 188.84 204.084 188.84H77.5378C75.7621 188.84 74.3306 187.409 74.3306 185.633V184.361Z" fill="#FFCF2D"/>
<path d="M59.0374 165.885L55.2424 192.771C55.0184 194.367 53.6612 195.54 52.0535 195.54H44.6348C43.0272 195.54 41.6699 194.354 41.4459 192.771L37.6509 165.885C37.6509 168.298 42.4342 170.249 48.3376 170.249C54.2541 170.249 59.0374 168.285 59.0374 165.885Z" fill="white"/>
<path d="M52.0558 195.938H44.637C42.8449 195.938 41.3032 194.606 41.0528 192.826L37.3369 166.467C37.2842 166.282 37.2578 166.084 37.2578 165.887C37.2578 165.676 37.4159 165.504 37.6268 165.491C37.8376 165.478 38.0221 165.623 38.0484 165.834L38.1143 166.295C38.6546 168.089 42.6209 169.856 48.3398 169.856C54.0719 169.856 58.0514 168.089 58.5784 166.295L58.6443 165.834C58.6707 165.623 58.8552 165.478 59.066 165.491C59.2768 165.504 59.435 165.676 59.435 165.887C59.435 166.084 59.4086 166.282 59.3559 166.467L55.6399 192.826C55.3896 194.633 53.8742 195.938 52.0558 195.938ZM38.3515 167.983L41.8435 192.721C42.0411 194.105 43.2402 195.147 44.637 195.147H52.0558C53.4789 195.147 54.6517 194.131 54.8493 192.721L58.3413 167.983C56.5623 169.579 52.7937 170.647 48.3398 170.647C43.8859 170.647 40.1173 169.566 38.3515 167.983Z" fill="#66B0F0"/>
<path d="M56.6546 168.761L53.2681 192.562C53.0177 194.342 51.476 195.674 49.6839 195.674H47.1407C45.3486 195.674 43.8068 194.342 43.5565 192.562L40.1699 168.827C40.4335 168.945 40.7234 169.051 41.0133 169.156L44.3339 192.456C44.5184 193.735 45.5462 194.724 46.8112 194.869C46.9166 194.883 47.0221 194.896 47.1407 194.896H49.6839C49.842 194.896 50.0001 194.883 50.1451 194.856C51.3442 194.658 52.3061 193.696 52.4774 192.456L55.7981 169.104C56.1143 168.998 56.3911 168.879 56.6546 168.761Z" fill="#66B0F0"/>
<path d="M53.1633 169.816L50.1458 194.857L50.1062 195.2C50.0799 195.398 49.9086 195.543 49.7109 195.543C49.6977 195.543 49.6845 195.543 49.6582 195.543C49.4342 195.516 49.2892 195.319 49.3156 195.108L49.3419 194.897L52.3463 169.961C52.6362 169.909 52.8998 169.856 53.1633 169.816Z" fill="#66B0F0"/>
<path d="M47.2996 195.542C47.2864 195.542 47.2732 195.542 47.2469 195.542C47.0492 195.542 46.8779 195.397 46.8516 195.199L46.812 194.869L43.7944 169.868C44.058 169.921 44.3347 169.96 44.6114 170L47.6158 194.896L47.6422 195.107C47.6686 195.317 47.5104 195.515 47.2996 195.542Z" fill="#66B0F0"/>
<path d="M59.4223 165.887C59.4223 166.995 58.3813 167.997 56.6683 168.775C56.4047 168.894 56.1148 169.012 55.8249 169.118C55.0343 169.395 54.1514 169.645 53.1763 169.83C52.9128 169.883 52.636 169.922 52.3593 169.975C51.2129 170.146 49.9611 170.252 48.6565 170.265C48.5511 170.265 48.4589 170.265 48.3535 170.265C48.2085 170.265 48.0636 170.265 47.9186 170.265C46.759 170.252 45.6522 170.159 44.6243 170.014C44.3476 169.975 44.0841 169.935 43.8074 169.883C42.7927 169.698 41.8571 169.461 41.027 169.17C40.7371 169.065 40.4472 168.959 40.1836 168.841C38.3784 168.063 37.2847 167.034 37.2847 165.9C37.2847 165.808 37.2978 165.716 37.311 165.623C37.68 163.342 42.4765 161.549 48.3535 161.549C54.2305 161.549 59.0401 163.355 59.3959 165.623C59.4091 165.702 59.4223 165.795 59.4223 165.887Z" fill="#66B0F0"/>
<path d="M48.814 194.805C48.814 194.831 48.814 194.871 48.8008 194.897C48.7613 195.068 48.6032 195.2 48.4187 195.2C48.2342 195.2 48.0761 195.068 48.0365 194.897C48.0234 194.871 48.0234 194.844 48.0234 194.818L47.8916 170.397C47.8916 170.344 47.9048 170.305 47.9179 170.252C48.0629 170.252 48.2079 170.252 48.3528 170.252C48.4582 170.252 48.5636 170.252 48.6559 170.252C48.6691 170.292 48.6822 170.331 48.6822 170.384L48.814 194.805Z" fill="#66B0F0"/>
<path d="M48.4192 169.447C46.0737 169.381 43.9258 169.025 42.1864 168.458L35.9668 142.362H41.9624L48.4192 169.447Z" fill="#FFCF2D"/>
<path d="M42.7399 145.658H40.2889C40.1044 145.658 39.9595 145.513 39.9595 145.329C39.9595 145.144 40.1044 144.999 40.2889 144.999H42.5818L42.7399 145.658Z" fill="white"/>
<path d="M43.3986 148.428H40.9476C40.7631 148.428 40.6182 148.283 40.6182 148.098C40.6182 147.914 40.7631 147.769 40.9476 147.769H43.2404L43.3986 148.428Z" fill="white"/>
<path d="M44.0578 151.196H41.6068C41.4223 151.196 41.2773 151.051 41.2773 150.867C41.2773 150.682 41.4223 150.537 41.6068 150.537H43.8996L44.0578 151.196Z" fill="white"/>
<path d="M44.7291 153.966H42.2782C42.0937 153.966 41.9487 153.821 41.9487 153.636C41.9487 153.452 42.0937 153.307 42.2782 153.307H44.571L44.7291 153.966Z" fill="white"/>
<path d="M45.3883 156.734H42.9373C42.7529 156.734 42.6079 156.589 42.6079 156.405C42.6079 156.22 42.7529 156.075 42.9373 156.075H45.2302L45.3883 156.734Z" fill="white"/>
<path d="M46.0476 159.504H43.7152C43.5307 159.504 43.3857 159.359 43.3857 159.174C43.3857 158.99 43.5307 158.845 43.7152 158.845H45.8894L46.0476 159.504Z" fill="white"/>
<path d="M46.7057 162.273H44.2415C44.0571 162.273 43.9121 162.128 43.9121 161.943C43.9121 161.758 44.0571 161.613 44.2415 161.613H46.5476L46.7057 162.273Z" fill="white"/>
<path d="M47.3659 165.042H44.9017C44.7172 165.042 44.5723 164.897 44.5723 164.712C44.5723 164.528 44.7172 164.383 44.9017 164.383H47.2077L47.3659 165.042Z" fill="white"/>
<path d="M48.0235 167.797C47.9971 167.811 47.9707 167.811 47.9312 167.811H45.4276C45.2431 167.811 45.0981 167.666 45.0981 167.481C45.0981 167.296 45.2431 167.151 45.4276 167.151H47.8653L48.0235 167.797Z" fill="white"/>
<path d="M93.42 198.72C93.42 198.72 93.4068 198.734 93.42 198.72L92.8665 200.738C92.8534 200.791 92.8138 200.817 92.7743 200.804L64.3116 192.299C64.272 192.286 64.2589 192.233 64.272 192.193L64.8123 190.189C64.8123 190.163 64.8387 190.149 64.8518 190.136C64.865 190.123 64.8914 190.123 64.9045 190.123L93.3673 198.628C93.3805 198.628 93.3936 198.654 93.4068 198.668C93.42 198.681 93.42 198.707 93.42 198.72Z" fill="#FE5244"/>
<path d="M65.234 190.242L64.6542 192.391C64.6146 192.536 64.496 192.629 64.3774 192.602L63.7317 192.404C63.6263 192.378 63.5604 192.22 63.6 192.075L64.1798 189.925C64.2193 189.78 64.3379 189.688 64.4565 189.714L65.1022 189.912C65.2076 189.939 65.2735 190.084 65.234 190.242Z" fill="#FFCF2D"/>
<path d="M62.6114 190.083L62.3479 191.086C62.2688 191.362 62.4401 191.653 62.73 191.745L63.6392 192.009L64.1795 189.991L63.2703 189.727C62.9804 189.648 62.6905 189.807 62.6114 190.083Z" fill="#FE5244"/>
<path d="M93.3386 198.707L94.1951 199.577L94.8539 200.25L93.9579 200.461L92.7983 200.725L93.3386 198.707Z" fill="white"/>
<path d="M94.9218 200.263C94.9086 200.316 94.8822 200.343 94.8559 200.343L92.8003 200.817C92.7739 200.817 92.7475 200.817 92.7344 200.791C92.7212 200.765 92.7212 200.738 92.7212 200.712L93.2615 198.707C93.2746 198.681 93.2878 198.655 93.3142 198.641C93.3405 198.628 93.3669 198.628 93.3801 198.655L94.8954 200.197C94.9218 200.197 94.935 200.224 94.9218 200.263ZM92.9057 200.606L94.6846 200.197L93.3801 198.866L92.9057 200.606Z" fill="#FE5244"/>
<path d="M94.1962 199.577L94.855 200.25L93.959 200.461L94.1962 199.577Z" fill="#F0E1D4"/>
<path d="M94.9219 200.263C94.9087 200.316 94.8823 200.342 94.856 200.342L93.9599 200.553C93.9336 200.553 93.9072 200.553 93.894 200.527C93.8809 200.501 93.8809 200.474 93.8809 200.448L94.118 199.578C94.1312 199.551 94.1444 199.525 94.1708 199.512C94.1971 199.498 94.2235 199.498 94.2366 199.525L94.8955 200.197C94.9219 200.197 94.935 200.224 94.9219 200.263Z" fill="#FE5244"/>
<path d="M53.2423 151.923C53.2423 152.002 53.2423 152.094 53.2292 152.173L51.0812 169.315C50.2247 169.408 49.3418 169.46 48.4194 169.46L49.4736 151.804C49.5395 150.815 50.3565 150.037 51.358 150.037C52.4121 150.037 53.2423 150.894 53.2423 151.923Z" fill="#FE5244"/>
</svg>
