<svg width="600" height="440" viewBox="0 0 600 440" fill="none" xmlns="http://www.w3.org/2000/svg">
<path d="M600 419.861H0L107.705 356.188H493.943L600 419.861Z" fill="#D0F0E4"/>
<path d="M344.008 108.578H236.062V46.0903C236.062 41.8594 239.488 38.4297 243.714 38.4297H336.355C340.582 38.4297 344.008 41.8594 344.008 46.0903V108.578Z" fill="white"/>
<path fill-rule="evenodd" clip-rule="evenodd" d="M243.714 38.9108C239.753 38.9108 236.543 42.1252 236.543 46.0907V108.097H343.528V46.0907C343.528 42.1252 340.317 38.9108 336.356 38.9108H243.714ZM344.008 108.578H344.488V46.0907C344.488 41.5941 340.847 37.9492 336.356 37.9492H243.714C239.223 37.9492 235.582 41.5941 235.582 46.0907V109.059H344.008V108.578Z" fill="#66B0F0"/>
<path d="M335.86 104.507H244.659C242.258 104.507 240.305 102.552 240.305 100.148V46.5877C240.305 44.1837 242.258 42.2285 244.659 42.2285H335.86C338.261 42.2285 340.214 44.1837 340.214 46.5877V100.164C340.214 102.568 338.261 104.507 335.86 104.507Z" fill="#66B0F0"/>
<path d="M362.93 123.242C367.06 125.934 366.1 131.207 361.217 131.207H214.163C210.049 131.207 208.64 125.646 212.674 123.098L362.93 123.242Z" fill="#66B0F0"/>
<path fill-rule="evenodd" clip-rule="evenodd" d="M212.535 122.617L363.072 122.762L363.192 122.839C365.39 124.273 366.304 126.448 365.924 128.33C365.538 130.241 363.852 131.688 361.217 131.688H214.162C211.852 131.688 210.296 130.112 209.892 128.208C209.488 126.302 210.23 124.073 212.417 122.691L212.535 122.617ZM212.815 123.579C211.059 124.748 210.518 126.528 210.832 128.009C211.153 129.522 212.358 130.727 214.162 130.727H361.217C363.464 130.727 364.7 129.538 364.982 128.139C365.265 126.741 364.626 124.978 362.784 123.723L212.815 123.579Z" fill="#66B0F0"/>
<path d="M361.216 127.537H214.162C211.536 127.537 210.496 124.444 212.673 123.098L236.094 108.578H343.703L362.913 123.242C364.834 124.701 363.714 127.537 361.216 127.537Z" fill="white"/>
<path fill-rule="evenodd" clip-rule="evenodd" d="M235.958 108.098H343.866L363.204 122.86C364.343 123.724 364.597 125.03 364.169 126.114C363.744 127.19 362.661 128.019 361.217 128.019H214.162C212.644 128.019 211.544 127.114 211.162 125.976C210.777 124.831 211.136 123.485 212.421 122.69L212.421 122.689M212.421 122.689L235.958 108.098L212.421 122.689ZM236.231 109.059L212.927 123.507L212.926 123.508C212.034 124.059 211.825 124.932 212.072 125.67C212.323 126.415 213.056 127.057 214.162 127.057H361.217C362.27 127.057 362.997 126.467 363.276 125.76C363.552 125.061 363.406 124.219 362.624 123.626L343.541 109.059H236.231Z" fill="#66B0F0"/>
<path d="M344.248 123.162H231.132C229.115 123.162 228.314 120.774 229.979 119.749L246.244 108.578H330.769L345.545 119.861C347.034 120.983 346.169 123.162 344.248 123.162Z" fill="white"/>
<path fill-rule="evenodd" clip-rule="evenodd" d="M246.095 108.098H330.931L345.833 119.477C345.834 119.477 345.834 119.478 345.835 119.478C346.757 120.174 346.968 121.23 346.622 122.109C346.278 122.98 345.403 123.643 344.248 123.643H231.132C229.916 123.643 229.029 122.914 228.719 121.994C228.408 121.07 228.693 119.983 229.717 119.346L246.095 108.098ZM246.393 109.059L230.241 120.152L230.231 120.158C229.598 120.548 229.453 121.164 229.63 121.687C229.808 122.217 230.33 122.682 231.132 122.682H344.248C345.014 122.682 345.531 122.255 345.728 121.756C345.922 121.265 345.821 120.672 345.256 120.245L345.254 120.244L345.253 120.243L330.606 109.059H246.393Z" fill="#66B0F0"/>
<path fill-rule="evenodd" clip-rule="evenodd" d="M337.908 123.506L323.116 108.921L323.79 108.236L338.582 122.82L337.908 123.506Z" fill="#66B0F0"/>
<path fill-rule="evenodd" clip-rule="evenodd" d="M328.281 123.483L315.25 108.899L315.966 108.258L328.997 122.842L328.281 123.483Z" fill="#66B0F0"/>
<path fill-rule="evenodd" clip-rule="evenodd" d="M319.2 123.459L307.897 108.875L308.656 108.285L319.958 122.869L319.2 123.459Z" fill="#66B0F0"/>
<path fill-rule="evenodd" clip-rule="evenodd" d="M309.236 123.426L299.679 108.842L300.482 108.314L310.039 122.899L309.236 123.426Z" fill="#66B0F0"/>
<path fill-rule="evenodd" clip-rule="evenodd" d="M297.478 123.311L292.819 108.726L293.734 108.434L298.393 123.018L297.478 123.311Z" fill="#66B0F0"/>
<path fill-rule="evenodd" clip-rule="evenodd" d="M237.982 122.82L252.774 108.236L253.448 108.921L238.656 123.506L237.982 122.82Z" fill="#66B0F0"/>
<path fill-rule="evenodd" clip-rule="evenodd" d="M247.567 122.842L260.598 108.258L261.314 108.899L248.283 123.483L247.567 122.842Z" fill="#66B0F0"/>
<path fill-rule="evenodd" clip-rule="evenodd" d="M256.606 122.869L267.908 108.285L268.667 108.875L257.365 123.459L256.606 122.869Z" fill="#66B0F0"/>
<path fill-rule="evenodd" clip-rule="evenodd" d="M266.525 122.899L276.082 108.314L276.885 108.842L267.328 123.426L266.525 122.899Z" fill="#66B0F0"/>
<path fill-rule="evenodd" clip-rule="evenodd" d="M278.171 123.016L282.83 108.432L283.745 108.725L279.086 123.309L278.171 123.016Z" fill="#66B0F0"/>
<path fill-rule="evenodd" clip-rule="evenodd" d="M288.378 108.578V123.339H287.417V108.578H288.378Z" fill="#66B0F0"/>
<path fill-rule="evenodd" clip-rule="evenodd" d="M337.924 114.508H238.319V113.547H337.924V114.508Z" fill="#66B0F0"/>
<path d="M328.271 104.507H247.284L248.74 94.1696C249.637 87.8071 254.199 82.5825 260.363 80.8196L280.101 76.7168H295.453L315.192 80.8196C321.371 82.5665 325.934 87.8071 326.814 94.1696L328.271 104.507Z" fill="#FFCF2D"/>
<path d="M293.244 88.5289L287.401 82.6152C287.273 82.487 287.273 82.2786 287.401 82.1664C287.529 82.0382 287.737 82.0382 287.849 82.1664L293.212 87.5994L301.537 78.1598C301.649 78.0316 301.857 78.0156 301.985 78.1278C302.113 78.2399 302.129 78.4483 302.017 78.5765L293.244 88.5289Z" fill="white"/>
<path d="M282.39 88.5286L273.618 78.5761C273.505 78.4479 273.505 78.2396 273.65 78.1274C273.778 78.0152 273.986 78.0152 274.098 78.1594L282.422 87.599L287.785 82.1661C287.913 82.0378 288.105 82.0378 288.233 82.1661C288.361 82.2943 288.361 82.4866 288.233 82.6148L282.39 88.5286Z" fill="white"/>
<path d="M287.914 92.3902C287.145 92.3902 286.521 91.7651 286.521 90.9959C286.521 90.2266 287.145 89.6016 287.914 89.6016C288.682 89.6016 289.306 90.2266 289.306 90.9959C289.306 91.7651 288.682 92.3902 287.914 92.3902ZM287.914 90.2426C287.497 90.2426 287.161 90.5792 287.161 90.9959C287.161 91.4125 287.497 91.7491 287.914 91.7491C288.33 91.7491 288.666 91.4125 288.666 90.9959C288.666 90.5792 288.33 90.2426 287.914 90.2426Z" fill="white"/>
<path d="M287.914 100.244C287.145 100.244 286.521 99.6186 286.521 98.8494C286.521 98.0801 287.145 97.4551 287.914 97.4551C288.682 97.4551 289.306 98.0801 289.306 98.8494C289.306 99.6186 288.682 100.244 287.914 100.244ZM287.914 98.0961C287.497 98.0961 287.161 98.4327 287.161 98.8494C287.161 99.2661 287.497 99.6026 287.914 99.6026C288.33 99.6026 288.666 99.2661 288.666 98.8494C288.666 98.4327 288.33 98.0961 287.914 98.0961Z" fill="white"/>
<path d="M280.006 104.17H253.848L246.868 83.432L273.026 75.9316L280.006 104.17Z" fill="white"/>
<path fill-rule="evenodd" clip-rule="evenodd" d="M273.256 75.5312L280.414 104.49H253.617L246.457 83.2156L273.256 75.5312ZM247.278 83.647L254.077 103.849H279.596L272.794 76.3306L247.278 83.647Z" fill="#66B0F0"/>
<path d="M255.208 86.1242H254.712C253.447 86.1242 252.422 85.0986 252.422 83.8325V76.6366C252.422 76.1237 252.839 75.707 253.351 75.707H255.512C256.024 75.707 256.44 76.1237 256.44 76.6366V84.8742C256.456 85.5633 255.896 86.1242 255.208 86.1242Z" fill="white"/>
<path fill-rule="evenodd" clip-rule="evenodd" d="M253.351 76.0278C253.015 76.0278 252.742 76.301 252.742 76.6368V83.8327C252.742 84.9218 253.624 85.804 254.711 85.804H255.208C255.721 85.804 256.132 85.3867 256.12 84.8819L256.12 84.8781V76.6368C256.12 76.301 255.847 76.0278 255.512 76.0278H253.351ZM252.102 76.6368C252.102 75.9469 252.662 75.3867 253.351 75.3867H255.512C256.201 75.3867 256.76 75.9469 256.76 76.6368V84.8709C256.779 85.7425 256.07 86.445 255.208 86.445H254.711C253.27 86.445 252.102 85.2758 252.102 83.8327V76.6368Z" fill="#66B0F0"/>
<path d="M265.742 86.1242H266.238C267.503 86.1242 268.527 85.0986 268.527 83.8325V76.6366C268.527 76.1237 268.111 75.707 267.599 75.707H265.422C264.909 75.707 264.493 76.1237 264.493 76.6366V84.8742C264.493 85.5633 265.053 86.1242 265.742 86.1242Z" fill="white"/>
<path d="M259.226 86.9572H258.073C257.177 86.9572 256.457 86.2361 256.457 85.3386V76.6522C256.457 76.1393 256.873 75.7227 257.385 75.7227H259.546C260.058 75.7227 260.475 76.1393 260.475 76.6522V85.7072C260.475 86.3963 259.914 86.9572 259.226 86.9572Z" fill="white"/>
<path d="M263.26 87.2781H262.3C261.291 87.2781 260.475 86.4608 260.475 85.4511V76.6366C260.475 76.1237 260.891 75.707 261.403 75.707H263.564C264.076 75.707 264.493 76.1237 264.493 76.6366V86.0281C264.493 86.7172 263.932 87.2781 263.26 87.2781Z" fill="white"/>
<path fill-rule="evenodd" clip-rule="evenodd" d="M264.172 76.6368C264.172 75.9469 264.732 75.3867 265.421 75.3867H267.598C268.287 75.3867 268.847 75.9469 268.847 76.6368V83.8327C268.847 85.2758 267.679 86.445 266.237 86.445H265.741C264.876 86.445 264.172 85.7406 264.172 84.8744V76.6368ZM265.421 76.0278C265.086 76.0278 264.813 76.301 264.813 76.6368V84.8744C264.813 85.3865 265.23 85.804 265.741 85.804H266.237C267.325 85.804 268.206 84.9218 268.206 83.8327V76.6368C268.206 76.301 267.934 76.0278 267.598 76.0278H265.421Z" fill="#66B0F0"/>
<path fill-rule="evenodd" clip-rule="evenodd" d="M257.385 76.0434C257.049 76.0434 256.777 76.3166 256.777 76.6524V85.3388C256.777 86.0592 257.354 86.6369 258.073 86.6369H259.226C259.737 86.6369 260.154 86.2195 260.154 85.7074V76.6524C260.154 76.3166 259.882 76.0434 259.546 76.0434H257.385ZM256.136 76.6524C256.136 75.9625 256.696 75.4023 257.385 75.4023H259.546C260.235 75.4023 260.795 75.9625 260.795 76.6524V85.7074C260.795 86.5736 260.091 87.278 259.226 87.278H258.073C257 87.278 256.136 86.4133 256.136 85.3388V76.6524Z" fill="#66B0F0"/>
<path fill-rule="evenodd" clip-rule="evenodd" d="M261.403 76.0278C261.068 76.0278 260.795 76.301 260.795 76.6368V85.4514C260.795 86.284 261.468 86.9578 262.3 86.9578H263.26C263.753 86.9578 264.173 86.5431 264.173 86.0283V76.6368C264.173 76.301 263.9 76.0278 263.565 76.0278H261.403ZM260.155 76.6368C260.155 75.9469 260.714 75.3867 261.403 75.3867H263.565C264.254 75.3867 264.813 75.9469 264.813 76.6368V86.0283C264.813 86.8918 264.112 87.5989 263.26 87.5989H262.3C261.115 87.5989 260.155 86.6381 260.155 85.4514V76.6368Z" fill="#66B0F0"/>
<path d="M295.47 67.293V78.9923C295.47 81.0116 292.028 82.6624 287.786 82.6624C283.543 82.6624 280.102 81.0116 280.102 78.9923V67.293H295.47Z" fill="white"/>
<path d="M295.468 67.293C295.468 76.1236 289.817 78.7519 284.39 78.2872C284.374 78.2872 284.358 78.2872 284.342 78.2872C281.941 78.0628 280.116 76.0114 280.116 73.6074V67.309H295.468V67.293Z" fill="#66B0F0"/>
<path d="M299.039 64.2805V64.8735C299.039 66.1876 297.983 67.2454 296.67 67.2454H295.453L295.469 67.5178C295.469 71.3001 292.412 74.3612 288.634 74.3612H286.953C283.175 74.3612 280.117 71.3001 280.117 67.5178L280.133 67.2454H278.917C277.604 67.2454 276.547 66.1876 276.547 64.8735V64.2805C276.547 62.9663 277.604 61.9086 278.917 61.9086H280.469L280.646 59.0078C280.646 58.559 280.71 58.1263 280.838 57.7257C285.416 58.8635 290.779 55.9147 292.22 55.0332C293.821 55.6422 294.957 57.1808 294.957 58.9917L295.133 61.8925H296.686C297.983 61.9086 299.039 62.9663 299.039 64.2805Z" fill="white"/>
<path d="M296.782 61.9082H295.117L294.941 59.0074C294.941 57.1964 293.805 55.6579 292.204 55.0489C290.763 55.9143 285.4 58.8632 280.822 57.7413C280.694 58.142 280.63 58.5747 280.63 59.0234L280.453 61.9242H279.413C279.413 61.9242 277.284 51.6032 279.381 49.712C280.934 48.3177 295.149 51.3628 296.718 53.5263C297.599 54.7604 296.782 61.9082 296.782 61.9082Z" fill="#E57281"/>
<path d="M292.78 61.2834C292.732 61.2834 292.668 61.2674 292.62 61.2193C292.604 61.2033 291.563 60.3538 289.898 60.3538C289.77 60.3538 289.658 60.2417 289.658 60.1134C289.658 59.9852 289.77 59.873 289.898 59.873C291.739 59.873 292.876 60.8026 292.924 60.8507C293.02 60.9308 293.036 61.0911 292.956 61.1872C292.924 61.2513 292.844 61.2834 292.78 61.2834Z" fill="#66B0F0"/>
<path d="M286.696 66.2508C286.664 66.2508 286.632 66.2508 286.616 66.2348C286.488 66.1867 286.424 66.0424 286.472 65.9303C286.921 64.7443 286.808 63.2538 286.184 61.9397C285.816 61.1384 285.288 60.5614 284.823 60.4011C283.799 60.0485 282.358 60.5454 282.342 60.5454C282.214 60.5935 282.086 60.5293 282.038 60.4011C281.99 60.2729 282.054 60.1447 282.182 60.0966C282.246 60.0806 283.783 59.5517 284.968 59.9524C285.56 60.1607 286.168 60.8178 286.6 61.7474C287.273 63.1737 287.385 64.8084 286.905 66.1226C286.889 66.1867 286.792 66.2508 286.696 66.2508Z" fill="#66B0F0"/>
<path d="M289.851 68.7998C289.867 68.9281 289.755 69.0402 289.627 69.0563H289.611C289.483 69.0563 289.387 68.9601 289.371 68.8319C289.355 68.6716 289.323 68.5114 289.275 68.3671C288.586 68.7037 287.962 68.8159 287.45 68.8159C286.441 68.8159 285.833 68.3992 285.801 68.3671C285.689 68.287 285.673 68.1428 285.737 68.0306C285.817 67.9184 285.961 67.9024 286.073 67.9665C286.105 67.9825 286.617 68.3351 287.45 68.3351C287.898 68.3351 288.442 68.2389 289.066 67.9344C288.97 67.7741 288.874 67.678 288.874 67.678C288.778 67.5818 288.794 67.4216 288.89 67.3414C288.986 67.2613 289.147 67.2613 289.227 67.3575C289.259 67.4055 289.803 68.0145 289.851 68.7998Z" fill="#66B0F0"/>
<path d="M290.715 64.2192C290.935 64.2054 291.092 63.8362 291.065 63.3945C291.037 62.9528 290.836 62.6058 290.615 62.6196C290.395 62.6334 290.238 63.0026 290.266 63.4443C290.293 63.886 290.494 64.233 290.715 64.2192Z" fill="#66B0F0"/>
<path d="M284.179 64.1538C284.382 64.1411 284.526 63.8014 284.501 63.395C284.476 62.9887 284.291 62.6695 284.088 62.6821C283.885 62.6948 283.741 63.0345 283.766 63.4409C283.791 63.8473 283.976 64.1665 284.179 64.1538Z" fill="#66B0F0"/>
<path d="M279.701 65.0478C279.573 65.0478 279.461 64.9356 279.461 64.8074C279.461 64.1023 278.885 63.5413 278.196 63.5413C278.068 63.5413 277.956 63.4292 277.956 63.3009C277.956 63.1727 278.068 63.0605 278.196 63.0605C279.157 63.0605 279.941 63.8458 279.941 64.8074C279.941 64.9517 279.829 65.0478 279.701 65.0478Z" fill="#66B0F0"/>
<path d="M295.806 65.0478C295.677 65.0478 295.565 64.9356 295.565 64.8074C295.565 63.8458 296.35 63.0605 297.31 63.0605C297.438 63.0605 297.55 63.1727 297.55 63.3009C297.55 63.4292 297.438 63.5413 297.31 63.5413C296.606 63.5413 296.046 64.1183 296.046 64.8074C296.046 64.9517 295.95 65.0478 295.806 65.0478Z" fill="#66B0F0"/>
<path fill-rule="evenodd" clip-rule="evenodd" d="M79.8698 192.905C81.2578 188.1 85.6399 184.801 90.6246 184.801H506.767C511.7 184.801 516.065 188.031 517.488 192.755L517.488 192.755M80.7925 193.172L15.3657 419.995L14.4429 419.728L79.8698 192.905L79.8698 192.905M80.7925 193.172C80.7925 193.172 80.7926 193.172 80.7926 193.172C82.062 188.778 86.0684 185.762 90.6246 185.762H506.767C511.279 185.762 515.269 188.718 516.568 193.033L516.568 193.033L585.133 420L586.052 419.722L517.488 192.755" fill="#66B0F0"/>
<path fill-rule="evenodd" clip-rule="evenodd" d="M386.638 109.059H204.621V108.098H386.638V109.059Z" fill="#66B0F0"/>
<path d="M267.791 143.068H310.79V180.041H267.791C267.791 180.041 267.791 141.674 267.791 143.068Z" fill="#FFCF2D"/>
<path d="M428.581 314.856L408.586 265.014H440.779L428.581 314.856Z" fill="#9A3B82"/>
<path d="M373.719 198.487C378.01 190.362 386.446 185.281 395.619 185.281H420.384L437.209 198.487H373.719Z" fill="#9A3B82"/>
<path d="M467.609 256.839H405.224L428.709 313.909C427.076 311.249 417.295 314.021 406.937 320.384C396.708 326.666 389.792 334.231 391.201 336.987L340.582 248.809C327.455 226.565 343.463 198.486 369.269 198.486H509.071L509.376 199.448C518.5 227.815 497.369 256.839 467.609 256.839Z" fill="#3FB1B5"/>
<path d="M511.489 214.849C511.265 220.058 510.112 225.09 508.159 229.754L434.84 198.502H507.615L509.312 203.47C510.496 206.451 511.153 210.634 511.489 214.849Z" fill="#E6E6E6"/>
<path d="M428.725 313.908C430.358 316.568 423.218 323.829 412.876 330.191C402.519 336.554 392.897 339.743 391.265 337.082C389.632 334.422 396.595 326.906 406.953 320.543C417.295 314.181 427.076 311.248 428.725 313.908Z" fill="#66B0F0"/>
<path fill-rule="evenodd" clip-rule="evenodd" d="M475.53 202.551C475.79 202.497 476.044 202.663 476.099 202.923C478.627 214.921 469.483 226.212 457.235 226.212H368.564C361.617 226.212 357.252 233.7 360.642 239.759C360.642 239.76 360.642 239.76 360.643 239.76L406.17 320.339C406.301 320.571 406.219 320.864 405.988 320.995C405.757 321.125 405.464 321.044 405.334 320.813L359.806 240.232L359.805 240.23C356.056 233.532 360.88 225.251 368.564 225.251H457.235C468.873 225.251 477.562 214.522 475.159 203.121C475.105 202.861 475.271 202.606 475.53 202.551Z" fill="white"/>
<path fill-rule="evenodd" clip-rule="evenodd" d="M421.887 313.54C418.186 314.463 413.242 316.727 407.194 320.254C401.837 323.381 397.415 327.041 394.543 330.235C393.105 331.834 392.071 333.299 391.497 334.507C391.211 335.111 391.048 335.632 390.999 336.061C390.949 336.488 391.014 336.794 391.145 337.007C391.284 337.234 391.213 337.53 390.987 337.669C390.761 337.808 390.466 337.737 390.327 337.511C390.05 337.059 389.978 336.519 390.044 335.95C390.11 335.382 390.316 334.756 390.63 334.094C391.258 332.77 392.358 331.227 393.829 329.591C396.776 326.315 401.278 322.594 406.711 319.423L406.711 319.423C412.782 315.882 417.82 313.563 421.655 312.607C423.571 312.129 425.223 311.982 426.569 312.218C427.931 312.457 428.991 313.093 429.66 314.167C429.801 314.392 429.732 314.689 429.507 314.829C429.282 314.97 428.986 314.901 428.845 314.676C428.346 313.875 427.549 313.367 426.403 313.165C425.243 312.962 423.738 313.078 421.887 313.54Z" fill="white"/>
<path fill-rule="evenodd" clip-rule="evenodd" d="M399.675 243.334C399.92 243.232 400.202 243.347 400.304 243.592L430.048 314.589C430.151 314.834 430.036 315.116 429.791 315.219C429.546 315.321 429.265 315.206 429.162 314.961L399.418 243.964C399.316 243.719 399.431 243.437 399.675 243.334Z" fill="white"/>
<path fill-rule="evenodd" clip-rule="evenodd" d="M440.091 198.438H367.524V197.477H440.091V198.438Z" fill="white"/>
<path d="M408.569 340.752L404.247 334.855L398.292 326.745C400.725 324.694 403.655 322.562 406.937 320.543C413.468 316.536 419.759 313.876 423.938 313.139L426.835 318.924L430.453 326.136C427.892 335.255 408.569 340.752 408.569 340.752Z" fill="#E57281"/>
<path d="M426.85 318.924C424.16 322.21 419.102 326.36 412.874 330.191C409.881 332.034 406.951 333.604 404.262 334.855L398.307 326.745C400.74 324.694 403.669 322.562 406.951 320.543C413.483 316.536 419.774 313.876 423.952 313.139L426.85 318.924Z" fill="#9A3B82"/>
<path d="M450.241 357.918L406.313 389.506C402.583 392.102 396.788 394.266 397.557 384.874C398.629 371.925 401.495 352.661 408.571 340.737C408.875 340.657 427.893 335.16 430.454 326.121L450.481 340.369C456.244 344.856 456.116 353.607 450.241 357.918Z" fill="white"/>
<path fill-rule="evenodd" clip-rule="evenodd" d="M430.177 325.334L450.766 339.982L450.775 339.988C456.789 344.672 456.656 353.805 450.524 358.305L450.522 358.306L406.589 389.898L406.586 389.9C405.635 390.563 404.54 391.205 403.44 391.644C402.348 392.08 401.201 392.334 400.167 392.159C399.096 391.977 398.196 391.342 397.638 390.125C397.095 388.939 396.882 387.217 397.077 384.834L397.077 384.834C397.614 378.345 398.601 370.27 400.342 362.318C402.082 354.372 404.58 346.517 408.156 340.491L408.257 340.322L408.447 340.272C408.447 340.272 408.449 340.271 408.452 340.27L408.467 340.266C408.479 340.263 408.496 340.258 408.518 340.251C408.562 340.239 408.622 340.221 408.7 340.198C408.854 340.152 409.072 340.085 409.347 339.998C409.896 339.824 410.668 339.569 411.595 339.237C413.449 338.574 415.918 337.603 418.453 336.357C420.991 335.108 423.581 333.591 425.689 331.837C427.802 330.078 429.388 328.116 429.991 325.989L430.177 325.334ZM430.707 326.891C429.918 329.023 428.289 330.923 426.303 332.576C424.115 334.397 421.451 335.953 418.876 337.22C414.252 339.494 409.858 340.858 408.886 341.146C405.437 347.022 402.995 354.692 401.28 362.523C399.551 370.421 398.569 378.452 398.034 384.913C397.845 387.226 398.068 388.756 398.512 389.724C398.941 390.661 399.579 391.084 400.327 391.211C401.111 391.344 402.065 391.158 403.084 390.751C404.095 390.348 405.122 389.748 406.035 389.113C406.036 389.112 406.037 389.111 406.038 389.111L449.956 357.529C449.956 357.529 449.957 357.528 449.958 357.528C455.571 353.407 455.696 345.047 450.193 340.754L430.707 326.891Z" fill="#FFCF2D"/>
<path fill-rule="evenodd" clip-rule="evenodd" d="M432.793 327.436C433.048 327.509 433.196 327.775 433.124 328.03C432.331 330.826 430.47 333.343 428.114 335.527C425.755 337.713 422.873 339.59 419.99 341.102C417.106 342.614 414.207 343.768 411.803 344.504C410.602 344.872 409.517 345.138 408.616 345.29C407.73 345.44 406.972 345.49 406.447 345.391C406.187 345.342 406.015 345.091 406.064 344.83C406.113 344.569 406.364 344.397 406.625 344.446C406.973 344.512 407.59 344.489 408.456 344.342C409.306 344.198 410.349 343.944 411.522 343.585C413.869 342.866 416.713 341.735 419.544 340.25C422.377 338.765 425.182 336.934 427.461 334.821C429.743 332.706 431.472 330.333 432.2 327.768C432.272 327.512 432.538 327.364 432.793 327.436Z" fill="#FFCF2D"/>
<path d="M401.814 386.253C401.814 386.253 430.485 346.379 450.88 348.623C473.084 351.043 383.66 409.507 401.814 386.253Z" fill="#FFCF2D"/>
<path fill-rule="evenodd" clip-rule="evenodd" d="M400.059 385.347C400.059 385.347 400.059 385.347 399.669 385.065L400.059 385.347L400.053 385.354L400.048 385.361C398.48 387.372 398.354 388.882 398.727 389.813C399.102 390.754 400.042 391.265 400.967 391.205C401.232 391.187 401.46 391.388 401.477 391.653C401.494 391.918 401.294 392.147 401.029 392.164C399.729 392.248 398.379 391.533 397.835 390.17C397.287 388.799 397.608 386.93 399.285 384.776L399.286 384.776L399.303 384.753C399.317 384.733 399.339 384.702 399.368 384.663C399.426 384.584 399.511 384.467 399.624 384.315C399.849 384.011 400.181 383.567 400.611 383.002C401.471 381.872 402.723 380.262 404.292 378.337C407.428 374.489 411.833 369.38 416.907 364.342C421.977 359.307 427.729 354.329 433.558 350.755C439.376 347.187 445.337 344.977 450.805 345.579C452.577 345.77 453.817 346.6 454.494 347.748C455.164 348.884 455.249 350.277 454.826 351.546C454.742 351.798 454.47 351.934 454.219 351.85C453.967 351.766 453.831 351.494 453.915 351.242C454.261 350.203 454.178 349.103 453.667 348.236C453.163 347.381 452.21 346.697 450.701 346.535L450.7 346.535C445.546 345.967 439.811 348.048 434.06 351.575C428.319 355.095 422.627 360.016 417.583 365.025C412.541 370.032 408.158 375.114 405.036 378.945C403.475 380.861 402.23 382.462 401.375 383.585C400.948 384.146 400.618 384.587 400.396 384.888C400.284 385.038 400.2 385.153 400.143 385.231C400.115 385.269 400.094 385.299 400.08 385.318L400.064 385.34L400.059 385.347Z" fill="#FFCF2D"/>
<path d="M511.649 218.103C501.5 215.699 476.239 209.368 447.423 202.701C433.88 199.576 422.546 190.345 416.703 177.716L390.465 120.886L406.345 95.6923C411.228 87.9355 419.552 82.9993 428.693 82.4384L444.318 81.4768C460.07 80.5152 472.717 90.3555 477.519 105.404L509.296 198.486C512.786 207.205 511.649 218.103 511.649 218.103Z" fill="white"/>
<path fill-rule="evenodd" clip-rule="evenodd" d="M444.346 81.9571C444.346 81.9571 444.346 81.9571 444.346 81.9571L428.722 82.9187C419.735 83.4701 411.551 88.3231 406.751 95.949L391.009 120.922L417.138 177.514C422.919 190.009 434.132 199.141 447.53 202.233L447.53 202.233C467.438 206.839 485.658 211.287 498.363 214.388C503.727 215.697 508.108 216.766 511.217 217.506C511.24 217.2 511.268 216.772 511.292 216.242C511.343 215.095 511.376 213.474 511.301 211.583C511.15 207.794 510.565 202.952 508.849 198.665L508.845 198.654L477.064 105.56L477.062 105.556L477.061 105.551C472.317 90.685 459.852 81.0106 444.346 81.9571ZM511.649 218.103L512.126 218.153L512.069 218.697L511.538 218.571C508.395 217.826 503.808 216.707 498.119 215.318C485.417 212.217 467.218 207.775 447.314 203.17C433.626 200.011 422.171 190.681 416.266 177.918L416.266 177.918L389.918 120.851L405.938 95.4363C410.903 87.5486 419.368 82.5293 428.663 81.9589C428.663 81.9589 428.663 81.9589 428.663 81.9589L444.287 80.9973C460.284 80.0208 473.112 90.0246 477.974 105.253C477.975 105.255 477.975 105.257 477.976 105.258L509.746 198.319C511.516 202.748 512.108 207.709 512.26 211.545C512.337 213.468 512.304 215.117 512.251 216.285C512.225 216.87 512.194 217.335 512.169 217.655C512.157 217.814 512.146 217.938 512.139 218.022C512.137 218.043 512.135 218.061 512.134 218.077C512.132 218.093 512.131 218.107 512.13 218.118L512.127 218.143L512.126 218.15L512.126 218.152L512.126 218.153C512.126 218.153 512.126 218.153 511.649 218.103Z" fill="#FE5244"/>
<path fill-rule="evenodd" clip-rule="evenodd" d="M403.875 124.334C403.874 124.333 403.874 124.333 404.279 124.075C404.684 123.817 404.684 123.816 404.684 123.816L404.684 123.816L404.685 123.818L404.689 123.823C404.692 123.829 404.698 123.837 404.705 123.848C404.72 123.871 404.743 123.906 404.775 123.953C404.838 124.046 404.934 124.184 405.064 124.362C405.323 124.718 405.717 125.234 406.249 125.863C407.314 127.121 408.932 128.833 411.14 130.636C415.555 134.24 422.325 138.207 431.742 139.642L431.598 140.593C421.98 139.127 415.055 135.072 410.533 131.381C408.273 129.536 406.613 127.781 405.516 126.484C404.967 125.836 404.559 125.302 404.287 124.928C404.151 124.741 404.049 124.595 403.981 124.493C403.946 124.443 403.92 124.404 403.903 124.377C403.894 124.363 403.887 124.353 403.882 124.346L403.877 124.337L403.875 124.334L403.875 124.334Z" fill="#FE5244"/>
<path d="M415.549 100.164C414.685 99.2344 413.164 99.4908 412.636 100.629C412.043 101.911 413.116 103.337 414.509 103.129C415.934 102.92 416.526 101.206 415.549 100.164Z" fill="#FFCF2D"/>
<path fill-rule="evenodd" clip-rule="evenodd" d="M412.2 100.427C412.87 98.9834 414.8 98.6546 415.9 99.8362C417.141 101.161 416.386 103.34 414.578 103.605C412.81 103.869 411.446 102.058 412.199 100.427L412.2 100.427L412.2 100.427ZM413.071 100.832C412.64 101.765 413.421 102.806 414.437 102.654L414.439 102.654L414.439 102.654C415.48 102.501 415.909 101.252 415.198 100.494L415.197 100.492L415.197 100.492C414.568 99.8156 413.457 99.9996 413.071 100.832Z" fill="#FE5244"/>
<path d="M455.427 127.553C454.563 126.623 453.042 126.88 452.514 128.017C451.921 129.299 452.994 130.726 454.387 130.518C455.811 130.309 456.404 128.594 455.427 127.553Z" fill="#FFCF2D"/>
<path fill-rule="evenodd" clip-rule="evenodd" d="M452.078 127.815C452.748 126.372 454.678 126.043 455.778 127.225C457.019 128.55 456.264 130.729 454.457 130.994C452.688 131.258 451.324 129.447 452.078 127.816L452.078 127.815L452.078 127.815ZM452.949 128.22C452.518 129.153 453.299 130.195 454.315 130.043L454.317 130.042L454.317 130.042C455.358 129.89 455.788 128.641 455.077 127.882L455.076 127.881L455.076 127.881C454.446 127.204 453.336 127.388 452.949 128.22Z" fill="#FE5244"/>
<path d="M468.058 138.771C467.193 137.842 465.672 138.098 465.144 139.236C464.552 140.518 465.624 141.945 467.017 141.736C468.426 141.544 469.018 139.829 468.058 138.771Z" fill="#FFCF2D"/>
<path fill-rule="evenodd" clip-rule="evenodd" d="M464.708 139.034C465.379 137.591 467.309 137.262 468.409 138.444L468.413 138.449C469.621 139.779 468.892 141.964 467.085 142.213C465.317 142.475 463.955 140.665 464.708 139.035L464.708 139.034L464.708 139.034ZM465.58 139.439C465.149 140.372 465.93 141.413 466.946 141.261L466.952 141.26C467.96 141.123 468.414 139.882 467.704 139.097C467.075 138.423 465.966 138.608 465.58 139.439Z" fill="#FE5244"/>
<path d="M492.278 202.252C491.413 201.322 489.892 201.579 489.364 202.717C488.772 203.999 489.844 205.425 491.237 205.217C492.646 205.008 493.238 203.31 492.278 202.252Z" fill="#FFCF2D"/>
<path fill-rule="evenodd" clip-rule="evenodd" d="M488.929 202.515C489.599 201.071 491.53 200.742 492.629 201.925L492.633 201.929C493.847 203.265 493.104 205.427 491.308 205.693C489.539 205.957 488.175 204.146 488.928 202.515L488.929 202.515L488.929 202.515ZM489.8 202.919C489.369 203.853 490.15 204.894 491.166 204.742L491.167 204.742C492.187 204.591 492.629 203.357 491.924 202.578C491.295 201.904 490.186 202.088 489.8 202.919Z" fill="#FE5244"/>
<path d="M478.719 171.914C477.855 170.984 476.334 171.241 475.806 172.379C475.213 173.661 476.286 175.087 477.679 174.879C479.103 174.671 479.696 172.956 478.719 171.914Z" fill="#FFCF2D"/>
<path fill-rule="evenodd" clip-rule="evenodd" d="M475.37 172.177C476.04 170.733 477.97 170.405 479.07 171.586C480.311 172.911 479.557 175.09 477.749 175.355C475.98 175.619 474.616 173.808 475.37 172.177L475.37 172.177L475.37 172.177ZM476.241 172.582C475.81 173.515 476.591 174.556 477.608 174.404L477.609 174.404L477.609 174.404C478.65 174.251 479.08 173.002 478.369 172.244L478.368 172.242L478.368 172.242C477.738 171.566 476.628 171.75 476.241 172.582Z" fill="#FE5244"/>
<path d="M484.338 150.085C483.089 150.246 482.401 151.64 483.025 152.73C483.729 153.964 485.506 153.916 486.147 152.65C486.803 151.367 485.747 149.893 484.338 150.085Z" fill="#FFCF2D"/>
<path fill-rule="evenodd" clip-rule="evenodd" d="M486.575 152.868C485.762 154.474 483.503 154.536 482.608 152.969C481.815 151.583 482.687 149.814 484.275 149.609C486.065 149.366 487.408 151.24 486.575 152.868ZM485.72 152.431C486.198 151.496 485.429 150.422 484.403 150.562L484.399 150.563C483.491 150.679 482.987 151.698 483.442 152.491L483.442 152.492C483.956 153.392 485.25 153.359 485.719 152.433L485.72 152.431Z" fill="#FE5244"/>
<path d="M494.567 182.458C493.319 182.619 492.63 184.013 493.255 185.103C493.959 186.337 495.736 186.289 496.376 185.023C497.033 183.741 495.992 182.266 494.567 182.458Z" fill="#FFCF2D"/>
<path fill-rule="evenodd" clip-rule="evenodd" d="M496.804 185.241C495.991 186.847 493.733 186.909 492.838 185.342C492.044 183.956 492.917 182.187 494.505 181.982C496.314 181.739 497.636 183.615 496.804 185.241ZM495.949 184.804C496.429 183.867 495.671 182.795 494.632 182.935L494.628 182.936C493.72 183.052 493.217 184.071 493.671 184.864L493.672 184.865C494.186 185.765 495.48 185.732 495.948 184.806L495.949 184.804Z" fill="#FE5244"/>
<path d="M452.145 147.537C451.28 146.607 449.759 146.864 449.231 148.002C448.639 149.284 449.711 150.71 451.104 150.502C452.513 150.294 453.105 148.595 452.145 147.537Z" fill="#FFCF2D"/>
<path fill-rule="evenodd" clip-rule="evenodd" d="M448.796 147.8C449.466 146.356 451.397 146.027 452.496 147.21L452.5 147.214C453.714 148.55 452.972 150.712 451.175 150.978C449.406 151.242 448.042 149.431 448.795 147.8L448.796 147.8L448.796 147.8ZM449.667 148.205C449.236 149.138 450.017 150.179 451.033 150.027L451.034 150.027C452.054 149.876 452.496 148.642 451.791 147.863C451.162 147.189 450.053 147.373 449.667 148.205Z" fill="#FE5244"/>
<path d="M443.324 165.695C442.459 164.766 440.938 165.022 440.41 166.16C439.818 167.442 440.89 168.868 442.283 168.66C443.708 168.452 444.3 166.737 443.324 165.695Z" fill="#FFCF2D"/>
<path fill-rule="evenodd" clip-rule="evenodd" d="M439.975 165.958C440.646 164.515 442.576 164.186 443.676 165.367C444.917 166.692 444.162 168.871 442.354 169.136C440.585 169.4 439.222 167.589 439.975 165.959L439.975 165.958L439.975 165.958ZM440.847 166.363C440.416 167.296 441.197 168.337 442.213 168.185L442.215 168.185L442.215 168.185C443.255 168.033 443.685 166.783 442.974 166.025L442.973 166.023L442.973 166.023C442.344 165.347 441.233 165.531 440.847 166.363Z" fill="#FE5244"/>
<path d="M427.54 159.349C428.468 158.484 428.212 156.961 427.076 156.432C425.795 155.839 424.37 156.913 424.578 158.307C424.787 159.718 426.483 160.311 427.54 159.349Z" fill="#FFCF2D"/>
<path fill-rule="evenodd" clip-rule="evenodd" d="M424.103 158.377C423.839 156.607 425.648 155.241 427.277 155.995L427.278 155.996C428.72 156.667 429.048 158.6 427.867 159.7L427.863 159.704C426.528 160.919 424.369 160.176 424.103 158.377ZM426.873 156.868C425.941 156.437 424.901 157.218 425.053 158.236L425.053 158.237C425.204 159.257 426.436 159.7 427.214 158.995C427.888 158.365 427.703 157.255 426.873 156.868Z" fill="#FE5244"/>
<path d="M441.547 190.601C442.475 189.736 442.219 188.213 441.083 187.684C439.802 187.091 438.377 188.165 438.585 189.559C438.793 190.986 440.506 191.579 441.547 190.601Z" fill="#FFCF2D"/>
<path fill-rule="evenodd" clip-rule="evenodd" d="M438.11 189.629C437.847 187.858 439.656 186.493 441.284 187.247L441.285 187.248C442.727 187.918 443.055 189.851 441.875 190.952C440.551 192.194 438.375 191.439 438.11 189.629ZM440.881 188.12C439.948 187.689 438.908 188.47 439.06 189.488L439.061 189.489L439.061 189.489C439.213 190.531 440.461 190.962 441.218 190.25L441.22 190.249L441.22 190.249C441.895 189.619 441.712 188.507 440.881 188.12Z" fill="#FE5244"/>
<path d="M465.128 163.789C466.056 162.923 465.8 161.401 464.663 160.872C463.383 160.279 461.958 161.353 462.166 162.747C462.374 164.157 464.087 164.766 465.128 163.789Z" fill="#FFCF2D"/>
<path fill-rule="evenodd" clip-rule="evenodd" d="M461.691 162.817C461.427 161.046 463.237 159.681 464.865 160.435L464.866 160.435C466.308 161.106 466.636 163.038 465.456 164.139C464.129 165.385 461.956 164.605 461.691 162.817ZM464.462 161.307C463.53 160.876 462.49 161.658 462.641 162.675L462.642 162.676C462.794 163.708 464.045 164.146 464.799 163.437L464.801 163.436L464.801 163.436C465.477 162.806 465.293 161.694 464.462 161.307Z" fill="#FE5244"/>
<path d="M473.18 197.347C474.109 196.482 473.853 194.959 472.716 194.43C471.435 193.837 470.011 194.911 470.219 196.306C470.411 197.732 472.124 198.325 473.18 197.347Z" fill="#FFCF2D"/>
<path fill-rule="evenodd" clip-rule="evenodd" d="M469.744 196.374C469.482 194.605 471.29 193.242 472.918 193.995L472.919 193.996C474.361 194.667 474.689 196.6 473.508 197.7L473.507 197.702L473.507 197.702C472.175 198.934 469.992 198.197 469.744 196.374ZM472.515 194.868C471.582 194.437 470.542 195.218 470.694 196.236C470.695 196.238 470.695 196.24 470.695 196.243C470.834 197.27 472.074 197.717 472.854 196.996C473.529 196.366 473.345 195.255 472.515 194.868Z" fill="#FE5244"/>
<path d="M424.898 129.381C424.033 128.451 422.513 128.708 421.984 129.846C421.392 131.128 422.465 132.554 423.857 132.346C425.282 132.137 425.874 130.422 424.898 129.381Z" fill="#FFCF2D"/>
<path fill-rule="evenodd" clip-rule="evenodd" d="M421.55 129.641C422.22 128.198 424.15 127.869 425.25 129.051C426.491 130.376 425.736 132.555 423.928 132.82C422.16 133.084 420.796 131.273 421.549 129.642L421.55 129.641L421.55 129.641ZM422.421 130.046C421.99 130.98 422.771 132.021 423.787 131.869L423.789 131.868L423.789 131.868C424.83 131.716 425.26 130.467 424.549 129.708L424.547 129.707L424.547 129.707C423.918 129.03 422.808 129.214 422.421 130.046Z" fill="#FE5244"/>
<path d="M427.764 87.8065C426.899 86.877 425.378 87.1334 424.85 88.2713C424.258 89.5534 425.33 90.9798 426.723 90.7714C428.148 90.5631 428.74 88.8482 427.764 87.8065Z" fill="#FFCF2D"/>
<path fill-rule="evenodd" clip-rule="evenodd" d="M424.414 88.0692C425.084 86.626 427.015 86.2971 428.114 87.4788C429.355 88.8037 428.601 90.9827 426.793 91.2476C425.024 91.5116 423.661 89.7006 424.414 88.07L424.414 88.0692L424.414 88.0692ZM425.286 88.4741C424.855 89.4074 425.636 90.4485 426.652 90.2965L426.654 90.2962L426.654 90.2962C427.694 90.144 428.124 88.8945 427.413 88.1361L427.412 88.1347L427.412 88.1347C426.783 87.4582 425.672 87.6422 425.286 88.4741Z" fill="#FE5244"/>
<path d="M455.427 87.8065C454.563 86.877 453.042 87.1334 452.514 88.2713C451.921 89.5534 452.994 90.9798 454.387 90.7714C455.811 90.5631 456.404 88.8482 455.427 87.8065Z" fill="#FFCF2D"/>
<path fill-rule="evenodd" clip-rule="evenodd" d="M452.078 88.0692C452.748 86.626 454.678 86.2971 455.778 87.4788C457.019 88.8037 456.264 90.9827 454.457 91.2476C452.688 91.5116 451.324 89.7006 452.078 88.07L452.078 88.0692L452.078 88.0692ZM452.949 88.4741C452.518 89.4074 453.299 90.4485 454.315 90.2965L454.317 90.2962L454.317 90.2962C455.358 90.144 455.788 88.8945 455.077 88.1361L455.076 88.1347L455.076 88.1347C454.446 87.4582 453.336 87.6421 452.949 88.4741Z" fill="#FE5244"/>
<path d="M455.474 105.757C454.306 106.222 453.969 107.729 454.85 108.642C455.826 109.652 457.539 109.187 457.859 107.809C458.18 106.415 456.803 105.229 455.474 105.757Z" fill="#FFCF2D"/>
<path fill-rule="evenodd" clip-rule="evenodd" d="M455.297 105.31C456.987 104.638 458.735 106.145 458.328 107.916L458.328 107.917C457.921 109.669 455.744 110.257 454.505 108.976L454.505 108.975C453.385 107.813 453.815 105.9 455.297 105.31M457.392 107.7C457.625 106.682 456.62 105.818 455.652 106.203L455.652 106.204C454.798 106.543 454.555 107.642 455.196 108.307C455.91 109.045 457.159 108.703 457.392 107.7Z" fill="#FE5244"/>
<path d="M439.754 95.5321C438.537 95.8847 438.073 97.3431 438.841 98.3367C439.722 99.4426 441.466 99.1381 441.915 97.8079C442.379 96.4456 441.114 95.1314 439.754 95.5321Z" fill="#FFCF2D"/>
<path fill-rule="evenodd" clip-rule="evenodd" d="M439.619 95.0697C441.355 94.5595 442.958 96.2328 442.37 97.9615C441.798 99.6551 439.581 100.036 438.466 98.6356C438.465 98.6338 438.463 98.632 438.462 98.6302C437.488 97.3706 438.075 95.5179 439.619 95.0697ZM441.461 97.6518C441.8 96.6566 440.875 95.7024 439.889 95.9925L439.888 95.9931L439.888 95.9931C439 96.2502 438.66 97.3115 439.219 98.0389C439.866 98.8467 441.135 98.6183 441.46 97.6533L441.461 97.6518L441.461 97.6518Z" fill="#FE5244"/>
<path d="M437.433 139.926C436.184 140.07 435.48 141.448 436.088 142.554C436.777 143.788 438.554 143.772 439.21 142.522C439.882 141.256 438.858 139.766 437.433 139.926Z" fill="#FFCF2D"/>
<path fill-rule="evenodd" clip-rule="evenodd" d="M439.634 142.745C440.49 141.133 439.181 139.244 437.379 139.447L437.379 139.447L437.378 139.447C435.786 139.631 434.896 141.383 435.667 142.785L435.669 142.787C436.541 144.351 438.798 144.336 439.634 142.745ZM437.487 140.402C438.533 140.285 439.273 141.376 438.785 142.295L438.785 142.295L438.784 142.297C438.307 143.205 437.013 143.222 436.508 142.32C436.064 141.51 436.582 140.507 437.487 140.402Z" fill="#FE5244"/>
<path d="M423.714 173.309C422.465 173.453 421.761 174.831 422.369 175.937C423.057 177.171 424.834 177.155 425.491 175.905C426.163 174.639 425.139 173.149 423.714 173.309Z" fill="#FFCF2D"/>
<path fill-rule="evenodd" clip-rule="evenodd" d="M425.915 176.13C426.771 174.518 425.463 172.629 423.66 172.831L423.66 172.831L423.659 172.832C422.068 173.015 421.177 174.767 421.948 176.17L421.95 176.172C422.822 177.736 425.079 177.721 425.915 176.13ZM423.768 173.787C424.815 173.67 425.555 174.761 425.067 175.68L425.067 175.68L425.066 175.682C424.589 176.59 423.294 176.607 422.789 175.704C422.345 174.895 422.863 173.892 423.768 173.787Z" fill="#FE5244"/>
<path d="M428.324 108.769C427.107 109.122 426.643 110.58 427.411 111.574C428.292 112.68 430.037 112.375 430.485 111.045C430.949 109.699 429.701 108.384 428.324 108.769Z" fill="#FFCF2D"/>
<path fill-rule="evenodd" clip-rule="evenodd" d="M430.94 111.201C431.531 109.482 429.938 107.82 428.195 108.307L428.191 108.308C426.646 108.756 426.058 110.609 427.032 111.869C427.033 111.871 427.035 111.872 427.036 111.874C428.151 113.274 430.368 112.894 430.94 111.201ZM428.456 109.232C429.465 108.952 430.367 109.916 430.032 110.889L430.03 110.892C429.705 111.857 428.436 112.085 427.789 111.277C427.23 110.551 427.57 109.491 428.456 109.232Z" fill="#FE5244"/>
<path d="M441.579 117.745C440.362 118.098 439.898 119.556 440.666 120.55C441.547 121.655 443.292 121.351 443.74 120.021C444.204 118.659 442.956 117.344 441.579 117.745Z" fill="#FFCF2D"/>
<path fill-rule="evenodd" clip-rule="evenodd" d="M441.446 117.282C443.198 116.773 444.784 118.447 444.196 120.174C443.624 121.868 441.407 122.249 440.292 120.848C440.29 120.847 440.289 120.845 440.287 120.843C439.313 119.583 439.901 117.73 441.446 117.282ZM443.286 119.865C443.626 118.868 442.714 117.915 441.714 118.206L441.713 118.206C440.826 118.463 440.485 119.524 441.045 120.252C441.691 121.06 442.961 120.831 443.286 119.866L443.286 119.865L443.286 119.865Z" fill="#FE5244"/>
<path d="M412.877 117.359C413.678 116.382 413.245 114.907 412.029 114.539C410.684 114.122 409.403 115.372 409.803 116.718C410.204 118.096 411.965 118.465 412.877 117.359Z" fill="#FFCF2D"/>
<path fill-rule="evenodd" clip-rule="evenodd" d="M412.168 114.079C413.717 114.55 414.261 116.427 413.247 117.665L413.246 117.666L413.246 117.666C412.087 119.071 409.85 118.6 409.342 116.854C408.831 115.133 410.466 113.553 412.168 114.079ZM411.886 114.998C410.9 114.693 409.974 115.612 410.263 116.582L410.263 116.585C410.557 117.594 411.84 117.86 412.505 117.054C413.092 116.337 412.772 115.267 411.888 114.999L411.886 114.998Z" fill="#FE5244"/>
<path d="M473.564 117.408C474.365 116.43 473.932 114.956 472.716 114.587C471.371 114.171 470.09 115.421 470.49 116.767C470.875 118.145 472.652 118.514 473.564 117.408Z" fill="#FFCF2D"/>
<path fill-rule="evenodd" clip-rule="evenodd" d="M472.857 114.128C474.406 114.599 474.95 116.476 473.936 117.713L473.935 117.715L473.935 117.715C472.78 119.115 470.522 118.655 470.03 116.901C469.522 115.18 471.155 113.602 472.857 114.128ZM472.574 115.047C471.589 114.742 470.663 115.661 470.952 116.63C470.952 116.633 470.953 116.636 470.954 116.638C471.232 117.637 472.525 117.913 473.194 117.103C473.78 116.386 473.461 115.316 472.577 115.048L472.574 115.047Z" fill="#FE5244"/>
<path d="M458.164 182.379C458.964 181.401 458.532 179.927 457.315 179.558C455.971 179.141 454.69 180.391 455.09 181.738C455.474 183.1 457.251 183.469 458.164 182.379Z" fill="#FFCF2D"/>
<path fill-rule="evenodd" clip-rule="evenodd" d="M457.456 179.099C459.004 179.569 459.548 181.446 458.535 182.684L458.532 182.688C457.378 184.067 455.122 183.612 454.629 181.872C454.12 180.151 455.754 178.573 457.456 179.099ZM457.173 180.018C456.187 179.712 455.262 180.631 455.55 181.601L455.552 181.608C455.829 182.589 457.123 182.87 457.794 182.073C458.379 181.355 458.059 180.286 457.176 180.019L457.173 180.018Z" fill="#FE5244"/>
<path d="M445.389 80.95C445.037 80.9661 444.685 80.9821 444.317 80.9981L428.692 81.9597C424.706 82.2001 420.896 83.2739 417.438 85.0528L412.636 70.661L434.039 54.9551L445.389 80.95Z" fill="#E57281"/>
<path d="M417.374 84.8288C421.825 82.8095 425.379 79.2196 427.396 74.7642L435.176 57.5357L434.039 54.9395L412.636 70.6454L417.374 84.8288Z" fill="#9A3B82"/>
<path d="M435.415 56.3975C435.415 57.8879 434.807 59.2342 433.83 60.2118C432.854 61.1894 431.509 61.7984 430.02 61.7984H425.314C423.457 69.0263 416.269 73.9785 408.537 72.6163L404.999 71.9912C401.125 71.3021 398.484 67.6801 399.028 63.7857L403.174 42.9993C403.895 38.56 408.457 35.8515 412.699 37.374L419.567 40.1306C423.281 41.4127 425.778 44.9065 425.778 48.833V50.8363L430.02 50.9965C432.998 50.9965 435.415 53.4165 435.415 56.3975Z" fill="#E57281"/>
<path fill-rule="evenodd" clip-rule="evenodd" d="M431.173 54.106C429.329 54.106 427.843 55.5934 427.843 57.4395C427.843 57.6608 427.664 57.8402 427.443 57.8402C427.222 57.8402 427.043 57.6608 427.043 57.4395C427.043 55.1508 428.887 53.3047 431.173 53.3047C431.394 53.3047 431.573 53.4841 431.573 53.7053C431.573 53.9266 431.394 54.106 431.173 54.106Z" fill="#9A3B82"/>
<path fill-rule="evenodd" clip-rule="evenodd" d="M405.079 47.3753C405.079 47.154 405.258 46.9746 405.479 46.9746L405.479 47.3753C405.479 46.9746 405.48 46.9746 405.48 46.9746L405.48 46.9746L405.481 46.9746L405.485 46.9746L405.495 46.9748C405.504 46.9749 405.515 46.9751 405.53 46.9756C405.56 46.9765 405.601 46.9783 405.654 46.9817C405.76 46.9886 405.911 47.0022 406.099 47.029C406.473 47.0824 406.994 47.1886 407.593 47.4001C408.793 47.8237 410.306 48.6706 411.563 50.357C411.695 50.5343 411.659 50.7854 411.482 50.9177C411.305 51.05 411.054 51.0136 410.922 50.8362C409.777 49.3013 408.409 48.5375 407.327 48.1558C406.786 47.9646 406.317 47.8695 405.986 47.8223C405.82 47.7987 405.69 47.7871 405.602 47.7814C405.559 47.7785 405.526 47.7772 405.505 47.7765C405.495 47.7762 405.487 47.7761 405.483 47.776L405.479 47.7759C405.479 47.7759 405.478 47.7759 405.478 47.7759L405.479 47.7759" fill="#9A3B82"/>
<path d="M407.714 53.3728C407.883 52.441 407.667 51.6214 407.233 51.5423C406.798 51.4632 406.308 52.1544 406.139 53.0862C405.97 54.0181 406.185 54.8376 406.62 54.9167C407.055 54.9958 407.545 54.3046 407.714 53.3728Z" fill="#9A3B82"/>
<path d="M430.021 50.9958C432.999 50.9958 435.416 53.4158 435.416 56.3968C435.416 56.4128 435.416 56.4448 435.416 56.4769C437.817 52.7748 443.708 43.3512 443.708 40.1619C443.708 35.8829 438.377 31.6038 432.855 33.559C433.223 33.2866 433.607 32.9981 434.007 32.6936C436.136 31.0269 437.257 29.7768 437.433 28.8793C437.497 28.5588 437.449 28.2703 437.289 28.0459C436.649 27.1324 435.944 26.7318 435.192 26.86C434.087 27.0363 432.951 28.3985 431.814 30.8986C431.302 32.0365 430.902 33.1584 430.677 33.8475C430.229 31.1711 428.068 22.3085 418.783 23.6707C415.581 24.1355 414.077 25.4657 413.66 26.9241C411.003 24.8406 407.449 23.2059 404.503 24.7605C399.413 27.4369 400.037 31.8282 402.983 34.9373C400.197 34.8892 398.244 35.7066 398.244 38.0625C398.244 40.226 400.469 41.2678 403.527 41.6845C406.585 42.1011 410.507 41.8768 413.9 41.4921C416.318 41.2197 418.495 40.8831 419.888 40.6427C418.959 42.5499 418.591 44.1846 418.671 45.5629C418.815 48.4156 420.88 50.0984 423.794 50.6913C424.418 50.8195 425.09 50.8997 425.779 50.9317L430.021 50.9958ZM435.288 27.501C435.336 27.485 435.384 27.485 435.448 27.485C435.896 27.485 436.328 27.8055 436.761 28.4145C436.793 28.4786 436.841 28.5748 436.809 28.7511C436.553 30.0492 433.271 32.5173 431.366 33.8155C432.118 31.6038 433.703 27.7735 435.288 27.501Z" fill="#FFCF2D"/>
<path d="M385.645 173.759H283.19C280.661 173.759 279.14 170.97 280.485 168.839L294.124 147.395C295.901 144.607 298.959 142.924 302.257 142.924H371.606L385.645 173.759Z" fill="#E57281"/>
<path d="M304.514 142.94L312.678 129.478C313.158 128.677 314.039 128.18 314.967 128.18C317.064 128.18 318.345 130.471 317.257 132.266L310.773 142.94H304.514Z" fill="#FE5244"/>
<path d="M385.645 173.759H362.609C362.561 173.711 362.497 173.647 362.449 173.599C356.846 167.829 354.461 159.079 357.614 150.649L360.896 142.924H371.606L385.645 173.759Z" fill="#9A3B82"/>
<path d="M297.662 159.367H284.823C283.959 159.367 283.158 159.832 282.726 160.585L281.365 162.957C280.453 164.56 281.605 166.563 283.462 166.563H293.788C295.581 166.563 297.246 165.634 298.19 164.095L299.295 162.284C300.063 161.002 299.151 159.367 297.662 159.367Z" fill="#E57281"/>
<path d="M294.349 166.562H281.51C280.646 166.562 279.845 167.027 279.413 167.781L278.052 170.152C277.14 171.755 278.292 173.758 280.149 173.758H290.475C292.268 173.758 293.933 172.829 294.877 171.29L295.982 169.479C296.766 168.197 295.838 166.562 294.349 166.562Z" fill="#E57281"/>
<path d="M301.329 152.076H288.49C287.625 152.076 286.825 152.541 286.393 153.294L285.032 155.666C284.119 157.269 285.272 159.272 287.129 159.272H297.455C299.248 159.272 300.912 158.343 301.857 156.804L302.961 154.993C303.746 153.711 302.817 152.076 301.329 152.076Z" fill="#E57281"/>
<path fill-rule="evenodd" clip-rule="evenodd" d="M282.38 160.386C282.883 159.509 283.816 158.967 284.824 158.967H297.663C299.468 158.967 300.565 160.946 299.639 162.49L299.638 162.492L298.533 164.304L298.532 164.305C297.515 165.962 295.721 166.964 293.789 166.964H283.463C281.298 166.964 279.954 164.628 281.018 162.759L281.019 162.758L282.38 160.386ZM283.074 160.785C283.074 160.785 283.074 160.785 283.074 160.785L281.714 163.156C281.714 163.156 281.714 163.156 281.714 163.156C280.953 164.492 281.914 166.163 283.463 166.163H293.789C295.442 166.163 296.978 165.306 297.85 163.886C297.85 163.886 297.85 163.886 297.85 163.885L298.953 162.078C298.953 162.078 298.953 162.077 298.953 162.077C299.563 161.058 298.835 159.768 297.663 159.768H284.824C284.103 159.768 283.435 160.156 283.074 160.785Z" fill="#9A3B82"/>
<path fill-rule="evenodd" clip-rule="evenodd" d="M279.065 167.581C279.569 166.704 280.501 166.162 281.51 166.162H294.348C296.147 166.162 297.272 168.137 296.323 169.689L295.218 171.499L295.218 171.5C294.2 173.157 292.407 174.159 290.474 174.159H280.149C277.984 174.159 276.64 171.823 277.704 169.954L277.705 169.953L279.065 167.581ZM279.759 167.98C279.759 167.98 279.759 167.98 279.759 167.98L278.399 170.351C278.399 170.351 278.399 170.351 278.399 170.352C277.639 171.688 278.6 173.358 280.149 173.358H290.474C292.128 173.358 293.664 172.501 294.535 171.081C294.536 171.081 294.536 171.081 294.536 171.081L295.64 169.27C296.26 168.257 295.527 166.963 294.348 166.963H281.51C280.789 166.963 280.121 167.351 279.759 167.98Z" fill="#9A3B82"/>
<path fill-rule="evenodd" clip-rule="evenodd" d="M286.045 153.093C286.549 152.216 287.481 151.674 288.49 151.674H301.328C303.127 151.674 304.252 153.649 303.303 155.201L302.198 157.011L302.198 157.012C301.18 158.669 299.387 159.671 297.454 159.671H287.129C284.964 159.671 283.62 157.335 284.684 155.466L284.685 155.465L286.045 153.093ZM286.739 153.492C286.739 153.492 286.739 153.492 286.739 153.492L285.379 155.863C285.379 155.863 285.379 155.863 285.379 155.863C284.619 157.2 285.58 158.87 287.129 158.87H297.454C299.108 158.87 300.644 158.013 301.515 156.593C301.516 156.593 301.516 156.593 301.516 156.592L302.62 154.782C303.24 153.769 302.507 152.475 301.328 152.475H288.49C287.769 152.475 287.101 152.863 286.739 153.492Z" fill="#9A3B82"/>
<path d="M319.915 162.796C316.056 162.796 312.343 161.402 309.429 158.853L304.562 154.59H300.08L298.927 155.824C296.862 158.036 294.317 159.302 291.291 159.302H289.146C288.026 159.302 287.337 158.052 287.946 157.107L293.34 148.645H319.931V162.796H319.915Z" fill="#E57281"/>
<path fill-rule="evenodd" clip-rule="evenodd" d="M293.555 148.307C293.742 148.426 293.796 148.674 293.677 148.86L288.283 157.322L288.282 157.324C287.847 158 288.339 158.902 289.146 158.902H291.291C294.192 158.902 296.635 157.708 298.634 155.552L298.635 155.551L299.906 154.19H304.712L309.692 158.552C309.692 158.552 309.692 158.552 309.692 158.552M304.412 154.991L309.165 159.155L309.165 159.156C312.136 161.751 315.959 163.197 319.914 163.197C320.135 163.197 320.314 163.018 320.314 162.796C320.314 162.575 320.135 162.396 319.914 162.396C316.154 162.396 312.517 161.021 309.692 158.552M304.412 154.991H300.253L299.22 156.097C299.22 156.097 299.22 156.098 299.22 156.098C297.089 158.397 294.441 159.703 291.291 159.703H289.146C287.712 159.703 286.828 158.105 287.608 156.891C287.608 156.89 287.609 156.89 287.609 156.89L293.003 148.429C293.122 148.243 293.369 148.188 293.555 148.307" fill="#9A3B82"/>
<path d="M428.004 143.788L403.559 171.129C398.42 176.883 391.072 180.168 383.356 180.168C368.116 180.168 357.567 164.943 362.913 150.647L391.953 82.3424L382.14 76.8453C380.747 75.7555 380.075 73.9766 380.379 72.2457L382.044 61.0112C382.556 58.511 385.101 56.5558 387.583 55.9789L399.077 53.3826C400.053 53.1582 400.95 53.9916 400.79 54.9692L399.125 63.6395C398.468 67.8705 401.318 71.5245 405.544 72.2457C409.002 72.8387 411.435 76.3165 411.115 79.8102L403.287 128.691C403.271 128.723 411.291 141.24 428.004 143.788Z" fill="#E57281"/>
<path fill-rule="evenodd" clip-rule="evenodd" d="M409.319 91.034C409.538 91.0677 409.688 91.2723 409.654 91.491L400.209 152.888C400.175 153.107 399.971 153.257 399.752 153.223C399.534 153.19 399.384 152.985 399.418 152.767L408.863 91.369C408.897 91.1503 409.101 91.0003 409.319 91.034Z" fill="#9A3B82"/>
<path fill-rule="evenodd" clip-rule="evenodd" d="M389.692 61.4279C389.913 61.4351 390.087 61.6202 390.079 61.8413L389.951 65.8147C389.951 65.8149 389.951 65.8151 389.951 65.8153C389.908 67.2876 390.783 68.5419 391.984 68.8912L406.68 71.8689C406.896 71.9128 407.036 72.1242 406.993 72.3411C406.949 72.558 406.738 72.6982 406.521 72.6543L391.794 69.6703L391.779 69.6661C390.169 69.2083 389.099 67.5822 389.151 65.7912L389.151 65.79L389.279 61.8155C389.287 61.5943 389.471 61.4208 389.692 61.4279Z" fill="#9A3B82"/>
<path fill-rule="evenodd" clip-rule="evenodd" d="M398.904 53.3619C399.984 53.1034 400.978 54.034 400.783 55.1356L399.264 63.8306C398.754 67.5047 401.245 70.9229 404.901 71.5779L416.659 73.1474C416.878 73.1766 417.032 73.3781 417.003 73.5975C416.973 73.8168 416.772 73.9709 416.553 73.9417L404.778 72.3699L404.77 72.3684C400.685 71.6418 397.898 67.8222 398.472 63.7128L398.473 63.7061L399.995 54.9964C400.089 54.4637 399.611 54.0163 399.09 54.1414L399.089 54.1417L387.081 56.9466C386.866 56.9969 386.651 56.863 386.6 56.6475C386.55 56.432 386.684 56.2166 386.899 56.1663L398.903 53.3622C398.904 53.3621 398.904 53.362 398.904 53.3619Z" fill="#9A3B82"/>
<path fill-rule="evenodd" clip-rule="evenodd" d="M442.289 128.629L410.464 164.08L409.75 163.437L441.575 127.986L442.289 128.629Z" fill="#FE5244"/>
<path fill-rule="evenodd" clip-rule="evenodd" d="M391.889 82.3597C391.889 82.1384 392.068 81.959 392.289 81.959H397.908C398.129 81.959 398.308 82.1384 398.308 82.3597C398.308 82.5809 398.129 82.7603 397.908 82.7603H392.289C392.068 82.7603 391.889 82.5809 391.889 82.3597Z" fill="#9A3B82"/>
<path fill-rule="evenodd" clip-rule="evenodd" d="M394.822 55.1873C395.396 55.5782 395.821 56.2205 395.811 57.026L395.699 65.3897C395.698 66.4282 394.955 67.3421 393.922 67.3421H392.161C390.536 67.3421 389.296 65.8668 389.296 64.1689V62.8868C389.296 62.6655 389.475 62.4861 389.696 62.4861C389.917 62.4861 390.096 62.6655 390.096 62.8868V64.1689C390.096 65.516 391.065 66.5408 392.161 66.5408H393.922C394.425 66.5408 394.899 66.0781 394.899 65.3869V65.3842L395.011 57.0161C395.011 57.0161 395.011 57.016 395.011 57.0159C395.017 56.5234 394.762 56.1161 394.372 55.8498C393.975 55.5793 393.465 55.4762 393.024 55.5834C392.809 55.6356 392.593 55.5036 392.541 55.2886C392.489 55.0736 392.621 54.8569 392.835 54.8047C393.515 54.6395 394.254 54.8007 394.822 55.1873Z" fill="#9A3B82"/>
<path fill-rule="evenodd" clip-rule="evenodd" d="M395.41 62.4863C395.632 62.4863 395.811 62.6657 395.811 62.887V64.1691C395.811 65.5162 396.779 66.541 397.876 66.541H398.996C399.217 66.541 399.397 66.7204 399.397 66.9417C399.397 67.163 399.217 67.3424 398.996 67.3424H397.876C396.251 67.3424 395.01 65.867 395.01 64.1691V62.887C395.01 62.6657 395.189 62.4863 395.41 62.4863Z" fill="#9A3B82"/>
<path fill-rule="evenodd" clip-rule="evenodd" d="M519.832 419.918L501.246 265.07L502.2 264.955L520.786 419.803L519.832 419.918Z" fill="#66B0F0"/>
<path fill-rule="evenodd" clip-rule="evenodd" d="M402.105 419.803L420.691 264.955L421.645 265.07L403.059 419.918L402.105 419.803Z" fill="#66B0F0"/>
<path fill-rule="evenodd" clip-rule="evenodd" d="M513.922 367.167H408.954V366.205H513.922V367.167Z" fill="#66B0F0"/>
<path d="M410.458 265.494H511.472C512.817 265.494 513.905 264.404 513.905 263.058V259.756C513.905 258.41 512.817 257.32 511.472 257.32H410.458C409.113 257.32 408.025 258.41 408.025 259.756V263.058C408.025 264.404 409.113 265.494 410.458 265.494Z" fill="white"/>
<path fill-rule="evenodd" clip-rule="evenodd" d="M407.545 259.757C407.545 258.145 408.849 256.84 410.458 256.84H511.472C513.082 256.84 514.386 258.145 514.386 259.757V263.058C514.386 264.67 513.082 265.975 511.472 265.975H410.458C408.849 265.975 407.545 264.67 407.545 263.058V259.757ZM410.458 257.801C409.379 257.801 408.505 258.676 408.505 259.757V263.058C408.505 264.139 409.379 265.013 410.458 265.013H511.472C512.552 265.013 513.425 264.139 513.425 263.058V259.757C513.425 258.676 512.552 257.801 511.472 257.801H410.458Z" fill="#FFCF2D"/>
<path d="M242.369 148.309L226.905 180.169H180.176L198.954 148.309H242.369Z" fill="white"/>
<path fill-rule="evenodd" clip-rule="evenodd" d="M198.726 147.908H243.009L227.156 180.57H179.476L198.726 147.908ZM199.183 148.71L180.877 179.769H226.655L241.73 148.71H199.183Z" fill="#3FB1B5"/>
<path fill-rule="evenodd" clip-rule="evenodd" d="M213.724 154.541C214.081 154.769 214.434 154.996 214.787 155.211C215.358 155.558 216.035 155.669 216.817 155.608C217.603 155.547 218.469 155.314 219.393 155.001C219.97 154.806 220.551 154.586 221.142 154.362C221.505 154.225 221.872 154.086 222.245 153.95C223.209 153.599 224.19 153.278 225.137 153.107C227.691 152.638 229.525 153.313 230.722 154.123C231.316 154.526 231.749 154.958 232.034 155.292C232.177 155.459 232.284 155.602 232.355 155.705C232.391 155.756 232.419 155.798 232.438 155.828C232.447 155.842 232.455 155.854 232.46 155.863C232.463 155.867 232.465 155.871 232.466 155.874L232.468 155.877L232.469 155.878L232.469 155.879C232.47 155.879 232.47 155.879 232.124 156.082C231.779 156.284 231.779 156.284 231.779 156.285L231.777 156.281C231.776 156.279 231.774 156.277 231.772 156.274C231.77 156.27 231.767 156.265 231.763 156.258C231.75 156.238 231.728 156.205 231.699 156.164C231.641 156.08 231.55 155.958 231.426 155.813C231.178 155.523 230.797 155.142 230.273 154.787C229.233 154.083 227.609 153.468 225.281 153.896L225.279 153.896C224.402 154.054 223.474 154.356 222.518 154.703C222.167 154.832 221.808 154.967 221.447 155.103C220.844 155.332 220.237 155.561 219.65 155.76C218.705 156.08 217.765 156.338 216.879 156.407C215.989 156.476 215.129 156.357 214.371 155.895C213.982 155.659 213.607 155.418 213.239 155.183C212.313 154.589 211.43 154.024 210.487 153.615C209.201 153.055 207.847 152.812 206.234 153.262C204.55 153.733 203.082 154.42 202.033 154.991C201.51 155.277 201.092 155.532 200.807 155.715C200.664 155.807 200.555 155.881 200.481 155.931C200.445 155.956 200.417 155.975 200.399 155.988C200.39 155.994 200.383 155.999 200.379 156.002L200.375 156.005L200.374 156.006C200.374 156.006 200.374 156.006 200.139 155.681C199.905 155.356 199.905 155.356 199.905 155.356L199.906 155.356L199.907 155.354L199.914 155.35C199.92 155.346 199.928 155.34 199.938 155.333C199.959 155.318 199.99 155.297 200.029 155.269C200.109 155.215 200.225 155.137 200.375 155.041C200.674 154.849 201.108 154.583 201.651 154.287C202.735 153.697 204.261 152.982 206.019 152.491C207.847 151.98 209.392 152.265 210.806 152.88C211.812 153.317 212.777 153.935 213.724 154.541Z" fill="#3FB1B5"/>
<path fill-rule="evenodd" clip-rule="evenodd" d="M212.123 159.51C212.48 159.738 212.833 159.965 213.186 160.179C213.757 160.527 214.434 160.638 215.216 160.577C216.001 160.516 216.868 160.283 217.792 159.97C218.369 159.774 218.95 159.555 219.541 159.331C219.904 159.194 220.271 159.055 220.644 158.919C221.608 158.568 222.589 158.247 223.536 158.076C226.09 157.607 227.924 158.282 229.121 159.092C229.715 159.494 230.148 159.927 230.433 160.261C230.576 160.428 230.683 160.57 230.754 160.673C230.79 160.725 230.818 160.767 230.837 160.796C230.846 160.811 230.853 160.823 230.859 160.832C230.861 160.836 230.864 160.84 230.865 160.842L230.867 160.846L230.868 160.847L230.868 160.848C230.868 160.848 230.869 160.848 230.523 161.051C230.178 161.253 230.178 161.253 230.178 161.253L230.176 161.249C230.175 161.248 230.173 161.245 230.171 161.242C230.169 161.238 230.166 161.233 230.162 161.227C230.149 161.206 230.127 161.174 230.098 161.132C230.04 161.049 229.949 160.927 229.825 160.782C229.577 160.491 229.196 160.111 228.672 159.756C227.632 159.052 226.008 158.436 223.68 158.864L223.678 158.865C222.801 159.023 221.873 159.324 220.917 159.672C220.566 159.8 220.207 159.936 219.846 160.072C219.243 160.3 218.636 160.53 218.049 160.729C217.104 161.049 216.164 161.307 215.278 161.376C214.388 161.445 213.528 161.326 212.77 160.864C212.381 160.627 212.006 160.387 211.638 160.152C210.712 159.558 209.829 158.993 208.886 158.583C207.6 158.024 206.246 157.78 204.633 158.231C202.949 158.702 201.481 159.389 200.432 159.96C199.909 160.245 199.491 160.501 199.206 160.684C199.063 160.776 198.953 160.849 198.88 160.899C198.844 160.925 198.816 160.944 198.798 160.957C198.789 160.963 198.782 160.968 198.778 160.971L198.773 160.974L198.773 160.975C198.773 160.975 198.773 160.975 198.538 160.65C198.304 160.325 198.304 160.325 198.304 160.325L198.305 160.325L198.306 160.323L198.313 160.318C198.319 160.314 198.327 160.309 198.337 160.301C198.358 160.287 198.389 160.265 198.428 160.238C198.508 160.184 198.624 160.106 198.773 160.01C199.073 159.817 199.507 159.552 200.05 159.256C201.134 158.666 202.659 157.951 204.418 157.459C206.246 156.948 207.79 157.234 209.205 157.848C210.211 158.285 211.176 158.903 212.123 159.51Z" fill="#3FB1B5"/>
<path d="M259.947 291.297C259.947 295.577 248.084 299.038 233.228 299.038C218.372 299.038 206.862 295.577 206.862 291.297C206.862 287.018 218.372 283.557 233.228 283.557C248.084 283.557 259.947 287.034 259.947 291.297Z" fill="#FE5244"/>
<path d="M253.111 286.089V341.38L251.43 333.399C249.621 324.809 242.049 318.671 233.277 318.671C230.635 318.671 228.042 319.232 225.689 320.289C225.608 320.321 225.528 320.369 225.432 320.402L219.269 297.9L215.843 285.384C220.534 284.246 226.601 283.557 233.229 283.557C241.105 283.557 248.197 284.534 253.111 286.089Z" fill="#A0505A"/>
<path d="M253.111 286.089V296.506C248.197 298.06 241.105 299.038 233.229 299.038C228.122 299.038 223.351 298.621 219.269 297.916L215.843 285.399C220.534 284.262 226.601 283.572 233.229 283.572C241.105 283.556 248.197 284.534 253.111 286.089Z" fill="#73325A"/>
<path d="M251.925 339.761C252.357 339.889 256.424 341.027 260.026 341.027C261.979 341.027 263.788 340.691 264.812 339.665C265.693 338.783 265.901 337.501 265.437 335.883C265.02 334.44 264.22 333.543 263.051 333.222C260.906 332.645 257.928 334.248 255.575 335.931C259.241 331.475 262.859 325.818 261.514 322.116C261.034 320.802 259.946 319.92 258.585 319.76C257.448 319.632 256.392 320.032 255.895 320.786C253.59 324.295 251.701 338.703 251.621 339.312L251.925 339.761ZM256.568 321.234C256.856 320.802 257.464 320.545 258.169 320.545C258.281 320.545 258.393 320.545 258.505 320.561C259.017 320.625 260.25 320.914 260.778 322.388C261.13 323.366 261.258 325.161 259.834 328.174C258.489 331.027 256.055 334.376 252.598 338.174C253.11 334.52 254.743 324.007 256.568 321.234ZM264.252 339.104C263.195 340.162 260.794 340.482 257.288 340.033C255.447 339.793 253.734 339.408 252.822 339.168C253.51 338.559 254.791 337.453 256.28 336.427C259.129 334.456 261.402 333.607 262.859 334.008C263.74 334.248 264.332 334.937 264.684 336.107C265.068 337.453 264.924 338.431 264.252 339.104Z" fill="#FFCF2D"/>
<path d="M219.43 324.888L215.732 329.039C211.538 333.751 210.849 340.61 214.035 346.059L230.316 374.009C233.501 379.474 239.345 382.824 245.652 382.824H252.392C257.274 382.824 260.908 378.336 259.9 373.56L251.415 333.414C249.606 324.824 242.034 318.686 233.261 318.686C227.995 318.67 222.952 320.929 219.43 324.888Z" fill="white"/>
<path fill-rule="evenodd" clip-rule="evenodd" d="M219.13 324.621C222.728 320.578 227.879 318.269 233.261 318.285C242.222 318.286 249.957 324.556 251.805 333.331M251.805 333.332L260.29 373.478C261.351 378.503 257.527 383.224 252.39 383.224H245.651C239.201 383.224 233.226 379.799 229.969 374.211L213.689 346.261C210.415 340.662 211.123 333.614 215.432 328.772L219.13 324.622M233.259 319.087C228.107 319.071 223.174 321.281 219.728 325.155L219.727 325.155L216.03 329.306C216.03 329.306 216.03 329.306 216.029 329.306C211.951 333.888 211.281 340.558 214.379 345.857L214.38 345.857L230.66 373.807C230.66 373.807 230.66 373.807 230.66 373.807C233.774 379.149 239.486 382.423 245.651 382.423H252.39C257.019 382.423 260.463 378.17 259.507 373.643L251.022 333.497L251.022 333.497C249.252 325.092 241.844 319.087 233.26 319.087L233.259 319.087Z" fill="#3FB1B5"/>
<path d="M232.028 336.972L253.047 377.743C254.04 379.586 255.272 380.772 256.681 381.525C255.465 382.343 253.992 382.839 252.391 382.839H245.651C239.328 382.839 233.485 379.474 230.315 374.025L214.035 346.059C213.378 344.921 212.882 343.735 212.546 342.501C210.24 333.927 219.99 327.196 227.306 332.228C228.97 333.366 230.603 334.904 232.028 336.972Z" fill="#3FB1B5"/>
<path d="M232.076 337.069H212.673C212.769 336.764 212.881 336.476 213.01 336.203H231.451C231.643 336.46 231.836 336.716 232.028 336.988L232.076 337.069Z" fill="white"/>
<path d="M234.925 342.582H212.577C212.577 342.55 212.561 342.518 212.561 342.502C212.497 342.246 212.433 341.973 212.385 341.717H234.493L234.925 342.582Z" fill="white"/>
<path d="M237.775 348.11H215.234L214.722 347.229H237.326L237.775 348.11Z" fill="white"/>
<path d="M240.624 353.639H218.452L217.94 352.758H240.176L240.624 353.639Z" fill="white"/>
<path d="M243.473 359.152H221.669L221.157 358.287H243.025L243.473 359.152Z" fill="white"/>
<path d="M246.323 364.682H224.887L224.375 363.801H245.859L246.323 364.682Z" fill="white"/>
<path d="M249.172 370.212H228.105L227.593 369.33H248.708L249.172 370.212Z" fill="white"/>
<path d="M252.006 375.725H231.451C231.243 375.436 231.035 375.148 230.843 374.859H251.558L252.006 375.725Z" fill="white"/>
<path d="M256.216 381.254H238.351C237.775 380.998 237.214 380.709 236.67 380.389H255.064C255.432 380.709 255.816 380.998 256.216 381.254Z" fill="white"/>
<path d="M194.375 290.159C194.231 294.39 182.241 297.82 167.481 297.82C152.721 297.82 140.731 294.406 140.586 290.159V256.84H194.375V290.159Z" fill="#73325A"/>
<path d="M190.805 295.688L190.725 299.646L189.956 338.286V337.164C189.956 327.244 181.92 319.198 172.011 319.198H170.922C165.864 319.198 161.301 321.17 157.923 324.343L155.57 308.413L154.113 298.556C158.051 299.213 162.614 299.582 167.464 299.582C177.454 299.566 186.146 297.995 190.805 295.688Z" fill="#A0505A"/>
<path d="M190.804 295.688L190.724 299.646C184.769 303.877 166.375 309.086 155.585 308.396L154.128 298.54C158.067 299.181 162.629 299.566 167.479 299.566C177.453 299.566 186.145 297.995 190.804 295.688Z" fill="#73325A"/>
<path d="M172.829 383.353H175.806C183.619 383.353 189.958 377.007 189.958 369.186V337.165C189.958 327.245 181.922 319.199 172.012 319.199H170.924C159.398 319.199 150.513 329.376 152.066 340.819L155.828 368.513C156.996 377.007 164.248 383.353 172.829 383.353Z" fill="white"/>
<path fill-rule="evenodd" clip-rule="evenodd" d="M151.669 340.873C150.083 329.19 159.155 318.799 170.923 318.799H172.012C182.142 318.799 190.358 327.024 190.358 337.165V369.186C190.358 377.228 183.839 383.754 175.806 383.754H172.828C164.047 383.754 156.627 377.26 155.431 368.568L151.669 340.873ZM152.462 340.765L156.224 368.458C157.365 376.754 164.448 382.953 172.828 382.953H175.806C183.397 382.953 189.557 376.786 189.557 369.186V337.165C189.557 327.466 181.7 319.6 172.012 319.6H170.923C159.639 319.6 150.942 329.563 152.462 340.765Z" fill="#3FB1B5"/>
<path d="M185.508 379.49C182.979 381.878 179.553 383.353 175.807 383.353H172.829C164.249 383.353 156.997 377.006 155.844 368.512L152.082 340.819C152.018 340.29 151.954 339.761 151.938 339.248C152.899 333.11 158.197 328.414 164.601 328.414C167.754 328.414 170.668 329.568 172.925 331.491C175.182 333.414 176.767 336.123 177.264 339.248L182.21 373.048C182.578 375.564 183.763 377.808 185.508 379.49Z" fill="#3FB1B5"/>
<path d="M175.773 334.969H153.409C153.569 334.664 153.761 334.376 153.953 334.104H175.245C175.437 334.376 175.613 334.664 175.773 334.969Z" fill="white"/>
<path d="M177.439 340.483H152.033C152.001 340.194 151.969 339.906 151.953 339.617H177.311L177.439 340.483Z" fill="white"/>
<path d="M178.255 346.012H152.785L152.657 345.146H178.127L178.255 346.012Z" fill="white"/>
<path d="M179.055 351.54H153.537L153.409 350.658H178.927L179.055 351.54Z" fill="white"/>
<path d="M179.871 357.053H154.29L154.162 356.188H179.743L179.871 357.053Z" fill="white"/>
<path d="M180.672 362.582H155.026L154.914 361.717H180.544L180.672 362.582Z" fill="white"/>
<path d="M181.488 368.112H155.778L155.666 367.23H181.36L181.488 368.112Z" fill="white"/>
<path d="M182.305 373.625H157.363C157.219 373.337 157.091 373.048 156.979 372.76H182.16L182.208 373.048C182.24 373.241 182.272 373.433 182.305 373.625Z" fill="white"/>
<path d="M185.17 379.154H161.589C161.269 378.882 160.949 378.578 160.661 378.289H184.433C184.657 378.594 184.914 378.882 185.17 379.154Z" fill="white"/>
<path d="M206.014 116.976V143.965C204.846 140.904 195.593 141.337 185.411 145.199C176.687 148.516 170.139 153.068 169.179 156.225V118.242C169.179 106.944 175.214 96.8471 184.483 91.334C196.521 93.4335 206.014 103.931 206.014 116.976Z" fill="#FFCF2D"/>
<path d="M168.474 92.5527C160.277 98.2582 155.059 107.73 155.059 118.243V149.575H109.482L115.774 122.458C118.447 110.903 126.804 101.688 137.689 97.7613L168.474 92.5527Z" fill="#FFCF2D"/>
<path d="M260.651 226.661V289.565C260.651 285.286 248.084 281.824 233.228 281.824C218.372 281.824 206.334 285.286 206.334 289.565V259.419C206.334 258.009 205.181 256.855 203.772 256.855H122.065C97.4916 256.855 79.3219 233.953 84.8768 209.994L104.599 124.925C107.737 111.351 118.719 101.013 132.438 98.6736L137.689 97.7761C126.803 101.703 118.447 110.918 115.773 122.473L109.482 149.59H155.058V118.242C155.058 107.729 160.293 98.2409 168.473 92.5515L175.677 91.3335C177.166 91.077 178.623 90.9648 180.08 90.9648C180.272 90.9648 180.448 90.9648 180.64 90.9648C180.816 90.9648 180.992 90.9809 181.152 90.9809C181.184 90.9809 181.216 90.9809 181.248 90.9809C181.376 90.9809 181.52 90.9969 181.648 90.9969C181.664 90.9969 181.696 90.9969 181.712 90.9969C181.792 90.9969 181.873 91.0129 181.937 91.0129C182.081 91.0289 182.209 91.0289 182.353 91.045C182.513 91.061 182.689 91.077 182.849 91.0931C183.009 91.1091 183.153 91.1251 183.313 91.1411C183.345 91.1411 183.377 91.1572 183.425 91.1572C183.585 91.1732 183.762 91.2052 183.922 91.2213C183.938 91.2213 183.954 91.2213 183.954 91.2213C184.13 91.2533 184.306 91.2694 184.482 91.3014C175.213 96.8145 169.178 106.911 169.178 118.21V195.217H229.274C246.595 195.249 260.651 209.304 260.651 226.661Z" fill="#FE5244"/>
<path fill-rule="evenodd" clip-rule="evenodd" d="M169.908 91.5716C170.06 91.7896 170.006 92.0892 169.788 92.2408C161.699 97.8713 155.522 107.91 155.522 118.242V150.054H108.861L115.289 122.348M169.908 91.5716C169.757 91.3536 169.458 91.2997 169.24 91.4513L169.908 91.5716ZM169.24 91.4513C160.936 97.2317 154.562 107.547 154.562 118.242L169.24 91.4513ZM154.562 118.242V149.093V118.242ZM154.562 149.093H110.071H154.562Z" fill="white"/>
<path fill-rule="evenodd" clip-rule="evenodd" d="M215.544 225.012C215.747 225.183 215.773 225.487 215.601 225.689C209.928 232.414 206.814 240.942 206.814 249.756C206.814 250.021 206.599 250.236 206.334 250.236C206.069 250.236 205.854 250.021 205.854 249.756C205.854 240.715 209.047 231.967 214.868 225.069C215.039 224.866 215.342 224.841 215.544 225.012Z" fill="white"/>
<path d="M139.754 246.566C139.674 246.566 139.594 246.55 139.53 246.502L137.417 245.348C137.177 245.219 137.097 244.931 137.225 244.691C137.353 244.45 137.641 244.37 137.881 244.498L139.994 245.652C140.235 245.78 140.315 246.069 140.187 246.309C140.09 246.47 139.93 246.566 139.754 246.566ZM141.867 246.021C141.691 246.021 141.531 245.925 141.451 245.764C141.323 245.524 141.403 245.235 141.643 245.107L143.756 243.953C143.997 243.825 144.285 243.921 144.413 244.146C144.541 244.386 144.461 244.675 144.221 244.803L142.108 245.957C142.028 245.989 141.947 246.021 141.867 246.021ZM135.528 244.274C135.448 244.274 135.368 244.258 135.304 244.21L133.191 243.056C132.951 242.928 132.871 242.639 132.999 242.399C133.127 242.158 133.415 242.078 133.655 242.206L135.768 243.36C136.008 243.489 136.088 243.777 135.96 244.017C135.864 244.178 135.704 244.274 135.528 244.274ZM146.078 243.713C145.902 243.713 145.742 243.617 145.661 243.457C145.533 243.216 145.613 242.928 145.854 242.799L147.967 241.646C148.335 241.453 148.671 241.229 149.007 240.988C149.215 240.828 149.52 240.876 149.68 241.085C149.84 241.293 149.792 241.597 149.584 241.758C149.215 242.03 148.831 242.271 148.431 242.495L146.318 243.649C146.238 243.697 146.158 243.713 146.078 243.713ZM131.35 241.902C131.254 241.902 131.158 241.87 131.062 241.806C130.389 241.309 129.765 240.732 129.237 240.075C129.061 239.867 129.093 239.562 129.301 239.402C129.509 239.226 129.813 239.258 129.973 239.466C130.453 240.059 131.014 240.572 131.622 241.02C131.83 241.181 131.878 241.485 131.734 241.694C131.654 241.838 131.51 241.902 131.35 241.902ZM151.024 240.219C150.912 240.219 150.816 240.187 150.72 240.107C150.512 239.947 150.48 239.642 150.656 239.434C151.136 238.841 151.537 238.2 151.857 237.495C151.969 237.254 152.257 237.142 152.497 237.254C152.737 237.366 152.849 237.655 152.737 237.895C152.385 238.665 151.937 239.386 151.409 240.027C151.296 240.155 151.168 240.219 151.024 240.219ZM128.34 238.232C128.164 238.232 127.988 238.136 127.908 237.959C127.556 237.19 127.3 236.389 127.14 235.555C127.092 235.299 127.268 235.043 127.524 234.995C127.78 234.946 128.036 235.123 128.084 235.379C128.228 236.132 128.452 236.854 128.772 237.543C128.885 237.783 128.772 238.072 128.532 238.184C128.468 238.216 128.404 238.232 128.34 238.232ZM153.009 235.892C152.977 235.892 152.945 235.892 152.929 235.892C152.673 235.844 152.497 235.588 152.545 235.331C152.641 234.802 152.689 234.273 152.689 233.744V233.023C152.689 232.751 152.897 232.542 153.169 232.542C153.442 232.542 153.65 232.751 153.65 233.023V233.744C153.65 234.337 153.602 234.93 153.49 235.507C153.442 235.732 153.234 235.892 153.009 235.892ZM127.46 233.552C127.188 233.552 126.979 233.344 126.979 233.071V230.667C126.979 230.395 127.188 230.187 127.46 230.187C127.732 230.187 127.94 230.395 127.94 230.667V233.071C127.94 233.328 127.716 233.552 127.46 233.552ZM153.153 231.1C152.881 231.1 152.673 230.892 152.673 230.619V228.215C152.673 227.943 152.881 227.735 153.153 227.735C153.426 227.735 153.634 227.943 153.634 228.215V230.619C153.634 230.892 153.426 231.1 153.153 231.1ZM127.46 228.744C127.188 228.744 126.979 228.536 126.979 228.263V225.859C126.979 225.587 127.188 225.379 127.46 225.379C127.732 225.379 127.94 225.587 127.94 225.859V228.263C127.94 228.52 127.716 228.744 127.46 228.744ZM153.153 226.292C152.881 226.292 152.673 226.084 152.673 225.811V223.407C152.673 223.135 152.881 222.927 153.153 222.927C153.426 222.927 153.634 223.135 153.634 223.407V225.811C153.634 226.084 153.426 226.292 153.153 226.292ZM127.46 223.936C127.188 223.936 126.979 223.728 126.979 223.455V221.051C126.979 220.779 127.188 220.571 127.46 220.571C127.732 220.571 127.94 220.779 127.94 221.051V223.455C127.94 223.712 127.716 223.936 127.46 223.936ZM153.153 221.484C152.881 221.484 152.673 221.276 152.673 221.003V218.599C152.673 218.327 152.881 218.119 153.153 218.119C153.426 218.119 153.634 218.327 153.634 218.599V221.003C153.634 221.276 153.426 221.484 153.153 221.484ZM127.46 219.128C127.188 219.128 126.979 218.92 126.979 218.648V216.58H128.276C128.548 216.58 128.756 216.788 128.756 217.061C128.756 217.333 128.548 217.542 128.276 217.542H127.94V218.648C127.94 218.904 127.716 219.128 127.46 219.128ZM152.289 217.542H149.888C149.616 217.542 149.407 217.333 149.407 217.061C149.407 216.788 149.616 216.58 149.888 216.58H152.289C152.561 216.58 152.769 216.788 152.769 217.061C152.769 217.333 152.561 217.542 152.289 217.542ZM147.486 217.542H145.085C144.813 217.542 144.605 217.333 144.605 217.061C144.605 216.788 144.813 216.58 145.085 216.58H147.486C147.759 216.58 147.967 216.788 147.967 217.061C147.967 217.333 147.759 217.542 147.486 217.542ZM142.684 217.542H140.283C140.01 217.542 139.802 217.333 139.802 217.061C139.802 216.788 140.01 216.58 140.283 216.58H142.684C142.956 216.58 143.164 216.788 143.164 217.061C143.164 217.333 142.956 217.542 142.684 217.542ZM137.881 217.542H135.48C135.208 217.542 135 217.333 135 217.061C135 216.788 135.208 216.58 135.48 216.58H137.881C138.153 216.58 138.362 216.788 138.362 217.061C138.362 217.333 138.153 217.542 137.881 217.542ZM133.079 217.542H130.677C130.405 217.542 130.197 217.333 130.197 217.061C130.197 216.788 130.405 216.58 130.677 216.58H133.079C133.351 216.58 133.559 216.788 133.559 217.061C133.559 217.333 133.351 217.542 133.079 217.542Z" fill="white"/>
<path d="M94.4503 243.905C94.2742 243.905 94.1142 243.809 94.0341 243.649C93.9061 243.408 93.9861 243.12 94.2262 242.992L96.1793 241.918C96.2273 241.886 96.2753 241.87 96.3233 241.838C96.5475 241.71 96.8516 241.79 96.9797 242.014C97.1078 242.238 97.0277 242.543 96.8036 242.671C96.7556 242.703 96.7075 242.735 96.6435 242.751L94.6905 243.825C94.6104 243.889 94.5304 243.905 94.4503 243.905ZM98.5005 241.341C98.3724 241.341 98.2444 241.293 98.1483 241.181C97.9722 240.988 97.9882 240.684 98.1803 240.508C98.7406 239.995 99.2369 239.402 99.6691 238.777C99.8132 238.552 100.117 238.504 100.341 238.649C100.566 238.793 100.614 239.097 100.47 239.322C100.005 240.011 99.445 240.652 98.8367 241.229C98.7246 241.309 98.6126 241.341 98.5005 241.341ZM101.174 237.398C101.11 237.398 101.062 237.382 100.998 237.366C100.758 237.27 100.63 236.998 100.726 236.741C100.998 236.02 101.19 235.283 101.302 234.53C101.334 234.273 101.574 234.081 101.846 234.113C102.102 234.145 102.295 234.386 102.263 234.658C102.15 235.491 101.942 236.309 101.638 237.094C101.542 237.286 101.366 237.398 101.174 237.398ZM101.862 232.687C101.59 232.687 101.382 232.478 101.382 232.206V229.802C101.382 229.529 101.59 229.321 101.862 229.321C102.134 229.321 102.343 229.529 102.343 229.802V232.206C102.343 232.462 102.134 232.687 101.862 232.687ZM101.862 227.879C101.59 227.879 101.382 227.67 101.382 227.398V224.994C101.382 224.722 101.59 224.513 101.862 224.513C102.134 224.513 102.343 224.722 102.343 224.994V227.398C102.343 227.654 102.134 227.879 101.862 227.879ZM101.862 223.071C101.59 223.071 101.382 222.862 101.382 222.59V220.186C101.382 219.914 101.59 219.705 101.862 219.705C102.134 219.705 102.343 219.914 102.343 220.186V222.59C102.343 222.846 102.134 223.071 101.862 223.071ZM101.862 218.263C101.59 218.263 101.382 218.055 101.382 217.782V217.542H100.181C99.9093 217.542 99.7012 217.333 99.7012 217.061C99.7012 216.788 99.9093 216.58 100.181 216.58H102.343V217.782C102.343 218.038 102.134 218.263 101.862 218.263ZM97.7801 217.542H95.3788C95.1067 217.542 94.8986 217.333 94.8986 217.061C94.8986 216.788 95.1067 216.58 95.3788 216.58H97.7801C98.0523 216.58 98.2604 216.788 98.2604 217.061C98.2604 217.333 98.0363 217.542 97.7801 217.542ZM92.9776 217.542H90.5763C90.3041 217.542 90.096 217.333 90.096 217.061C90.096 216.788 90.3041 216.58 90.5763 216.58H92.9776C93.2497 216.58 93.4578 216.788 93.4578 217.061C93.4578 217.333 93.2337 217.542 92.9776 217.542ZM88.175 217.542H85.7737C85.5016 217.542 85.2935 217.333 85.2935 217.061C85.2935 216.788 85.5016 216.58 85.7737 216.58H88.175C88.4471 216.58 88.6553 216.788 88.6553 217.061C88.6553 217.333 88.4311 217.542 88.175 217.542Z" fill="white"/>
<path d="M206.013 143.966C207.182 147.027 199.786 152.46 189.62 156.323C179.455 160.185 170.346 160.778 169.177 157.701C168.009 154.624 175.228 149.079 185.41 145.216C195.591 141.354 204.844 140.889 206.013 143.966Z" fill="#FE5244"/>
<path d="M211.695 243.393V245.092C211.167 244.964 210.607 244.9 210.046 244.9H207.981C204.924 244.9 202.314 242.944 201.322 240.22L207.181 239.434C209.566 239.114 211.695 240.973 211.695 243.393Z" fill="#73325A"/>
<path d="M217.107 251.967V265.012C217.107 268.057 214.642 270.525 211.6 270.525H205.469C203.948 270.525 202.571 269.916 201.579 268.907C200.586 267.913 199.962 266.535 199.962 265.012H203.948C205.261 265.012 206.317 263.954 206.317 262.64V259.227C206.317 257.912 205.261 256.855 203.948 256.855H183.569C175.613 256.855 169.162 250.396 169.162 242.431V156.241C170.122 153.083 176.67 148.516 185.394 145.214C191.349 142.955 197 141.865 200.891 141.961V237.831C200.891 241.742 204.06 244.915 207.966 244.915H210.031C213.938 244.899 217.107 248.056 217.107 251.967Z" fill="#A0505A"/>
<path d="M200.891 141.945V150.664C197.993 152.619 194.071 154.622 189.605 156.305C179.423 160.167 170.33 160.76 169.162 157.683V156.225C170.122 153.068 176.67 148.5 185.394 145.199C191.365 142.939 197.001 141.849 200.891 141.945Z" fill="#73325A"/>
<path d="M174.268 77.0215L168.249 92.5511L137.225 98.1123L145.325 77.0215H174.268Z" fill="#A0505A"/>
<path d="M174.269 77.0215L171.019 85.4194L140.251 90.2273L145.326 77.0215H174.269Z" fill="#73325A"/>
<path d="M192.455 45.4189C192.455 47.5183 188.821 49.8422 184.627 51.7974C178.912 54.4738 172.172 56.5092 172.172 56.5092L167.626 65.0834C173.805 68.3688 176.222 74.2665 177.183 78.3853C177.791 81.0137 177.791 82.8888 177.791 82.8888H134.216C134.216 82.8888 122.77 45.7715 150.352 36.8928C167.225 31.4598 192.455 40.4346 192.455 45.4189Z" fill="white"/>
<path fill-rule="evenodd" clip-rule="evenodd" d="M177.61 37.7131C169.237 35.5371 158.814 34.6715 150.499 37.3489C143.716 39.5322 139.353 43.4406 136.607 48.0693C133.853 52.7093 132.71 58.098 132.419 63.2458C132.129 68.3914 132.692 73.2692 133.33 76.8648C133.649 78.6613 133.986 80.1348 134.243 81.1578C134.371 81.6692 134.48 82.0679 134.555 82.3378C134.562 82.3617 134.569 82.3845 134.575 82.4064H177.293C177.282 82.212 177.264 81.9629 177.236 81.6668C177.162 80.8869 177.013 79.7825 176.714 78.4926C175.768 74.4348 173.402 68.6978 167.4 65.5064L166.976 65.2809L171.841 56.1052L172.033 56.0473L172.079 56.2029C172.033 56.0473 172.033 56.0473 172.033 56.0473L172.033 56.0472L172.034 56.047L172.051 56.0416C172.064 56.0378 172.083 56.032 172.108 56.0244C172.158 56.009 172.232 55.986 172.329 55.9558C172.523 55.8954 172.807 55.8059 173.166 55.6901C173.884 55.4585 174.901 55.1218 176.096 54.7017C178.488 53.8608 181.585 52.6889 184.422 51.3603L184.423 51.3599C186.508 50.3879 188.43 49.335 189.823 48.2775C190.519 47.7486 191.067 47.2312 191.436 46.7367C191.807 46.2404 191.974 45.8011 191.974 45.4173C191.974 44.9909 191.695 44.4236 191 43.7398C190.32 43.07 189.31 42.3563 188.016 41.6389C185.431 40.2062 181.79 38.7998 177.61 37.7131ZM177.79 82.8872L178.271 82.8872L178.27 83.368H133.861L133.756 83.029L134.215 82.8872C133.756 83.029 133.756 83.0287 133.756 83.0282L133.754 83.0209L133.747 82.9993C133.741 82.9805 133.733 82.9529 133.722 82.9167C133.701 82.8443 133.67 82.7376 133.631 82.5985C133.553 82.3204 133.442 81.913 133.311 81.3921C133.05 80.3506 132.708 78.8549 132.385 77.033C131.739 73.3916 131.164 68.4351 131.46 63.1916C131.756 57.9502 132.923 52.3948 135.781 47.5782C138.646 42.7503 143.196 38.6895 150.205 36.4335C158.763 33.6779 169.39 34.5832 177.851 36.7824C182.087 37.8833 185.808 39.3157 188.481 40.7977C189.816 41.5378 190.908 42.3005 191.674 43.0543C192.425 43.7941 192.934 44.5975 192.934 45.4173C192.934 46.0831 192.647 46.7216 192.205 47.3127C191.762 47.9054 191.139 48.4848 190.403 49.0437C188.93 50.1618 186.938 51.2484 184.829 52.2317C181.951 53.5793 178.821 54.7632 176.415 55.609C175.21 56.0323 174.185 56.3717 173.461 56.6054C173.099 56.7222 172.812 56.8127 172.615 56.874C172.573 56.8869 172.536 56.8986 172.502 56.9089L168.271 64.8881C174.316 68.3068 176.697 74.1882 177.65 78.2744L177.65 78.2752C177.96 79.6135 178.115 80.7607 178.192 81.5754C178.231 81.9829 178.251 82.3076 178.261 82.532C178.265 82.6443 178.268 82.7314 178.269 82.7913C178.27 82.8213 178.27 82.8444 178.27 82.8605C178.27 82.8685 178.27 82.8748 178.27 82.8793L178.271 82.8862V82.887C178.271 82.8871 178.271 82.8872 177.79 82.8872Z" fill="#FFCF2D"/>
<path d="M146.317 42.1803C152.303 42.1803 157.155 37.3226 157.155 31.3304C157.155 25.3381 152.303 20.4805 146.317 20.4805C140.332 20.4805 135.479 25.3381 135.479 31.3304C135.479 37.3226 140.332 42.1803 146.317 42.1803Z" fill="white"/>
<path fill-rule="evenodd" clip-rule="evenodd" d="M146.318 20.9616C140.597 20.9616 135.96 25.604 135.96 31.3307C135.96 37.0574 140.597 41.6999 146.318 41.6999C152.038 41.6999 156.675 37.0574 156.675 31.3307C156.675 25.604 152.038 20.9616 146.318 20.9616ZM135 31.3307C135 25.0729 140.067 20 146.318 20C152.568 20 157.636 25.0729 157.636 31.3307C157.636 37.5885 152.568 42.6615 146.318 42.6615C140.067 42.6615 135 37.5885 135 31.3307Z" fill="#FFCF2D"/>
<path d="M177.166 78.3837C176.269 74.4892 174.028 68.9441 168.505 65.5945H167.081C165.768 65.5945 164.567 65.0657 163.703 64.2002C162.838 63.3348 162.31 62.1328 162.31 60.8187C162.31 58.1743 164.439 56.0428 167.081 56.0428L173.116 56.171H173.276C173.388 56.1389 173.5 56.0908 173.628 56.0588C175.261 55.7062 180.432 54.4561 184.722 52.3086L185.218 55.2735L186.819 64.7772C187.908 71.3 183.441 77.3099 177.166 78.3837Z" fill="#A0505A"/>
<path d="M185.203 55.2579C179.952 57.3894 173.1 56.1554 173.1 56.1554C173.1 56.1554 179.552 54.8732 184.706 52.293L185.203 55.2579Z" fill="#73325A"/>
<path fill-rule="evenodd" clip-rule="evenodd" d="M167.097 58.4319C167.097 58.2106 167.276 58.0312 167.497 58.0312C169.543 58.0312 171.195 59.6851 171.195 61.7334C171.195 61.9547 171.016 62.134 170.795 62.134C170.574 62.134 170.394 61.9547 170.394 61.7334C170.394 60.1276 169.101 58.8326 167.497 58.8326C167.276 58.8326 167.097 58.6532 167.097 58.4319Z" fill="#73325A"/>
<path fill-rule="evenodd" clip-rule="evenodd" d="M205.858 419.92L187.272 265.072L188.226 264.957L206.812 419.805L205.858 419.92Z" fill="#66B0F0"/>
<path fill-rule="evenodd" clip-rule="evenodd" d="M88.1309 419.805L106.701 264.957L107.654 265.072L89.0845 419.919L88.1309 419.805Z" fill="#66B0F0"/>
<path fill-rule="evenodd" clip-rule="evenodd" d="M199.947 367.167H94.979V366.205H199.947V367.167Z" fill="#66B0F0"/>
<path d="M91.0251 265.013H203.901C205.246 265.013 206.335 263.923 206.335 262.577V259.276C206.335 257.93 205.246 256.84 203.901 256.84H91.0251C89.6804 256.84 88.5918 257.93 88.5918 259.276V262.577C88.6078 263.923 89.6964 265.013 91.0251 265.013Z" fill="white"/>
<path fill-rule="evenodd" clip-rule="evenodd" d="M88.1108 259.276C88.1108 257.664 89.4144 256.359 91.0244 256.359H203.901C205.511 256.359 206.814 257.664 206.814 259.276V262.578C206.814 264.189 205.511 265.494 203.901 265.494H91.0244C89.4273 265.494 88.1299 264.187 88.1109 262.583L88.1108 262.58V259.276ZM91.0244 257.321C89.9449 257.321 89.0714 258.195 89.0714 259.276V262.575C89.0857 263.662 89.9649 264.533 91.0244 264.533H203.901C204.98 264.533 205.854 263.658 205.854 262.578V259.276C205.854 258.195 204.98 257.321 203.901 257.321H91.0244Z" fill="#FFCF2D"/>
</svg>
